<mxfile host="app.diagrams.net" agent="Mozilla/5.0 (Macintosh; Intel Mac OS X 10_15_7) AppleWebKit/605.1.15 (KHTML, like Gecko) Version/18.3 Safari/605.1.15" version="26.0.11">
  <diagram id="pFb0MpjJVy6_yMp1JPtp" name="Page-2">
    <mxGraphModel dx="1363" dy="924" grid="1" gridSize="10" guides="1" tooltips="1" connect="1" arrows="1" fold="1" page="1" pageScale="1" pageWidth="1100" pageHeight="850" math="0" shadow="0">
      <root>
        <mxCell id="0" />
        <mxCell id="1" parent="0" />
        <mxCell id="eAZYdMzIZOF0PukDBkYk-2" value="" style="rounded=1;whiteSpace=wrap;html=1;" parent="1" vertex="1">
          <mxGeometry x="400" y="40" width="680" height="280" as="geometry" />
        </mxCell>
        <mxCell id="eAZYdMzIZOF0PukDBkYk-1" value="" style="rounded=1;whiteSpace=wrap;html=1;" parent="1" vertex="1">
          <mxGeometry x="30" y="40" width="340" height="740" as="geometry" />
        </mxCell>
        <mxCell id="eAZYdMzIZOF0PukDBkYk-3" value="" style="rounded=1;whiteSpace=wrap;html=1;" parent="1" vertex="1">
          <mxGeometry x="400" y="440" width="670" height="340" as="geometry" />
        </mxCell>
        <mxCell id="eAZYdMzIZOF0PukDBkYk-4" value="&lt;font style=&quot;font-size: 18px;&quot;&gt;DataOps MLOps AIOps&lt;/font&gt;" style="rounded=1;whiteSpace=wrap;html=1;" parent="1" vertex="1">
          <mxGeometry x="30" y="790" width="1040" height="50" as="geometry" />
        </mxCell>
        <mxCell id="eAZYdMzIZOF0PukDBkYk-5" value="&lt;font style=&quot;font-size: 18px;&quot;&gt;Azure&lt;/font&gt;" style="text;html=1;align=center;verticalAlign=middle;resizable=0;points=[];autosize=1;strokeColor=none;fillColor=none;fontStyle=1" parent="1" vertex="1">
          <mxGeometry x="986" y="40" width="70" height="30" as="geometry" />
        </mxCell>
        <mxCell id="eAZYdMzIZOF0PukDBkYk-6" value="&lt;font style=&quot;font-size: 18px;&quot;&gt;Azure&lt;/font&gt;" style="text;html=1;align=center;verticalAlign=middle;resizable=0;points=[];autosize=1;strokeColor=none;fillColor=none;fontStyle=1" parent="1" vertex="1">
          <mxGeometry x="60" y="740" width="70" height="30" as="geometry" />
        </mxCell>
        <mxCell id="eAZYdMzIZOF0PukDBkYk-7" value="&lt;font style=&quot;font-size: 18px;&quot;&gt;GCP Vertex AI&lt;/font&gt;" style="text;html=1;align=center;verticalAlign=middle;resizable=0;points=[];autosize=1;strokeColor=none;fillColor=none;fontStyle=1" parent="1" vertex="1">
          <mxGeometry x="909.56" y="740" width="140" height="30" as="geometry" />
        </mxCell>
        <mxCell id="eAZYdMzIZOF0PukDBkYk-36" value="" style="edgeStyle=orthogonalEdgeStyle;rounded=0;orthogonalLoop=1;jettySize=auto;html=1;flowAnimation=1;strokeColor=#666666;strokeWidth=2;entryX=0.5;entryY=0;entryDx=0;entryDy=0;exitX=0.526;exitY=0.998;exitDx=0;exitDy=0;exitPerimeter=0;" parent="1" source="eAZYdMzIZOF0PukDBkYk-53" target="eAZYdMzIZOF0PukDBkYk-44" edge="1">
          <mxGeometry relative="1" as="geometry">
            <mxPoint x="1000" y="470" as="targetPoint" />
            <mxPoint x="1000" y="408.3399999999999" as="sourcePoint" />
          </mxGeometry>
        </mxCell>
        <mxCell id="eAZYdMzIZOF0PukDBkYk-45" value="" style="edgeStyle=orthogonalEdgeStyle;rounded=0;orthogonalLoop=1;jettySize=auto;html=1;strokeWidth=2;strokeColor=#666666;flowAnimation=1;" parent="1" target="eAZYdMzIZOF0PukDBkYk-43" edge="1">
          <mxGeometry relative="1" as="geometry">
            <mxPoint x="877.8571428571427" y="408.3399999999999" as="sourcePoint" />
          </mxGeometry>
        </mxCell>
        <mxCell id="eAZYdMzIZOF0PukDBkYk-35" value="" style="edgeStyle=orthogonalEdgeStyle;rounded=0;orthogonalLoop=1;jettySize=auto;html=1;flowAnimation=1;strokeColor=#666666;strokeWidth=2;" parent="1" source="eAZYdMzIZOF0PukDBkYk-12" edge="1">
          <mxGeometry relative="1" as="geometry">
            <mxPoint x="1000" y="370.3399999999999" as="targetPoint" />
          </mxGeometry>
        </mxCell>
        <mxCell id="eAZYdMzIZOF0PukDBkYk-12" value="" style="shape=image;editableCssRules=.*;verticalLabelPosition=bottom;labelBackgroundColor=default;verticalAlign=top;aspect=fixed;imageAspect=0;image=data:image/svg+xml,PHN2ZyB4bWxucz0iaHR0cDovL3d3dy53My5vcmcvMjAwMC9zdmciIHZpZXdCb3g9Ii0wLjUgLTAuNSAyNS4yIDI4IiBoZWlnaHQ9IjI4IiB3aWR0aD0iMjUuMiI+JiN4YTsJICA8c3R5bGUgdHlwZT0idGV4dC9jc3MiPi5zdDAgeyBzdG9wLWNvbG9yOiByZ2IoMzUsIDE0OSwgMjU1KTsgfSAuc3QxIHsgc3RvcC1jb2xvcjogcmdiKDAsIDg3LCAyMTApOyB9IDwvc3R5bGU+JiN4YTsJPGRlZnM+JiN4YTsJCTxsaW5lYXJHcmFkaWVudCBncmFkaWVudFVuaXRzPSJ1c2VyU3BhY2VPblVzZSIgeTI9IjIzLjA1NyIgeDI9IjIzLjEyNiIgeTE9IjMuNDc0IiB4MT0iMS43ODUiIGlkPSJBIj4mI3hhOwkJCTxzdG9wIGNsYXNzPSJzdDAiLz4mI3hhOwkJCTxzdG9wIGNsYXNzPSJzdDEiIG9mZnNldD0iMSIvPiYjeGE7CQk8L2xpbmVhckdyYWRpZW50PiYjeGE7CTwvZGVmcz4mI3hhOwk8cGF0aCBmaWxsPSJ1cmwoI0EpIiBkPSJNMTEuNzU3LS40ODNDMTEuNDQ1LS40MDEuMTg0IDQuNzExLjAyIDQuODM3YTEuNzkgMS43OSAwIDAgMC0uMzU2LjQ3MWwtLjE2NC4zMjN2Ny44ODJWMjEuNGwuMTM3LjI2OGMuMDc3LjE0OC4yMjQuMzQ1LjMzOS40MzguMTMxLjExNSAyLjE3MiAxLjA2MiA1Ljk1OSAyLjc2NCA2LjE4MyAyLjc4MSA2LjA3NCAyLjczNyA2LjU3NyAyLjU2Mi4zOTktLjEzNyAxMS4zNy01LjA4NSAxMS41OTUtNS4yMjcuMjMtLjE0OC40Ni0uNDYuNTM2LS43MjguMDgyLS4yNzQuMDcxLTE1LjY2NS0uMDA2LTE1Ljk1LS4wODItLjI4NS0uMzM0LS42MzUtLjU1OC0uNzY2LS4wOTMtLjA2LTIuNzM2LTEuMjY0LTUuODY2LTIuNjcxLTUuMTYtMi4zMjYtNS43MjQtMi41NjctNi4wMTktMi41ODQtLjE4MS0uMDExLS4zNzgtLjAwNS0uNDM4LjAxMXptNC4yMjQgNC42NTNsMy44MDggMS43NzNjLS4wNjYuMDY2LTcuNTg0IDMuNDQ4LTcuNjc3IDMuNDU0YTM0OS43NSAzNDkuNzUgMCAwIDEtNy43MjYtMy40NTRjLS4wMzMtLjAyNyA3LjU3My0zLjQ5MiA3LjY5My0zLjUwMy4wMjctLjAwNSAxLjc4NC43NzIgMy45MDEgMS43M3ptLTkuNDIzIDUuODQ2bDQuMTMxIDEuODYxdjYuMDA1bC0uMDM4IDYuMDFjLS4wMTYgMC0xLjkwNC0uODQzLTQuMTg2LTEuODY3bC00LjE0OC0xLjg3MnYtNi4wMTVsLjA1NS01Ljk5OWMuMDI3LjAwNSAxLjkxLjg1NCA0LjE4NiAxLjg3N3ptMTUuMzQ5IDQuMTIydjYuMDFsLTQuMTE1IDEuODU1LTQuMjEzIDEuODc4Yy0uMDkzLjAyMi0uMDk4LS4yNzQtLjA4OC01Ljk4OGwuMDE2LTYuMDEgNC4xNTgtMS44NzcgNC4yMDMtMS44NzdjLjAyMiAwIC4wMzggMi43MDQuMDM4IDYuMDF6Ii8+JiN4YTs8L3N2Zz4=;" parent="1" vertex="1">
          <mxGeometry x="982.45" y="256.01" width="35.11" height="39.33" as="geometry" />
        </mxCell>
        <mxCell id="eAZYdMzIZOF0PukDBkYk-18" value="" style="sketch=0;html=1;aspect=fixed;strokeColor=none;shadow=0;fillColor=#3B8DF1;verticalAlign=top;labelPosition=center;verticalLabelPosition=bottom;shape=mxgraph.gcp2.files" parent="1" vertex="1">
          <mxGeometry x="855" y="256.01" width="45.7" height="44.33" as="geometry" />
        </mxCell>
        <mxCell id="eAZYdMzIZOF0PukDBkYk-40" value="Training&lt;div&gt;Data&lt;/div&gt;" style="text;html=1;align=center;verticalAlign=middle;resizable=0;points=[];autosize=1;strokeColor=none;fillColor=none;" parent="1" vertex="1">
          <mxGeometry x="890" y="280" width="70" height="40" as="geometry" />
        </mxCell>
        <mxCell id="eAZYdMzIZOF0PukDBkYk-41" value="Features" style="text;html=1;align=center;verticalAlign=middle;resizable=0;points=[];autosize=1;strokeColor=none;fillColor=none;" parent="1" vertex="1">
          <mxGeometry x="1010" y="280" width="70" height="30" as="geometry" />
        </mxCell>
        <mxCell id="d0G_s2lFXDd53nD6BOQX-11" value="" style="edgeStyle=orthogonalEdgeStyle;rounded=0;orthogonalLoop=1;jettySize=auto;html=1;entryX=0.636;entryY=-0.031;entryDx=0;entryDy=0;entryPerimeter=0;flowAnimation=1;strokeWidth=2;strokeColor=#666666;" edge="1" parent="1" source="eAZYdMzIZOF0PukDBkYk-44" target="d0G_s2lFXDd53nD6BOQX-2">
          <mxGeometry relative="1" as="geometry" />
        </mxCell>
        <mxCell id="eAZYdMzIZOF0PukDBkYk-44" value="" style="editableCssRules=.*;html=1;shape=image;verticalLabelPosition=bottom;labelBackgroundColor=#ffffff;verticalAlign=top;aspect=fixed;imageAspect=0;image=data:image/svg+xml,PHN2ZyB4bWxucz0iaHR0cDovL3d3dy53My5vcmcvMjAwMC9zdmciIHhtbG5zOnY9Imh0dHBzOi8vdmVjdGEuaW8vbmFubyIgd2lkdGg9IjIwLjAwMTA0NTIyNzA1MDc4IiBoZWlnaHQ9IjIwLjAwMTA0NTIyNzA1MDc4IiBmaWxsLXJ1bGU9ImV2ZW5vZGQiIHZpZXdCb3g9IjAgMCAyMC4wMDEwNDUyMjcwNTA3OCAyMC4wMDEwNDUyMjcwNTA3OCI+JiN4YTsJPHN0eWxlIHR5cGU9InRleHQvY3NzIj4mI3hhOwkuc3Qwe2ZpbGw6I2FlY2JmYTt9JiN4YTsJLnN0MXtmaWxsOiM2NjlkZjY7fSYjeGE7CS5zdDJ7ZmlsbDojNDI4NWY0O30mI3hhOwk8L3N0eWxlPiYjeGE7CTxwYXRoIGNsYXNzPSJzdDAiIGQ9Ik00LjczIDguODN2Mi42M2E0LjkxIDQuOTEgMCAwIDAgMS43MSAxLjc0VjguODN6Ii8+JiN4YTsJPHBhdGggY2xhc3M9InN0MSIgZD0iTTcuODkgNi40MXY3LjUzQTcuNjIgNy42MiAwIDAgMCA5IDE0YTggOCAwIDAgMCAxIDBWNi40MXoiLz4mI3hhOwk8cGF0aCBjbGFzcz0ic3QwIiBkPSJNMTEuNjQgOS44NnYzLjI5YTUgNSAwIDAgMCAxLjctMS44MlY5Ljg2eiIvPiYjeGE7CTxwYXRoIGNsYXNzPSJzdDIiIGQ9Ik0xNS43NCAxNC4zMmwtMS40MiAxLjQyYS40Mi40MiAwIDAgMCAwIC42bDMuNTQgMy41NGEuNDIuNDIgMCAwIDAgLjU5IDBsMS40My0xLjQzYS40Mi40MiAwIDAgMCAwLS41OWwtMy41NC0zLjU0YS40Mi40MiAwIDAgMC0uNiAwIi8+JiN4YTsJPHBhdGggY2xhc3M9InN0MSIgZD0iTTkgMGE5IDkgMCAxIDAgMCAxOEE5IDkgMCAxIDAgOSAwbTAgMTUuNjlhNi42OCA2LjY4IDAgMCAxIC4wMDctMTMuMzYgNi42OCA2LjY4IDAgMCAxIDQuNzI3IDExLjQwM0E2LjY4IDYuNjggMCAwIDEgOSAxNS42OSIvPiYjeGE7PC9zdmc+;" parent="1" vertex="1">
          <mxGeometry x="980" y="463.65999999999997" width="40" height="40" as="geometry" />
        </mxCell>
        <mxCell id="eAZYdMzIZOF0PukDBkYk-47" value="Data and&lt;div&gt;Features&lt;/div&gt;" style="text;html=1;align=center;verticalAlign=middle;resizable=0;points=[];autosize=1;strokeColor=none;fillColor=none;" parent="1" vertex="1">
          <mxGeometry x="916" y="459.33" width="70" height="40" as="geometry" />
        </mxCell>
        <mxCell id="eAZYdMzIZOF0PukDBkYk-48" value="Batch&lt;div&gt;Inference&lt;/div&gt;" style="text;html=1;align=center;verticalAlign=middle;resizable=0;points=[];autosize=1;strokeColor=none;fillColor=none;" parent="1" vertex="1">
          <mxGeometry x="475" y="475" width="70" height="40" as="geometry" />
        </mxCell>
        <mxCell id="eAZYdMzIZOF0PukDBkYk-72" value="" style="edgeStyle=orthogonalEdgeStyle;rounded=0;orthogonalLoop=1;jettySize=auto;html=1;strokeColor=#666666;flowAnimation=1;strokeWidth=2;entryX=1;entryY=0.25;entryDx=0;entryDy=0;exitX=-0.035;exitY=0.561;exitDx=0;exitDy=0;exitPerimeter=0;" parent="1" target="eAZYdMzIZOF0PukDBkYk-70" edge="1" source="eAZYdMzIZOF0PukDBkYk-48">
          <mxGeometry relative="1" as="geometry">
            <mxPoint x="533.7799999999997" y="259.25" as="sourcePoint" />
            <mxPoint x="300" y="260" as="targetPoint" />
            <Array as="points">
              <mxPoint x="473" y="494" />
            </Array>
          </mxGeometry>
        </mxCell>
        <mxCell id="eAZYdMzIZOF0PukDBkYk-75" value="" style="edgeStyle=orthogonalEdgeStyle;rounded=0;orthogonalLoop=1;jettySize=auto;html=1;flowAnimation=1;strokeColor=#666666;strokeWidth=2;" parent="1" source="eAZYdMzIZOF0PukDBkYk-49" target="eAZYdMzIZOF0PukDBkYk-70" edge="1">
          <mxGeometry relative="1" as="geometry" />
        </mxCell>
        <mxCell id="eAZYdMzIZOF0PukDBkYk-49" value="" style="editableCssRules=.*;html=1;shape=image;verticalLabelPosition=bottom;labelBackgroundColor=#ffffff;verticalAlign=top;aspect=fixed;imageAspect=0;image=data:image/svg+xml,PHN2ZyB4bWxucz0iaHR0cDovL3d3dy53My5vcmcvMjAwMC9zdmciIHhtbG5zOnY9Imh0dHBzOi8vdmVjdGEuaW8vbmFubyIgd2lkdGg9IjM3NS41MDQwMTg5MTYxMTE2IiBoZWlnaHQ9IjM3Ni40MTEwMTA4NDIxNTg5MyIgdmlld0JveD0iMCAwIDk5LjM1MjAwNTAwNDg4MjgxIDk5LjU5MjAwMjg2ODY1MjM0Ij4mI3hhOzxzdHlsZSB0eXBlPSJ0ZXh0L2NzcyI+JiN4YTsJLnN0MHtmaWxsOiM2NjlkZjY7fSYjeGE7CS5zdDF7ZmlsbDojYWVjYmZhO30mI3hhOzwvc3R5bGU+JiN4YTsJPHBhdGggY2xhc3M9InN0MCIgZD0iTTcwLjc2MyA0OS43ODZhMzAuOTkgMzAuOTkgMCAwIDAtNC40OTkuNDQydjI3LjA3OGgxMXYtMjYuOTdsLTIuNjg2LS4zOTFjLTEuMjc5LS4xMzEtMi41NC0uMTg2LTMuODE1LS4xNTl6bS0xNS41ODcgMy43NjZsLTQuNDcxIDEuODcxLS4wMTYuMDA2LS4wMTYuMDA4LTYuNDk4IDIuNTIydjMwLjg4NGgxMXptMzMuMTc2LjEwNHY0NS45MzZoMTFWNTguMTk4Yy00LjEzOC0xLjc5OC03Ljc4My0zLjMyNS0xMS00LjU0MXpNMCA1My43Njh2MjMuNTM5aDExVjU4LjAxMmMtMy40MzYtMS4xMjYtNy4wNTItMi41NTItMTEtNC4yNDR6bTMzLjA4OCA2Ljg2Yy0zLjcwNS40NzItNy4zMjUuNDc4LTExIC4wMDd2MzguOTU3aDExeiIvPiYjeGE7CTxwYXRoIGNsYXNzPSJzdDEiIGQ9Ik0wIDB2NDEuNzM0YzQuMTA1IDEuODE5IDcuNzQgMy4zNSAxMSA0LjU3MlYwem02Ni4yNjQgMHYzOS4xNTRjMy4xNzgtLjQxMiA2LjI4Mi0uNDczIDkuNDM0LS4xNS41MjMuMDUzIDEuMDQ0LjExOSAxLjU2Ni4xOTFWMHpNNDQuMTc2IDExLjUzOHYzNC42OTRsMi4xMzctLjg5NWMzLjE0LTEuMzc5IDYuMDY5LTIuNTM5IDguODYzLTMuNDl2LTMwLjMxek0yMi4wODggMjIuMjg1djI3LjIzYy4wMTEuMDAyLjAyMi4wMDQuMDMzLjAwNiAzLjc3NC42NCA3LjIxNS43MDcgMTAuOTY3LjA4VjIyLjI4NXptNjYuMjY0IDB2MTkuNjQxYzMuMzg4IDEuMTQ0IDcuMDE1IDIuNTk3IDExIDQuMjlWMjIuMjg1eiIvPiYjeGE7PC9zdmc+;" parent="1" vertex="1">
          <mxGeometry x="435" y="527.5" width="40" height="40" as="geometry" />
        </mxCell>
        <mxCell id="eAZYdMzIZOF0PukDBkYk-53" value="Sync" style="text;html=1;align=center;verticalAlign=middle;resizable=0;points=[];autosize=1;strokeColor=none;fillColor=none;" parent="1" vertex="1">
          <mxGeometry x="975" y="370.34" width="50" height="30" as="geometry" />
        </mxCell>
        <mxCell id="eAZYdMzIZOF0PukDBkYk-55" value="" style="editableCssRules=.*;html=1;shape=image;verticalLabelPosition=bottom;labelBackgroundColor=#ffffff;verticalAlign=top;aspect=fixed;imageAspect=0;image=data:image/svg+xml,PHN2ZyB4bWxucz0iaHR0cDovL3d3dy53My5vcmcvMjAwMC9zdmciIHhtbG5zOnY9Imh0dHBzOi8vdmVjdGEuaW8vbmFubyIgd2lkdGg9IjIwLjAwMTA0NTIyNzA1MDc4IiBoZWlnaHQ9IjIwLjAwMTA0NTIyNzA1MDc4IiBmaWxsLXJ1bGU9ImV2ZW5vZGQiIHZpZXdCb3g9IjAgMCAyMC4wMDEwNDUyMjcwNTA3OCAyMC4wMDEwNDUyMjcwNTA3OCI+JiN4YTsJPHN0eWxlIHR5cGU9InRleHQvY3NzIj4mI3hhOwkuc3Qwe2ZpbGw6I2FlY2JmYTt9JiN4YTsJLnN0MXtmaWxsOiM2NjlkZjY7fSYjeGE7CS5zdDJ7ZmlsbDojNDI4NWY0O30mI3hhOwk8L3N0eWxlPiYjeGE7CTxwYXRoIGNsYXNzPSJzdDAiIGQ9Ik00LjczIDguODN2Mi42M2E0LjkxIDQuOTEgMCAwIDAgMS43MSAxLjc0VjguODN6Ii8+JiN4YTsJPHBhdGggY2xhc3M9InN0MSIgZD0iTTcuODkgNi40MXY3LjUzQTcuNjIgNy42MiAwIDAgMCA5IDE0YTggOCAwIDAgMCAxIDBWNi40MXoiLz4mI3hhOwk8cGF0aCBjbGFzcz0ic3QwIiBkPSJNMTEuNjQgOS44NnYzLjI5YTUgNSAwIDAgMCAxLjctMS44MlY5Ljg2eiIvPiYjeGE7CTxwYXRoIGNsYXNzPSJzdDIiIGQ9Ik0xNS43NCAxNC4zMmwtMS40MiAxLjQyYS40Mi40MiAwIDAgMCAwIC42bDMuNTQgMy41NGEuNDIuNDIgMCAwIDAgLjU5IDBsMS40My0xLjQzYS40Mi40MiAwIDAgMCAwLS41OWwtMy41NC0zLjU0YS40Mi40MiAwIDAgMC0uNiAwIi8+JiN4YTsJPHBhdGggY2xhc3M9InN0MSIgZD0iTTkgMGE5IDkgMCAxIDAgMCAxOEE5IDkgMCAxIDAgOSAwbTAgMTUuNjlhNi42OCA2LjY4IDAgMCAxIC4wMDctMTMuMzYgNi42OCA2LjY4IDAgMCAxIDQuNzI3IDExLjQwM0E2LjY4IDYuNjggMCAwIDEgOSAxNS42OSIvPiYjeGE7PC9zdmc+;" parent="1" vertex="1">
          <mxGeometry x="535" y="474.33" width="40" height="40" as="geometry" />
        </mxCell>
        <mxCell id="eAZYdMzIZOF0PukDBkYk-56" value="" style="shape=image;verticalLabelPosition=bottom;labelBackgroundColor=default;verticalAlign=top;aspect=fixed;imageAspect=0;image=data:image/png,iVBORw0KGgoAAAANSUhEUgAAAzAAAAD4CAYAAAAzWwNfAAAMTWlDQ1BJQ0MgUHJvZmlsZQAASImVVwdYU8kWnltSSQgQiICU0JsgIiWAlBBaAOlFEJWQBAglxoSgYkcXFVy7iGBFV0EU2wrIYkNddWVR7K5lsaCysi4W7MqbEECXfeV75/vm3v/+c+afc86dWwYARodAJstFtQDIk+bLY0MC2BOSU9ikLoAAFqABU2AjECpk3OjoCABt8Px3e3MdekO74qjS+mf/fzVtkVghBACJhjhdpBDmQfwjAHizUCbPB4Aog7zF9HyZCq+FWFcOA4S4WoUz1bhZhdPV+FK/T3wsD+JHAJBpAoE8EwDNHsizC4SZUIcBswXOUpFECrE/xL55eVNFEM+H2Bb6wDkZKn1O+jc6mX/TTB/SFAgyh7A6l34jB0oUslzBzP+zHP/b8nKVg3PYwEbLkofGqnKGdXuUMzVchWkQv5OmR0ZBrAMAiktE/f4qzMpShiao/VFboYIHawbvNEDHKXLj+AN8rEgQGA6xEcQZ0tzIiAGfogxJsMoH1g8tl+Tz4yHWh7harAiKG/A5IZ8aOzjv9Qw5jzvAPxXI+2NQ6X9R5iRw1fqYTpaYP6CPORVmxSdBTIU4sECSGAmxJsSRipy48AGf1MIsXuSgj1wZq8rFEmK5WBoSoNbHyjLkwbED/rvzFIO5YyeyJPzIAXw5Pys+VF0r7JFQ0B8/zAXrEUu5CYM6YsWEiMFcROLAIHXuOFksTYhT87i+LD8gVj0Wt5flRg/44wHi3BAVbw5xvKIgbnBsQT5cnGp9vFiWHx2vjhOvyBaERavjwfeDCMADgYANlLClg6kgG0jauhu64ZW6JxgIgBxkAjFwHGAGRyT190jhMQ4Ugj8hEgPF0LiA/l4xKID852GsipMMceqjI8gY6FOp5IDHEOeBcJALr5X9StKhCBLBI8hI/hGRADYhzCEXNlX/v+cH2a8MFzIRA4xycEY2Y9CTGEQMJIYSg4l2uCHui3vjEfDoD5sLzsE9B/P46k94TGgnPCBcI3QQbk2RFMmHRTkedED94IH6pH9bH9waarrhAbgPVIfKOAs3BI64K5yHi/vBmd0gyxuIW1UV9jDtv2XwzR0a8KM4U1DKCIo/xXb4SE17TbchFVWtv62POtb0oXrzhnqGz8/7pvoieA4f7oktwQ5hZ7GT2HmsGWsAbOw41oi1YkdVeGjFPepfcYOzxfbHkwN1hq+Zr3dWVUmFc61zl/MndV++eEa+6mHkTZXNlEsys/LZXPjFELP5UqHTKLaLs4sbAKrvj/r19iqm/7uCsFq/cgt/B8DneF9f309fubDjABzwgK+EI185Ww78tGgAcO6IUCkvUHO46kCAbw4GfPoMgAmwALYwHxfgDryBPwgCYSAKxINkMBlGnwXXuRxMB7PBAlAMSsFKsA5UgC1gO6gGe8FB0ACawUnwM7gALoFr4DZcPZ3gGegBb8BHBEFICB1hIgaIKWKFOCAuCAfxRYKQCCQWSUbSkExEiiiR2chCpBRZjVQg25Aa5AByBDmJnEfakVvIfaQLeYl8QDGUhuqixqg1OhrloFw0HI1HJ6GZ6DS0EF2ELkfL0Sp0D1qPnkQvoNfQDvQZ2osBTANjYWaYI8bBeFgUloJlYHJsLlaClWFVWB3WBO/zFawD68be40ScibNxR7iCQ/EEXIhPw+fiy/AKvBqvx0/jV/D7eA/+hUAnGBEcCF4EPmECIZMwnVBMKCPsJBwmnIHPUifhDZFIZBFtiB7wWUwmZhNnEZcRNxH3EU8Q24kPib0kEsmA5EDyIUWRBKR8UjFpA2kP6TjpMqmT9I6sQTYlu5CDySlkKbmIXEbeTT5Gvkx+Qv5I0aJYUbwoURQRZSZlBWUHpYlykdJJ+UjVptpQfajx1GzqAmo5tY56hnqH+kpDQ8Ncw1MjRkOiMV+jXGO/xjmN+xrvaTo0exqPlkpT0pbTdtFO0G7RXtHpdGu6Pz2Fnk9fTq+hn6Lfo7/TZGo6afI1RZrzNCs16zUvaz5nUBhWDC5jMqOQUcY4xLjI6NaiaFlr8bQEWnO1KrWOaN3Q6tVmao/RjtLO016mvVv7vPZTHZKOtU6Qjkhnkc52nVM6D5kY04LJYwqZC5k7mGeYnbpEXRtdvm62bqnuXt023R49HT1XvUS9GXqVekf1OlgYy5rFZ+WyVrAOsq6zPowwHsEdIR6xdETdiMsj3uqP1PfXF+uX6O/Tv6b/wYBtEGSQY7DKoMHgriFuaG8YYzjdcLPhGcPukbojvUcKR5aMPDjyNyPUyN4o1miW0XajVqNeYxPjEGOZ8QbjU8bdJiwTf5Nsk7Umx0y6TJmmvqYS07Wmx03/YOuxuexcdjn7NLvHzMgs1Expts2szeyjuY15gnmR+T7zuxZUC45FhsVaixaLHktTy/GWsy1rLX+zolhxrLKs1ludtXprbWOdZL3YusH6qY2+Dd+m0KbW5o4t3dbPdpptle1VO6Idxy7HbpPdJXvU3s0+y77S/qID6uDuIHHY5NA+ijDKc5R0VNWoG440R65jgWOt430nllOEU5FTg9Pz0ZajU0avGn129BdnN+dc5x3Ot8fojAkbUzSmacxLF3sXoUuly9Wx9LHBY+eNbRz7wtXBVey62fWmG9NtvNtitxa3z+4e7nL3OvcuD0uPNI+NHjc4upxozjLOOU+CZ4DnPM9mz/de7l75Xge9/vJ29M7x3u39dJzNOPG4HeMe+pj7CHy2+XT4sn3TfLf6dviZ+Qn8qvwe+Fv4i/x3+j/h2nGzuXu4zwOcA+QBhwPe8rx4c3gnArHAkMCSwLYgnaCEoIqge8HmwZnBtcE9IW4hs0JOhBJCw0NXhd7gG/OF/Bp+T5hH2Jyw0+G08LjwivAHEfYR8oim8ej4sPFrxt+JtIqURjZEgSh+1Jqou9E20dOif4ohxkTHVMY8jh0TOzv2bBwzbkrc7rg38QHxK+JvJ9gmKBNaEhmJqYk1iW+TApNWJ3VMGD1hzoQLyYbJkuTGFFJKYsrOlN6JQRPXTexMdUstTr0+yWbSjEnnJxtOzp18dApjimDKoTRCWlLa7rRPgihBlaA3nZ++Mb1HyBOuFz4T+YvWirrEPuLV4icZPhmrM55m+mSuyezK8ssqy+qW8CQVkhfZodlbst/mROXsyunLTcrdl0fOS8s7ItWR5khPTzWZOmNqu8xBVizrmOY1bd20Hnm4fKcCUUxSNObrwh/9VqWt8jvl/QLfgsqCd9MTpx+aoT1DOqN1pv3MpTOfFAYX/jALnyWc1TLbbPaC2ffncOdsm4vMTZ/bMs9i3qJ5nfND5lcvoC7IWfBrkXPR6qLXC5MWNi0yXjR/0cPvQr6rLdYslhffWOy9eMsSfIlkSdvSsUs3LP1SIir5pdS5tKz00zLhsl++H/N9+fd9yzOWt61wX7F5JXGldOX1VX6rqldrry5c/XDN+DX1a9lrS9a+Xjdl3fky17It66nrles7yiPKGzdYbli54VNFVsW1yoDKfRuNNi7d+HaTaNPlzf6b67YYbynd8mGrZOvNbSHb6qusq8q2E7cXbH+8I3HH2R84P9TsNNxZuvPzLumujurY6tM1HjU1u412r6hFa5W1XXtS91zaG7i3sc6xbts+1r7S/WC/cv8fB9IOXD8YfrDlEOdQ3Y9WP248zDxcUo/Uz6zvachq6GhMbmw/Enakpcm76fBPTj/tajZrrjyqd3TFMeqxRcf6jhce7z0hO9F9MvPkw5YpLbdPTTh19XTM6bYz4WfO/Rz886mz3LPHz/mcaz7vdf7IL5xfGi64X6hvdWs9/Kvbr4fb3NvqL3pcbLzkeampfVz7sct+l09eCbzy81X+1QvXIq+1X0+4fvNG6o2Om6KbT2/l3nrxW8FvH2/Pv0O4U3JX627ZPaN7Vb/b/b6vw73j6P3A+60P4h7cfih8+OyR4tGnzkWP6Y/Lnpg+qXnq8rS5K7jr0h8T/+h8Jnv2sbv4T+0/Nz63ff7jX/5/tfZM6Ol8IX/R93LZK4NXu167vm7pje699ybvzce3Je8M3lW/57w/+yHpw5OP0z+RPpV/tvvc9CX8y52+vL4+mUAu6P8VwIBqa5MBwMtdANCTAWDCfSN1onp/2G+Iek/bj8B/wuo9ZL+5A1AH/+ljuuHfzQ0A9u8AwBrqM1IBiKYDEO8J0LFjh9rgXq5/36kyItwbbI36nJ6XDv6Nqfek38Q9/AxUqq5g+PlfIJCDHIN7RU0AAACKZVhJZk1NACoAAAAIAAQBGgAFAAAAAQAAAD4BGwAFAAAAAQAAAEYBKAADAAAAAQACAACHaQAEAAAAAQAAAE4AAAAAAAAAkAAAAAEAAACQAAAAAQADkoYABwAAABIAAAB4oAIABAAAAAEAAAMwoAMABAAAAAEAAAD4AAAAAEFTQ0lJAAAAU2NyZWVuc2hvdGTwjTMAAAAJcEhZcwAAFiUAABYlAUlSJPAAAAHWaVRYdFhNTDpjb20uYWRvYmUueG1wAAAAAAA8eDp4bXBtZXRhIHhtbG5zOng9ImFkb2JlOm5zOm1ldGEvIiB4OnhtcHRrPSJYTVAgQ29yZSA2LjAuMCI+CiAgIDxyZGY6UkRGIHhtbG5zOnJkZj0iaHR0cDovL3d3dy53My5vcmcvMTk5OS8wMi8yMi1yZGYtc3ludGF4LW5zIyI+CiAgICAgIDxyZGY6RGVzY3JpcHRpb24gcmRmOmFib3V0PSIiCiAgICAgICAgICAgIHhtbG5zOmV4aWY9Imh0dHA6Ly9ucy5hZG9iZS5jb20vZXhpZi8xLjAvIj4KICAgICAgICAgPGV4aWY6UGl4ZWxZRGltZW5zaW9uPjI0ODwvZXhpZjpQaXhlbFlEaW1lbnNpb24+CiAgICAgICAgIDxleGlmOlBpeGVsWERpbWVuc2lvbj44MTY8L2V4aWY6UGl4ZWxYRGltZW5zaW9uPgogICAgICAgICA8ZXhpZjpVc2VyQ29tbWVudD5TY3JlZW5zaG90PC9leGlmOlVzZXJDb21tZW50PgogICAgICA8L3JkZjpEZXNjcmlwdGlvbj4KICAgPC9yZGY6UkRGPgo8L3g6eG1wbWV0YT4KArBAZwAAABxpRE9UAAAAAgAAAAAAAAB8AAAAKAAAAHwAAAB8AAB8Bor9v/cAAEAASURBVHgB7J0HfFRV9scPEFLpIQmd0HsTkCIgXYoFOxYUXXvvbcV1rWvdXXXXtq5digWVVVBQUASU3juEnlASQoCQQID//V7+L5kMM8nMZCbzZuaez2cykzfv3XffuXfOvb9TK5xUJB7Q0aNHZe/evR6caU5xx4ETJ07I7t2ZsmzFBtmzO1sqVhSpWTNeWrZIlfr160h8fKy7S306ztDm5ubLpi071X2z1P0qSN2URHWvZKlWLUEqeNFqUlKSREdHl3jF4dwjsnHjdlm/foekZ2RKXn6+1K2XLH37dJYGdRMlKqpSidebL8uXA1u27ZJvpv4mBw/ny/BBPaRrp5YB6QDz/sCBQ7Jte7rs358jTZs2kPpqXlSqFJz5YGdZlp9/VFav3izzF6yWqlXjpH2H5rJv3371u9omzZo2lPbtW0hS7Rrqt6yEhyGfOOCJLPOpYXNRmTmQlZUjq1ZvkXUbtkj+sQKpWSNBenRrJw3UmhUTU/L64+3NkUvcb/yE6VK5ciU5WeGEpKTUlPbtWkhqo7pqvavsbZO2Pt/a6Hmz7pfXAx07dkz27Nnj1e2OqfmxZcsutd/YJln7D8qJE8elRcuG0q5NU6lSJUGtL/6VkfAvLy9fFi9eJwcPHZYEtV9rrOZJckotiVFzpUIF/3L22LHjMn/hKslIz5QjeUfV852UunVqSe9eHSQhIc4rXtn55JSUFLU3jPKpixVKAjAHDx6UzMxM2bVrl5ooW9Qm5IBPNzEXneIAE/DQoVzZuy9LTp4QqRRVUU4cL5Dq1asqQFHV7wKTH1y+mvgZe7Ik+8BBqah+YDVrVJXEWtW9BkupqakSGxsrderUkQYNGqjNVdXThpXnWr0mTc2ZHD0hDx0+JFu3bZM+vbtIt64dJU5db8g+HNiydZd8/T0AJk+GD+kh3Tq1Ckjn2CgcPHhYNqftlB070xVgbyJNmzTQc8TPMt9t/0NFlhUUFChFUbbsVr/Z6krJkKwUDnlH8rRCoEqVOKldu6ZeOP29WLplXBh+0bhxY4mLi1Ob1RRp2LChS1kWho9t+0c6fvy4UnLsloWL1yrF2xGpVy9Jlq9cL317d5a2rdmUxvv1GVDw5an1ccHC1bJ9e4YUqLW4UeM60rplE0lKqilRQVKw+PUhbdpYTk6OUszsk507d0p6erow9tnZ2V71lmv2K+CSk3NY0MYWKEATExctyWrsYqJjtMLWqwY9OPno0QLZtGmHVs4CcLlXDbWnqlzZtw14Sbc8fvyE/j0wTwFjR44cVSBJJLVxXQXmwwdc16xZU2rVqiXsMevXr6/AWUJJbCn2nVsAc+jQIVm6dKnSBvLj3i7b1EbUUORygAlWuXJltajUk+7du0unTp3UglKlGEN27tqjAMxmyT96TOqk1FY/uMMyc+YM6dqlo/Tv319NTP8uQMVubv7xmgO7du2Vmb8tUeOUL2f17ChtWjX2ug1PL8CywPzYuGmL0lo1KFcAgyxbtmxZoSzbunWrp90254UhByxZVrduXS3LOnfufJosC8PHtv0jHVXrxua0HbJ46To1Hsr62LaZTPj8B+nds5N0VsqV6tWq+F3LzeaQTXB6xh6l4T6hNlLVlYJPbYDVBtEoCQIzZVAmLVy4UFlO1guyGBBjKLI5AIhp1qyZdOzYUdq2basUCEkeMcQlgMnNzdUL/owZM/QEi4+PVxr7Uy+PWjUnhSUH0JCgOUGDOWTIED3ZmBcWaQCzVgEYtVlNTkqU3MOHZc5vs6Wrsr7063eWnkPWueY9+BzAKrJ1W4YcKzguDRskS+3EGgHrFOb+Xel7ZMPGLdKoQT1pUk4WGGTZ8uXLBVmGFdmSY47zNmAPbRq2LQccZdngwYO1QsbMieAOF25EFoCJi42RNsrq8uU3M5RypbN07thSeyoEood4RnBvQdOt3JxxbTXgJRCcFjms9gSLFi2S6dOna6U4llA2r7wbilwOZGVlKS+Ng9oqftZZZ0mvXr20VaY0jrgEMCtWrJAvvvhCduzYoU06rVq10qZ2XIcMRS4HmBcIHzQmgJjLL79cmBsWZWZmyyplgclScQ4VK1aS/cq/ODNzn4qB6SodO7T0uw+zdV/z7hsH0DgeVcCChRsTeCBjUgAwGRn7ZFPaNuXPnqKsMPXLxYVs5cqVWpZhRcZ62Lp1ayPLfJsuYXUV8wItMLIMN7LRo0fruRFWDxliD4PLzI6de2SRciE7oFyek5JqSNrWHXJWr87SqmWqcp00m9wQG9Ji3cXatXHjRnn//ff17w5XoZYtW2orKNZQQ5HLgcWLF6vYosVqj5ChwxQGDRokvEojlwDm3Xff1e5jxDkMGzZMu/+U1pD5PjI48PPPP8u0adP0wzLBzjnnnMIHP5KXJ5s271BuQjvVRMySvNyj0rxZPenZs4PSslTze1Bd4Y3NB9tzgM3J/uwcydi9V2rXqqE2J7UCCpgshrz33ntaMOLuiCwbMGCA9ZV5j3AOzJo1S6ZOnapdh5BlzA9DweMAG9yDB3NlY9p2WbM2TQ4pC3FDFbzfSbmPYdEPRJxB8J428u7M+K5bt04+/PBDHfeCW/nw4cO11j3yuGGe2JkD33//vfz0009Ckp0ePXrI1Vdf7XzKaf+XCGDOPPNMGTp0qBh0fBrfIvYAsQQ//PCDrFmzRrkBNZEnnniikBeY4g/kHFKb1EzZpwL5K1WsKI0aJqt4mEQNXoxZvpBVEfeBxQsrTL4STgQ/Rqt4qvKYDxaAIW4LWYYVxpDhABzAtRBZRpwnFuUnn3zSMCbIHCAw+9ChI7Jnb5bkquQVybVrKeVXVW29Lw95EeTHD+vbY/F/5513dHgCyvHzzz9fevfubTIqhvWoe/5wCxYskB9//FE2bNig42AeeuihUi8uBmCYYLhaYIHBtI5vMLEOycnJpTZkTogMDjAvmGRoLxs1aiRPP/10sQcvUPEUxMAQyF+xQkUVcxCjNWdm8SnGpoj8BxADyCWdd6DngyXL/vOf/2hX2IEDB2oAQ+YpQ4YDcIDsmsiymTNn6syKzz77rGFMkDmgRISSEceVFvaYHFf7kZjoaG2pRWYYCm0OIJMfffRRnS4ZecyLrFOGDAfgAPGq3377rbaKoxz/05/+pN17S+JOMQCD9gMfRQAMNV8uu+wyDWJiYmJKasN8F0Ec2L17tw7AIwjPFYCBFWxS2ayS8o+NaqA3qxHEfvOoHnKAxdKSZdQXuOSSSzSAMbLMQwZGwGnMC+QYIIb4TgNg7DPorB+UAQC2mPXDPuNSlp6wv7z//vtV1rf92vqCC1liYmJZmjTXhhkHvv76a5k8ebK2iF977bU6M1lJj1gigLnmmms8CqQp6QZl+W7z5s06MwHIjFSohkT/4NFaUPgnGD9+TwCMGSfDgWBzwBnA4E+LNTlYlJaWpjP4GVlWNAKkMwY4kDyidu3aRV+U0ycDYMqJ0eY2hgOKAwbAmGlQGgdCHsCQzpA4C9Jc4gtHajUWfdLvGRKdWg4AE61M682bNxdqGPhaxdQXfhoA4wvXzDXlzQE7ABiKUiLL0DhiDSIFuZFlRTOB9KkAGEuWUVuKWlPlRQbAlBenzX0MBwyAMXOgdA6ENIDJU1msyFJBCmf8k9kA4PJRnota6SwO/hloMgB6AJmLL75YpzKOLacq9wbABH/8TQ9K50CwAQyyjEJtyDLixowscz1mliwjUcyll15arrLMABjXY2KOGg4EggPGAhMIroZXmyELYCzwMmnSJL3gk/a0evXqOie0c8X38Boy758GTS7WKdzq0GCOGTNGmjZtWi5AzwAY78fLXFH+HAgmgEGW8fucOHGiTiBgyTISCJB9x1ARB7CwA/SQZShkLFmGVSbQZABMoDls2jccKOKAATBFvDCfXHMgZAHM2rVr5bPPPtPVWbG4kKGCLGhJSUmunzSCj7Lwki+bmizkzCYV4ciRIzWYCTRbDIAJNIdN+/7gQDABDFbkTz/9VLZu3ardo6g9gywz2RxPH1mSxSDLeGFV7tmzp5ZlFJcMNBkAE2gOm/YNB4o4YBcAw56JJBFYxVknDJ3iAMkyCEewPJ4CWdjaHc9DHsCkp6dr8EKBIywwJgPJ6UPNj48YIQpKAmL4Id55551yxhlnnH6yn48YAONnhprmAsIBOwAY3GBRxCDLatSoYWSZi5FGlh04cECnzrRk2e233y7dunVzcbZ/DxkA419+mtYMB0rigB0ADH0g62B+fr4ucMx+09ApDpBUhThE9pGAmGbNmpU7a0ISwLAZnzt3rnz11VeaceR/bt++vbiK60BLt37DeomNiZWY2BiVJ169VJwML9wOIgXw4KayYsUKoVDfkSNH5K677pKuXbsGfMIZABNwFpsb+IEDwQIwbMaRZV9++aXOrnXDDTdIhw4dXMoyXx8Td6usrCx9OS5p1apV08XgHGXfqlWr5PPPP9cua/fcc4/uy0cffaSTgFCg2E7WIDYTK1euFGr2kOTgjjvuEAqPBpoMgAk0h037hgNFHAg2gGGfOWHCBF2EG6UveyjeDZ3iABYX9tzWizTXffv2lbi4uHJjUUgCmMzMTPl19mz5WuV/ZkGmOCLWl4qqkrszkY2MYjdz5szR7lMVK1VUFd8r6XPJagPwadK0iXTu1LnQFObcRjj8zwaNH+S4ceO0//iVV16pXckC7WNvAEw4zJ7wf4ZgARiAxWwly1DGJCQkaFmGXHIly7wdhT/++EOWLFmiXdMAMVh1Dil5WEXdp0+fPmrTf6YCKDV1s4sWLdJVr5Gjzz33nHYNoLIxsXLnnXeerQrIMVbE9T3++OM66+To0aP18wRalhkA4+0MNOcbDvjOgWACmIyMDPn+++9l4cKFWknSrl07ITYR2RxoOeM7x8r3yh07dugQDhRK7MlJbU/pgR49euj9eHn0JuQBDNrEV155RVtTXDGMoE/8y9EuXnDBBVqTiNYOzSebB1A1mwUsEnXq1NGaR1fthMMxJhqFoeDJRRddpNEyZsBAkgEwgeSuadtfHLADgGGBRJa5siR7+5zINiwUJAdo3LixtGzZUltTUOhQL4s6MyzKLDiAFGJL1qxZo+UoFhdkIpYNriNzIQHzdiIs6/fdd58GMqMuvFD6Kc1foOtcGQBjpxlg+hLuHAgWgNm3b5/8/vvv2uUeeXn22WdrbxXkM9YFU9z41MxjD03Kf9YO3Ox4p0zH5ZdfLvXq1SuX6RlRAObll1+Wtm3batDCJh6fcxA22s9HHnlEevXqpbWgIEsWKyYqWlHL/YJr2Vxk78+WPXv36MHDpAjwseoTWG4Z+Erywk0NxA5C5cfQJLWJJCUnFf4ImASbNm1yO9gg/iZNmhR+v2P7Dtm9Z7d+hvj4eElJqaPun+KRxtYAmEI2mg+GA8U4EG4AZuasmfLF519ohc25556rwQqyi+cEwPz3v//VWjKSBWCFRqkDqMGXmf+RYxaAOeuss/T/yLEWLVoU4xv/IEfRWGK9wQ+aOBVkJhsBSwYiI3FDYxNgEYAJd9aqVavJSdWv4yeO63M8ASIGwFhcNO+GA+HJgWABGOTSlClThERRWBVuu+02rcCxgtXDk9u+PxVynvjq6dOnayUZ60Z5xcNEHIDp0qVL4UgBKObPn69dEQgEHTFihHazIMMNLhWgbfz8WISpO4CrAoBj0aLFKt3pdg0i+JElJyVL/Qb1te86qU+Z6AwmLhz8ANg0sODuy9wn9eudOq9NmzZ6sClYh3XIFbHhwB8eLSnX88P67bffNBhig0HfuB9BVGhKATQlkQEwJXHHfBfJHAg3AIPvNkHugJHzzz9fUlNTiw0vsokMMoAKAAMZ0CYrl1wABrIQ2WIBGGQQcgr5cdVVV2k3Cqsx5B+L1/Lly3UcSr9+/TRAQq4iK5Gd3KeOUrS0bNVSyyrL6vvOO+/oNpGXuLgBgPChbt26tdW823cDYNyyxnxhOBAWHAgWgEF2jR8/XssmXG3xVvGHVdx5UFhzyHCG8ghPImSupQB3PtfT/8loidzFAoJS3R0BOlA6oWBn71gW4hlYH1544QXdDDHpxFej/A80RRSAIVamY8eOmqf8OFhcZ/w0Q7795lt59NFHBdcJmA6gwC+dhRcXM4AB1hleX3z5hSxauEgv/IAQzqHw3IIFC2TUhaNk+LDhGrS8++67OtUnGwgmFO4aaBt//fVXDToAQ7THwLNxcCQmFz7epAYdNGiQzrBDX1988UXBJQtLUKNGjfQExEWETcjVV1+tNyuO7Th/NgDGmSPmf8OBUxwINwCzbNkyefvtt7XMGTZsmGBFQbbxclUzBUs0MssxBsYCMOecc47Q3tSpU+Waa64R0jxbhGX5P+q6DCWXrrvuOp3GHte1xYsX6ww1KH5YoLH6sDgDprD6QH/5y190XyxXXtwPuBeyrTQyAKY0DpnvDQdCmwPBAjCzZs2S999/Xyt2brrpJmnevLne5/mLm8QiIzet5Cp79+3Vbr41qtfQSnNiFVEk+RIH+c9//lMrulHGI2vdEQos5Dn3eeCBB9yd5vFxXMkee+wxvd5QpgM5jutyoCmiAAygwdJEYn3BojFv3jxt7iJgFSAACgbAoFXEukG9FFLFsfDjF/nvf/9bg5HLLrtM+44zQAzeU089pa0kpCfGzYJFnMxCgwYNloceerBwHNlUEFhLYCxtOxMgh+KcZAXq0bOHPic/L19++vkn+ec//iG33nqbtsigNd2ftV/383/f/U/6qwwQN954o3Nzxf43AKYYO8w/hgOFHAg3AMODvfHGG9o3GdnVrl17aankUpu2bbR2DvdYXihgABYlARhiYFCgIJcAOH/+858L+fbLL79oBQxylQxqyNS//vWvgtvapZdeqjcBx5SGDsXNNyqZCnLriSee0PcEwLCIo9zp2aOnNG/R3CW4KryZwwcDYByYYT4aDoQhB8IRwKDMwTsH8ACI4X/2nDwrcYbsOVFsEwiPpdpbi8zf//53LYORv6UBGKz0uPv+Q+0ry0oo3FlvUFRhCDAApgSOMvBWFjJvgvgBLY6ETzcWmaFDh2qmW2Y8AAxxMa1atdJaQmsSffDBBwLiu+SSS/TLMiuyCH/44Yd6IR/3+Djp2aun/v+7777TAAQUbxGbAIANAAariTPhe4lFhgJtF6rgVApzsnlAI4BW87XXXisWILV4yWL57NPPdDPE+JREBsCUxB3zXSRzIBwBzLq162TFyhVaGULa4e3bt2vAglWYF8GpaBdxlS0NwJw4eUK++eYb+fmnn7VstObK66+/rmP4sPJQi+WHaT/Iu/95V8tJNIkW4U+O7CPeD0sPViAADO4at956a4mLrdWG47sBMI7cMJ8NB8KPA+EIYNj7ffHFF1p5NGrUKK0cx9WLEhd445AxFwsNSqMxY8Z4bfkxAKbkWjQVFGI7af1UmGAwnQWJDAS4F+DyFGjyFcDgJoa2zyImChYYAAuLLwspvoP8T1YFLC+4UVgEQFi6dKn2A2fBtoANbmYzZswQFnMCvrCGTJw4UTBFYqlholoEMGIhByE7Ahh4SdwNAIW+jDx3pDRt0lSj823btsmrr76qNxkE9YPYLcL/EKsN6P2TTz6xDrt8NwDGJVvMQcMBHadmyTISePDbJPYs0IT7lJVGGXO+v7KQ0W82+cgH3pER3AsAwfOhAUS+oYzBJbU0AIN1Ggs0fs7PP/+8jlPJUpbnV5RMRPFzxRVXaCCE8uXjjz/W1mxHFwj6gAIJ+YosQ9P45JNPqljCHXrdAEx5QwbAeMMtc67hQOhxINwADOAE+Yi8JCMuSmoUOVjBLTnNHpD1gP/ZRzq665LAiZqGKKNQuLVs0VKaqqQprVu3KhxcVwCGfd8KFaO4QLkJY3XHteuQSmI1S1nPjQUmhAAMAMQxiJ9FEHCA9YSJ8/i4x/X3U76dogEJPtmAGoteeukljZTZ3GC1sQgAgysFk+fmm2/Wkw6QgtsEKeWwtljEBOY73McsAMMEY/NE+2QcA/AQyMpkgwiwZdEnSxDAxzkPOUCKY65c0qz78m4AjCM3zGfDgSIOhKMFpujpRC9UZEzEZQF5hSvs+vXrNXgYPnx4qQAGBQnxdrjGIqOQXfhRo1HE4nz5ZZdrlwj+R3lDIKdloXbsB9aeFi2VK1vrNtrVjEBS2iJ43xsyAMYbbplzDQdCjwPhBmAIM8DSwj4NC4vzPo4RwpuHkARkNe66uJHBh9WrV8vECRMlLz9PhzOgHMJtC3net19fLX9RbDsDGOKpUcbjDURMNUmlDqrrYpUcRpFlAEwIAxgmDFYYLBdYXZ559hnp3q27TqGHRcUZwGBpwn8RUIJ/oZVWD80iCzeaxwcffFAXVaNNTwAMSHvLli26D0yosWPHarc2x4xipCkldoYMZPgrusqxzYTGOlMSGQBTEnfMd5HMgXABMCxIW9K2yJatW/RwEo/nKhsN8o4X4IVYFVy83AXxW3VgsHxPV3LxW+VKhrUZl1oWSBZksvVYlp333ntPW2moL+MqYUCFihWkZo2a2gJjAEwk/+rMsxsOuOdAOAEYgMnDDz+sAQqZHB0V4O45cOob9m3IVBKpYJFBuY3SmngTMk1SEgQFNy67VhA/im5kO9aat956S1t9UIxzDiEJACmU9gAaEwMTIi5kzhYYgAfpP6mJgHsFwadkFsPNyxWAwcpC6k+CrFj0cYOAyDIG8sVCcu8990r7Du11m6UBmCuvvFJbgKj4ijYTn0faJujWkQBZJBXAvezFF1+Sriptclx8nD5li7LOLFNubbh4cG1JZABMSdwx30UyB8IJwLBAffbZZ1q2IBMGDhyoFyo0dDwn7r4siMg+wAmLHUlDSgMwKFtI03n33XfrRe/NN9/UbmhcD0jCTQ0X27/97QVl2Rmjs42hRYRwFQMk4S5BRjSUP8TAGAATyb868+yGA+45EE4ABiU1+0v2duz7yNQFYWkhg+Me9eJ5HQnZSYwiFpl7771Xhwmg4CY2G9q+Y7uONcRjiAy17F2xrJNIBZmMVRuAg4fR2LHXKkAzQrv5su8llptYHNzJDIAJEQBDUDxmNItAxZjmQKloEInhAZSgmXQFYFj4WeQPZB+Qzl0664mE5YPjgB7qseAuRhucVxqAIY7mFxUn86W6lskKKHLWWIKQ0WQCjpikTDh8JznOhoFNCJsKtKCl+ewbAGONvHk3HCjOgXABMNZTjR8/QSk9puoU8CQqQW6weOJ2AJhAGYMrGDF6uNWWFgODCxmErCOWkFhHFC/EvpAW2ZJbfI/GD9eG/sqHmzTKuKyRgAQXNO7FPTnfABhrtMy74YDhgDMHwhHA4DYGgGEPB+Up68pyZVkhQQpyEsKKjvstMYrUoGHvd8stt+i9JTGL1h4WxTYFi994/Q2tVEImo2C3AAyyFqCC8pu4RQCO5TVEDOSnn35qLDBW4CsLlx2D+EGbTA7ABBt+RwJ8EDhLYD9oleqhTBx8BglYBeniLuZImN1YuEHFuHLRBkAI324AEjUMmCTEurApYFI5JjagbVAxBd9A1z/88IPWTFrWHMd78Zm+oSUFfPz6C6lIv9F+kQSC8Ww8ExMTP3LH4H7ndvjfABhXXDHHDAck7IL4ce1CziCDsHIgp8hoiBsYCyRuCFhCyEaGWwGKHDRyyEMsLMgSFCZ16tTR8ssCMMgcFj8s1ri2IvNYaC1iEUYhNGniJEmokqDbRj7SH6w0KGmsOi9oCzmOthDljzdkYmC84ZY513Ag9DgQTgCGfRouZLyj9MEqDiHH2ENjJUG2QrjicpxzKI2Bdfz++++Xa6+9Vhdbx9sGAvwsWDBfnhj3hFx//fU6MQCWdQvAINtRxs+ZM0db3ImnsfaIKLAo1sl+11hgbGyBYSJgoXBFAA3iRqwJYZ2DCwYLPWgZzaUzocHkBQLGBMgij5aT9vBNZIPAJATUofVE02kRWYCYxAAWNhXcqyQCqFgLPufhhkHbTHa+o3/JSckSHRNdUjP6OwNgSmWROSFCORBuFhhrGFG0EKyPvEJeINOQeamqbouVJIRzcYO10iyjuEGOoflDzgB8LAULmwrkHgV14RmgxDFdMm1xfPu27RrgZOzOkOrVquv7pdRJKeYei0UGmYQiiMXVGzIAxhtumXMNB0KPA+EEYOA+IQyAC4pM4qljWa2dR4Z4ahTdHTp0EEpwICfJhkvsDMoe9psQ+0gU7RRoJ2kKcdkkWbEADHtSPINmzpypXcuQsxaAwSrz6WefSmKtRANgcJeyqwXGeXJE8v8GwETy6JtnL4kD4QpgSnrmUP7OAJhQHj3Td8OB0jkQbgCGsASSO2HNvurqq6R1q1PB+CiLLGIdAsCQLArLNllwUULhCUSqeTxtLIU4imyAyEcffSQPPvCgzkZGsicLwOCmxvfEQ95/3/36eywuKNgpYklfSPJiLDAGwFjzz9bvBsDYenhM54LIAQNggsh8H25tAIwPTDOXGA6EEAfCDcCw/3ruuee0S1fXrl21FQYrCZZxi+bOmSvjJ4xXgf0Z2tpy7TXX6njChx56SHvsYJHBNQwiCxkWFlx2n3/ueUlOSdaJniwAo9PjL1ggT6rkAYRI3HXXXfpea9asVQUzv9FxkC1btjQAxlhgrOln73cDYOw9PqZ3weOAATDB470vdzYAxheumWsMB0KHA+EGYOA8IQRYYnD9Iv0x7rfEXpNchf9JfkLiE7KU9ejRQwfZI+uIu/5axVXXUd8BOrDaAGCIITznnHN0ymRCGLCmWAAGNzVqCBIX88f8P7TFp3r1Gsq1d6dKGlVDue/m6bAHY4ExFpiQkAoGwITEMJlOBoEDBsAEgelluKUBMGVgnrnUcCAEOBCOAKag4LhOmbw5bbPs3LlTh16Q5IQstCRQIbsscYVkGrNiC3H5AqjMnz9f9qm46nyVzh4AQwwj8Yndu3eXxMREfYzgfOIT27Ztqy01xMmQJIBsZYcPqXjG2klSK7GWJMQnyOHcwzr5FJaashIA7I033tCg6swzz9SgylX8eFnv43w9WdZImMW9SHIAGCyJKihmnrROYILZPQuZ1VfzbrKQmTlgOOCOAwbAuOOMPY8bAGPPcTG9MhzwFwfCEcBYvOHZcg/n6oQoWfuzCgEMIIbgfhI8ORMggWQrWGoAMCRkwf3M0QWN7JDU66IdXhCJpnal79IAJl4Bl1q1aupEK4AbQFBpBdCd++HqfwNgXHHFzTEyhP06e7Y2qTF4r7zyituMDm6aiLjD/GBItPDUU0/pzELkF8cv0tvsP94yDm0AAWm8yKZGxgxDhgN244ABMHYbEff9QZaxBlAYDu3lKJXKuZ+SZWghA0kEzSLHyBCElvTZZ58N5O1M24YDEc2BcAYw4TawBsB4MaIgUHJbk8calEl+bVLEUeXZkGsO4D5GOmlqL4C8rWqwoPhAkgEwgeSuadtfHAgWgEGWzZ07V2eKiY+P17KMzbGRZe5HFg2jJcvwGaeuAjVtAi3LDIBxPybmG8MBf3PAABh/czRw7RkA4yVvly5dqquOspiRLo4c2PgPujK9edl02J3O5gzTI9WwJ06cqNPo3XbbbboqdqAf1gCYQHPYtO8PDgQLwND3ZaoSM+kvLVlG8CW+zUaWnT6yjBOLpSXL+J8q1WT1CTQZABNoDpv2DQeKOGAATBEv7P7JABgvR4gAKEz5s2bN0lcSwEPebLRwjnm1vWw2LE9Hy7tkyRKdL5wHJNAJrSU5wANNBsAEmsOmfX9wIJgAhor2yDIKjkHXXHONdO7c2cgyFwOLyxiyjMrVELJs9OjROjOPi9P9esgAGL+y0zRmOFAiBwyAKZE9tvrSABgvhwOGkZXh448/1lcS+ETmBor8kNHBUBEHWHj/+OMPreHl6JgxY3TmivLgkwEwReNgPtmXA8EEMMiyBSpfPwXJICPL3M8T4vhIQYq1CqI6NelGy0OWGQDjflzMN4YD/uaAATD+5mjg2jMAxkveMrmzs7Nl4cKF2i2K/8mDzeJfqVIlL1sL79PJQoGvOH71VHTt1q2bTtFXHi4qBsCE99wKl6cLJoDh3pYsmzRpkpBhy8gy1zPLkmXIeEdZVh4y3wAY12NijhoOBIIDwQYwePOMHDlSBg4cqLN1BeIZw6VNsp898sgjWrF0ySWX6Do2gU4QBe9CMo2yNehMcGI75s2bp9PCUcCHjYChIg4kJCRosEKA8BlnnCGpqak68UF5LPj0wgCYorEwn+zLgWACGLiCLEOLhSzjs5Flp88VS5bFxcXpmBdy/7PJKC9ZZgDM6WNijhgOBIoDwQIwq1atkm+++UbXaRkyZIguEkm6YUOuOUCCqA0bNshLL72kT7jnnnt0DRqUcIGmkAYwMIeNByAGSk9P15YG/Y/5oznADw/wYrmllDdbDIApb46b+/nCgWADGPpsZFnJI2fJMhZGUrKXNxkAU94cN/eLZA4EC8CkpaXJtGnTZNGiRbpA4tChQ6VDhw56HxXJ4+Hq2clou2nTJs2vFStW6ERat99+uzRt2tTV6X4/FvIAxu8cMQ36lQMGwPiVnaaxAHHADgAmQI9mmvUTBwyA8RMjTTOGAx5wIFgABncoEoWQIGr79u06QUirVq10ZkgUwYZOcSAvL0/gFTwiKySEu92IESM0r06dFdi/BsAElr8R37oBMBE/BUKCAQbAhMQwBbWTBsAElf3m5hHGgWABGNiMVw+JVWbMmKHd4FkfqFiP+6qhUxwgIyRuzxDx1c2bNxcKpBOmUF4udwbAnBoL8zdAHDAAJkCMNc36lQMGwPiVnWHZmAEwYTms5qFsyoFgAhhYQuIjigzPnj1bB6eT+ZA+GSriAPGHsbGxGtxdfPHFOhNweRZhNgCmaCzMpwBwwACYADDVNOl3DhgA43eWhl2DBsCE3ZCaB7IxB4INYGAN68KWLVs0cKFeF1YHQ0UcIIkKpUsoYRIMMgAmGFyPoHsaABNBgx3Cj2oATAgPXjl13QCYcmK0uY3hgOKAHQAMA3Hy5Ek9Hta7/sf8KeQAheODVTzeAJjCYTAfAsEBA2ACwVXTpr85YACMvzkafu0ZABN+Y2qeyL4csAuAsS+HTM8MgDFzIKAcMAAmoOw1jfuJAwbA+ImRYdyMATBhPLjm0WzHAQNgbDcktuuQATC2G5Lw6pABMOE1nuH6NAbAhOvI+u+5DIDxHy9NS4YDpXHAAJjSOGS+NwDGzIGAcsAAmICy1zTuJw4YAOMnRoZxMwbAhPHgmkezHQcMgLHdkNiuQwbA2G5IwqtDBsCE13iG69MYABOuI+u/5zIAxn+8NC0ZDpTGAQNgSuOQ+d4AGDMHAsoBA2ACyl7TuJ84YACMnxgZxs0YABPGg2sezXYcMADGdkNiuw4ZAGO7IQmvDhkAE17jGa5PYwBMuI6s/57LABj/8dK0ZDhQGgcMgCmNQ+Z7A2DMHAgoBwyACSh7TeN+4oABMH5iZBg3YwBMGA+ueTTbccAAGNsNie06ZACM7YYkvDpkAEx4jWe4Po0BMOE6sv57LgNg/MdL05LhQGkcMACmNA6Z7w2AMXMgoBwwACag7DWN+4kDBsD4iZFh3IwBMGE8uObRbMcBA2BsNyS265ABMLYbkvDqkAEw4TWe4fo0dgIwbJQzMjKE305ubm64srzYc9WtW1fq168vMTExUrt27WLf2eUfA2DsMhKmH5HAAQNgImGUy/aMBsCUjX/m6lI4YABMKQwyX9uCA3YAMMeOHZN58+bJxo0bZe/evZKdnS15eXm24E+gO5GYmKiBS7Vq1aRr167SqlWrQN/S6/YNgPGaZeYCwwGfOWAAjM+si5gLDYCJmKEOzoMaABMcvpu7eseBYAMYLC3Lly+Xb7/9VlteoipXlPgqMVI5Osq7BwnBs/PzjsmxowVScOy4RFWKlg4dOsg555wjjRo1kqgo+zy/ATAhOLlMl0OWAwbAhOzQlVvHDYApN1ZH5o0MgInMcQ+1pw4mgDl8+LCsWrVKJk+eLOnp6VI7pZrUaVhLkupUl7i46FBjpdf9PZhzRPJyj0rOgVzZkbZPjuYdly5dusiwYcOkQYMGEh1tDx4YAOP10JoLDAd85oABMD6zLmIuNAAmYoY6OA9qAExw+G7u6h0Hgglg1q1bJ59++qls27ZNqlaPkwEjO0lqixSJia3s3UOE+NlZew/KsgVpsmJhmgY0Q4YM0SDGLjExBsCE+AQz3Q8pDhgAE1LDFZTOGgATFLZHzk0NgImcsQ7lJw0WgDl58qRYACZjd7qcd0UPadQ0WbmOVQpldvrc95zsXJk/e70snrNBBgwYICNHjpSkpCSf2/PnhQbA+JObpi3DgZI5YABMyfwx34oYAGNmQUA5YABMQNlrGvcTB4IFYPbv3y9z5syRL7/8UqIqVzIAxgHAVK5cWR566CFp2bKln0a5bM0YAFM2/pmrDQe84YABMN5wKzLPNQAmMse93J7aAJhyY7W5URk4ECwAk5WVJbNnz5avvvpKYuOj5U/3nqOC92OlQoUyPIy69Odpf0hcfIy0aJMqtZNqFDZGsPz3X/+qguaPyVkDzhA5KbJh7VaJjqksPft2KjzP+rDw91WyZeMOadysvqQ2rSe/TF9gfVX4Xju5prRo3VjqN0opPObrhyMqFmb9qp3yw5cLdROPPfaYbTKSGQDj66iG13Xjx48XXrt27fLowS699FJ5+OGHPTrXnFTEAQNginhhPrnmgAEwrvlijvqJAwbA+ImRPjRTUFCg3ZOmTp0qK1askEOHDpXaylVXXSUXXXRRqeeF2wl2ADBxCsDc8shIv2Qee+DWF6V9p5Yy7Lw+Uqd+UV2Vo/nH5KN3v5W0DdvlqhvOk/iEOJny+c9yVAGa+8ddd9qwTvpomgY4vc7uLK3aNpEvP/1Rtm9Jl0ZN6kolMoQpF7htW3ZJpUqVZMjI3tJ/6JmnteHNATKSbV6XLlPG/6EvMwDGG+6Zc8uDA//85z+FV1pamke3u/322+WNN97w6FxzUhEH7AhgfvjhB5k7d660adNGRo8eXdRZ8ykoHDAAJihsj5ybGgATvLE+cuSI1hS+9tprGsh4UlPkueeek0cffTR4nQ7SncMNwFw58n5lYekqF18x9HQA8863snzROrnhzoulWs2q8okCNAdzDssL/7r/NO5/8OZk2bR+uwwY1kMDGADNmuUbZeytF0pC1Xh9/poVm2TuL0ukZq1q8vBTNypQFHtaO54eMADGU06Z84LFgQceeEAn3SB+rXHjxlKzZk3dFVweSf1t0Y8//qhrOqEUevHFF6VevXrWV+bdAw7YDcAsXbpUXn/9dZk+fbqcddZZ8sILLxQbbw8eyZziZw4YAONnhprminPAAJji/CjP/w4cOKDBCBmuqHBep04diY8/tel07sfq1avl4MGD2tUBdwdrUXY+L1z/jyQA87ECLMsAMHf4BmDWKsDyt3/frwEL8wGLzIQPp0qacjV7QR2vWjXB52liAIzPrDMXlhMHxowZI999953Wwo8aNUrXLeLWzgDmnnvuke+//14uuOACeeqpp6Rjx44l9vDo0aOyb98+qVu3rnIhLaMPaYl3Co0v7QRg2MegCGQ8UQSmpqZK79695frrr9fjVbFixdBgapj10gCYMBtQuz2OATDBGxHiK6688kodY9G9e3cZPny41hi66tGTTz6prTQ33HCDoGEsrRJ6fn6+YOGpUaMovsJVu6FyLBwBTOfubWXwiF6FQIOxOKaKRf4yfb6sXLJB/uQjgMECc8dDV6mUz6eAysZ12+SP35Zry8tdj4xRxSd9z6BmAEyo/GLCq59sSklj3rx5cyltM2oBmH79+gkgpX///i6ZgYvRxIkTdVHWxx9/XPr06ePyPA7m5ORoN18SepB5r0WLFrapf+S20wH+wk4AZtOmTTqhCFaYhg0bqvpccUL/xo0bp4EMLrSGyp8DBsCUP88j6o4GwPh/uFlssZaUll7WEcBcfPHFerE94wwVuO2CWFxZPK+55hq5//77S9QWUnhx7dq1snnzZg2KEhISQl5jGI4Apm6DZGnesrGL0RZZs3KzzxaY1QrAtO/cQmmco1QIzElZuXSDVKhYQS6+cqiOgalUyXdtpAEwLofLHAwgB4gNZGP6+eefy4033ij169dXVsSqCoirGC8XdOGFF8rPP/+sZd/dd98tvXr1cnGWyNixY7ULb6dOnbTsRZnkiqxMhO+9954QY8F5tEv2PSznkUp2AjCMwTvvvCP/+te/9NrXtWtXufXWW6V9+/Z6rTQAJjiz1ACY4PA9Yu5qAIx/hxo3g+XLl8usWbPkpptu0gutO3cDAAwZcObNm6cDDu+66y7p3Lmzyw6hRSQbFrU30Cqee+65Ls/j/pyHL/DKlSu1Wb1v374CiClNc+myQZscDEcAU79RHWnVrqkaFwd3FJV1LD/vqKxZoQCMQwxMzoFD8sIb92sg4jgk7//7Kx0DM2h4L2nZNlWIgQHAdO3ZTipVrCT5+Udld/o+HUPTUmU8u+TqoZJcJ9GxCa8+GwDjFbvMyWXkAJZkZClxfyQ6OfPMM+W6667T4ARXLkumIR+wOJMYpUuXLjqAH1fbW265RbsTuerG008/Lf/5z38kMTFRbr75Zrnkkku0m1lsbKx+Z4PO/QFOxMisWbOmsBks4chrgsXdAanCk8P0g90ADGz+85//LJMnTxbimvhsKLgcMAAmuPwP+7sbAOPfIf7f//6n/akxaQ8aNEjef/99DR5c3SUjI0OaNWsmubm5OuDw6quvdhtIescdd+iFtEOHDiUCGAIY8QWeNm2asKjjQsZCS6Ydu1RMd8WL0o6FI4DpffYZMmr0YKlTtygLGYBjwgff6yB+y4Xsw7cny570TPnrK3cVS7kMz1595kPZtX2PXHTlEGms0igDYIiBeeaf90gNFbRPHmasML/OWCj/+3KWdO7eRsbeMqo0drv93gAYt6wxXwSAA998840888wzsnjxYi3P0KQDGDiGJcQKvN+xY4e8++67smjRIpk5c6aWqZ4CGK4lPqZ69eo6+BvQQ/zE1q1btYsZNaCwaCODLOJ8XNXuvPNOt0on69xwfbcjgAFkMm4pKSkayIYr70PluQyACZWRCtF+GgDjv4GbNGmSTse5YMEClfb2qAYuuDuw2AJmrHiUjRs36roiS5Ys0aCEheCll17SWiO0iq4IlwX8tXGnQOsHkCGQ/4orrtALKIs6qUA//vhjIeDfSsmMhrJWrVoCAEJz6ZiFx9V97HosHAGMuyxkBPGThQwA06hJPfngra9k4e8r5c6HxkiPPkWBxquUpeVfL30mSSk11bmX6FTJFoBxDOJnTOfOWiJfjZ+ha8Hc++drfB5mA2B8Zp250EsOIO+QachTXMYItv/oo49UnNgxSU5O1jKNwHsAC8HbuHphhUEhBGgvDcCQPAVlz/z583XPkJUkUUFe9ujRQ7vgbtmyRbsDE1dB+nrkOTGIWHoAPLj+Ymnn/EgjOwIY1l3mBynkY9249wGG8XogaQ7jZyhwHDAAJnC8NS0rDhgA459p8Nlnn2l3BBZDgAp+1SyqEH64VCzHAvLbb7/Jr7/+Kmj9yELGoguVBmD+8Y9/yFtvvaUD+XFxwCUsOjq6MNsKNQ9wXaPdVJWBBVcztJVWfQOACxlZ0FoSgBpqFKkApm2n5vLT1N9l0sdTlZa4klxy1TAZOKynsqgskK8mTJfjBcdl5IVnyyCVDGDfnmxtgSGI/+Z7L5cq1U4F8Wfu3S8zf5gv61anyeXXDtfn+zr+BsD4yjlznTccAFzg3gV4IRUyVmRcYamZ9e233+qYGIBGtWrVhAKmWLMBH4AcgMjgwYN17Atyj4BuV8Q1ABQUSmju161bJ+vXr9cKoCpVqmgwxIaYZADE3pCaF8vLhAkTtMWcjGQAKdx5//SnP2mrjav7hOsxOwIYLHCMJYDz7LPPPo31rI9TpkwRrGq4DgKSDQWOAwbABI63pmXFAQNgyj4NWNBwXwC8AFLQ1JFRDPcH/Lc3bNigAQ3Ag8B6hCgghwURAmyw4AIs3KVRxoUBgMICS0DrH3/8odshvgZNEospmieENiAFFwgWX/rFRgCNIe3jG3z55ZdL69aty/7g5dhCuAGYB25WhSy7tFCFLPueVgfG0QLTsWsr2ZORKb8pCwqgBUtbNZVdLDvroBzIPqiLUw4a3lNZYWrJTuVKpmNglm2Q5q0bS5QCPNBJ5flyQv2p1yBJZT3rLXXqFbmseTuEBsB4yzFzvrccGD9+vJZbgBcSoSDPADDIVtarVatW6WBtZGt2drZ2I8PC3V/FCWKZRiYSYA+48YRIekK7vDLUa54qhEjbZB5DNiPPCQoHMCGHAD4E9CNXyYyG1Rx5T1yMu4QBnvQj1M4JJoDZu3evjvVkLWWMWNtYX0mygHWlQYMGGvCixGvalDjDU4lLiA/96quv9PoJMGauGQocBwyACRxvTcuKAwbA+D4NWMwAKVR9RvNjgRcyheHmhXaPqsD//ve/dUA97g24IJAyGZeDbt266ZsDNtwBF+feEfjPAo77GYvn9u3bdR9YXFnESQoAMEK7RAAqgOeVV17RgY0syAAX0ofyKi0Vs/O9g/l/uAEYLCKJtatLkxYNpOr/W0rg7/GCE7JkwWpJ37lPuvdqXwhu9mfmCC5j29LSZc/uTKmVWF2SkmtJ526tpa4CJlDOgcOyYvE6FbSfqf+3/sTGxUiKAi2Nm9SV2smnivpZ33n7bgCMtxwz53vKATbEjvIU6wbgAXnqXKOFjepPP/2k3buQacg8S556ej9X5yFnkKu///67dsMFkLRr1+60U5G7WILYDOOShJUHEEP8DPI9EiiYAGbhwoXyyCOPaDZjZXviiSe054EFYFhPscIAZFhfrSxkKAIBOOx7GNfzzjsvEoYqaM9oAEzQWB8ZNzYAxrdxxs8ad7AnVX0WLCJoCsliQ2CncyYxrCAstgAKXMtY6PzhM017mMtxE0MLSBIAZ1CC5QULEHE4CPfMzEx9DrEz9BXtVChQuAGYMvFcZSoTh8RlZWrLy4sNgPGSYeZ0jziAFQTtOPIUSzPyFGUMMgqZ6YrS09O1Zp2A7WARqXuRv2RIQ6NPhkhekUDBBDBYyK699lq9frG+kTyHddcCMFjfWNtQ5DkCGMYFbwVKHQBuDAWWAwbABJa/Ed+6ATDeTwEC5HHhIq6FhQvrB65ZY1VdAVwYXBFZyRCqpdWGcXWtP44R2E8iAOJvcC1Do8n/xMWEAhkAY49RMgDGHuMQbr0AjDz44IM6NoHNJeAFIMDm065E7A0plv/73//q+BlqeJEs5bLLLrNrl/3ar2ACGNZdUlsDfMlEx1qMJcYCMIBJ5g7r7tChQyM21bVfB9yHxgyA8YFp5hLPOWAAjOe8ss7EfYvFFTAAEcB57733unQ1sK4J9jugi7z4ZEojcQBuDiy2xMOEAhkAY49RMgDGHuMQbr3AvRalEFr1nTt3ais1qd+JayG2wW6EEogYmDfffFNbuKlPE0nghfEIJoAh9gm3bdypiT2yXLAtAGPNF1z7WKsjueCoxYtgvBsAEwyuR9A9DYDxfrAJxP/73/9emOErFAAMcThkMsPc3qdPH219IYWkuyKb3nMlsFcYABNY/nraugEwnnLKnOctB0hC8uqrr+rUxlhk0Jyz+Rw2bJi3TQX8fMAWgIVNtCVPidcJFXnqDwYFE8DQf1Jl87IC9DlmAAxcsA8ZAGOfsQjLnhgA4/2wstBSLIvgfQpVIkAJiqeaM9lq7ET0FYsRaUCt9JIUX+N/UjGHChkAY4+RMgDGHuMQ6F4QyI4lpLyJ1PJYNohxIM6QrIpYYkhVbAdCnhK0T59Wrlyp4ygsV9xQkqf+4GWwAYyrZ2DuTJ48WUh2wwsX6fKywBC7xVpLLI67uC1XfQ7nYwbAhPPo2uDZDIDxbRBYyFjksWpYueRHjRqlBWbPnj19a9TPV7EBIFsLvuUIVzKgAV7w0XZXMNPPXfBbcwbA+I2VZWrIAJgysS8kLv7ll1/kk08+0TVYgtFh0hSz+UTGEjeIBeavf/2rLVK/I1NJofz0008LqXxJf3/fffdpl7dg8CqY97QbgKGgKYVJAb/MHV7NmjXT3ga4SluFpAPFs7/85S+69hvu2RSNjpRsdCXx0wCYkrhjviszB0IdwBCH8uOPP+qaKGVmhpcNsKnGqkGAPAsbwYQE8wMSSOEYbGKB/eCDD+Txxx/XgftYiNAcuks0EOz+lnR/A2BK4k75fWcATPnxOlh3+uKLL7R1mSyLdiBSJOOya4cNIVkdkffnn3++tsKThhcN/8CBA+3AqnLtg90AzP333y8ff/yxBpYWI0if3LZtW+3uR5HTQGSsI36Le8+YMUPvAVirKF5NUh9ioyKZDICJ5NEvh2cPdQBDBhhcubAw2IGwwqAtdK5bEIy+HTx4UH7++Wft3kZmHxINAGKcUy0Ho2/e3jNYAIbFiZoQAMGYuMpy5c0DJTGpqlSsFKQ8xt4yzs/nOwKYmjVr6gKDdknFTVao6dOna4UGKVKfffZZPz99ZDSHUoYYDyzMwSK06LhqQYCFv/3tb3pzGKz+ON+X2jSk7iWrJNp90tJT+yuSyE4AZteuXTqZzrRp0wqHgOygWO/IFDdy5MiArcu4PaampmqX7HPOOUe7FnLvhx9+WCehKOxQBH4wAMbPg37oaIEcOHpClVE4KdUqV5QqMZX9fIfQai7UAQyFz7777rugWGCskSYwHn/xypUrawvMY489Zpsc82QcQ3hbvrmAGOrQVK1a1ep+SLwHC8DAHAJ1cU2oHB0lg87rLK06NJCY2MiUGwcPHJGlf2ySeT+v0XUWcJUgfakdyAAYO4xC2ftAnQ6sxmw8SYeLRZt5ZieirtcDDzyga4D169dPW2EuvPBCO3Ux4H2xE4AheJ9ilvPnz9fPjaWFdY4xAVzidYCi0x/115wZi5KLNM6stXhiMH+J3aKoKW7bkUwGwPhx9MlYsXx3jmzIypeK6nPLxFhpnVxVolQQdqRSqAOYjRs36orJwRo/0jkSB4PfeMuWLbW/7ZVXXhms7px2XywvVIsmDgYtFUKV7DmuqkufdrGNDgQTwBCsS3BozsED0qJtfenWp4Uk1a2hAGslG3Eo8F05qpQ/2zftlZnfL5OsvQe1Sw/FW+vUqRP4m3twBwNgPGBSCJxChfunnnpKu+ciS1EINWnSxOeeY4nGnRYZkpOTo+NqqlevLryio6N9bhcrDBs0+kYqXwoJW0TbjtmxrOPh9B4MAANYYE0jvoXSABZNmDBBJ9RhjUtOTpZBgwbplNxY8rDEMkbELVGrh7TcpFeGyBrnr9iYTz/9VPehdevW2n2sW7duVvci9t0AGD8O/cG8o/LlinRJ231ITdyK0qZ+NRnYorYkJcT48S6h1VSoA5hgcpsFcerUqTqIc8uWLXKbii+5+667tDnZ134hoNHi0Db+1pZwJY99WRbEXr16Fab8RKOJaZ32QiU/fjABDL8RAkTxcWbhbN2pkXTslio1aytXsoqR4Up24sRJ2ZtxQFYsTJONq3fpugtksmOxtjYDvs55f11nAIy/OFk+7fBbQsZB/L7ZmEKPPvqoYFkHGBNf4qv1hQ2uVS8Eiwnto4zAvZdMUcQntGjRwmdrNMlbXnnlFZ3sgFTKuOda1KVLl0JwRDV4XIrCjQINYJgTWDUg6u4wfmlpaVoRh9vW+vXrC2sE4faIqy/1YIh1oRAqRS6tFNyAFo5j0SOBDfGqtInXBGOFDKug1sMqKjMn2eQ47i1RXHPp0qV6fpWUhYz7Apx8uYe3fQr2+QbA+GkEjqsfww/rMmT51mzJOXRMt5qSGCc9WyTJmQ1qKpeyyCQDYDwfdyvvPFfw+ZhafMcorRtJBFJTU7XbA4LTF0JYsyBgyeGFgN6+fbvceuutujm0OcQ9GpHyAAA7xklEQVQc+FpngDowBMJisSLlM5sCwBELuSNFRUWVCSg5tuXPz8EEMDwHvxOyD8E/xgmqkVhFEqrar8ie7pyf/xw8kCs5+3N1qyzwZF9ic2AVkPPz7XxqzgAYn9gWlIv4DVElHcUPhOKGjInQsmXL9GYU6x4ur4AMbwl5QTpd3IZmz57t8nKs0Fh3iGEh2NtbIu6S4sC4MLMeuCMsANwn3ChQAAZe0jbgBdddxgZwQFwWv3FrDUT2OAbJcw4Z7Ej2QDmDBQsW6DnF+b179y5WNoB2SMbAPIFwLUOZh7s1iRmI60PBZ93Lk7Gz9gdc4+46ADtgC8DUvHlzT5oN6XMMgPHD8BUo7eGOnFz5esku2Zd9RI4XqEmr5E3lmChpWreqnNcuRRITImMj4sxOA2CcOeL+f4JaARWAC4QfAgvN/Jw5c7Rr1k033aTTNrpvwf03+Hu/++67OnA1Pz9ft40Qt2oLjBkzRmjf10BRMgqxGWCTgPBE+CNknbVALPi+gjD3T1f2b4INYLh/ZmamdiWjkClaNKwv7haqsj+xvVo4oeb6SSVHAdH4dwNe0Gra6fkNgLHXnCmpN6+//rp88MEHOpMX5yFL+U1BbPL4jEXDVwAzadIk4R7ERFjt6sYd/qCsIVsULrUUI/aWsCC99NJL8vbbb5eY8MAAGO84y9rKWjh+/HhtRcHSy5qF9QRrCQk6IOf1C1dpxgJgiWsg4868Qvn35ptvFssMijwHIFnJf1atWqWtJ1joUOwBZFgHvXG1xvqC1Qfw465MAcpDEuswr7E0hjsZAFPGEWYCH8wvkB/W75Y123LkSJ6yvqiFGH0JG5CqVWKkY5NEGaZcySpFiDuII0sNgHHkhuvPaIGwshCoj1BkgcXNi7mFwMLHGk0ci6AvAc0stv/617+0ixftuSKy3aBFuu2223SFalfnlHQMdwoCGnGDKok+/PBDwbfbbhRsAAM/6AMaPjTHzAOCNRn7SCECY3G/wb/fcm2007MbAGOn0Si5L2QVY7NpWWA4G403wdYACwjrM2npAcreEJtQgqqxZCOnSyLaHjBggHZVGzp0aEmnuvwuPT1dywSUThByAUsAG2I21KyvBsC4ZJ3LgySbwX0Q/hEAz4YfV0LmBCCmSpUqbt2eUTBhdZkyZYq21qCkQ15Zrq7O7tIoCK31lvWRF3MHAMW4YvnBNZC6ac7EOZwLACZNM8S96TsKniFDhjhfop+JPQJryLXXXqu9IPDcCGcyAKaMo5tfcFzSMg/LlJW7lOb8qLa+WMZe3MaiVCBusvJlH942SVJrxquA/shyJjMApvQJRo53tEEINUdCA0TgPlaMcePG6WrR3rjUAITw46WS87x58wqFqeM9HD+zcUQrxMJOMKK3RM0c6xmwIu3YsUODMbKoff/993qxNwCmdK6y0AFmcHtBCxspxNy2sy+/ATChMxMtAIMMHTFihPTt21dr1GvXrq2BDE9CEUJf6mmRxp6kG8g3T4g5zUYZJVJZiU0xig3iMUiju27dOgNgvGAqoJaMYhdddJF2D2N99YaQzYw7IAHQQ/wRZQM8jR8lyQNACCsJXhFci1eCIxFP9dFHH2mgyjrMXIMAMJR1ADRhgWEuXHzxxYWX0i4Jf1CEkm6ZLGkUag1nMgCmDKOL28O+w/nyi8qcs3JrjhxVlhi05o6EAI1T9R3aNK4hw1omSxWVKlUdihgyAKb0obYADBs4NDKWxoW5g5YITQ3WEW8XW4Ttyy+/rF0dqDztCWFGpxglWcXKQmieEKgERrLY8owsvAbAlIWr5tpgcsAAGM+5jyUWq7JFyDJABPLN0bqGBQNtM1Zib4nijlYQtfO1FoBB+YNrLCmJ/UW42xKXYgWAe9IuMRDECJLspKzEHgOFFBkfscYYC4znHH3mmWd0rCEbfNZUipiy5llWOc9b8u1MLD9kMsPlmjlPPA1gxZEo9Aq4QfmIEotEPvSRdPsAGK5hj4CSi2dwJNonsQR7BV+8NRzbCoXPBsD4OErAlMNHC2TtnkPy8/p9cmB/npxQiPiU81jxRitVqijVaqgsFR3rSZNa8RKj/o8UCgUAQ5wJP3yLMAWT5YOXo1mYTTkar7lz51qnevzev39/bQ52dYEFYMhccpfKMuYvFytAC2lCCTItzdXBsV+k62SxRVtZVgLAsNjSD7RWBsCUlaPm+mBxwAAYzzmPleLJJ58svAAAQ8YvfPMdFTEoOUhrfP311xee6+kHAtfZvLsiC8DgcoU8e+GFF1yd5tMx3HdYA7yRqWjNsaKTOKCsZACM7xwEwLzzzjs6uQxzAwsIKZCxaLDWY7EgTTIgG/CLW6u3hNsva50jwEV24J2AFYXxw12NjGfE/DkDGIrlkiACAEM/mLv00QIwgOGePXtq0BUJgfol8d8AmJK4U8J3BQr9bj+QJ3O3qnR7Ow/JUbW5LW57KboY4U1Af/vGNaVfs0SVVjlaKqljkUChAGDQ0BHUZxGuVNZiy2eL0Jx88skn2nRvHfP0nSxdVsYv52ssAIO/NDEo/tIWYvHAjIyWzvKhdr63q//JkkJO+5JSNbq6ztUxA2BcccUcC0UOGADj+aihKbZcX7iKNXDs2LE6Ts5RMcJmDzAA4PGW8PN3TC3seH0gAQybRuLUvCE2nLgKOWa18uZ6x3MNgHHkhnefATBkG2N9x5Vs7dq1gqIPgIDHAmswlgvWfQCNty5m9IaaQLQLiMF9EBCCGzX7B0ARQf/MA+5LHRlnAEOwPrEuAJ7zzz9fu0DSruVCRl8tgOVrCnDaCwcyAMbHUTyggvWXpefIb5v2y8FsBV5U4L47AqpUULEv0fExMrxDsrRNqXbKlczdBWF0PBQADJo8cu5bhBYGUIOrAEF9FiGYECzPP/+8dcjjdwqnETDqigIFYBCgqampXoEX+mcAzB6ttXUVKOlq/CLlGDFVLPJoLnmxkYoEYtOBHGDDge86FlsyFbnT/kcCT0p7Rvzw2bA5EgoRV4UdcZMhYNlbQmtuZYxyvjaQAAYwQjA4vwFPCdc5MlURlF1WMgDGdw4CYLBsOIIG0mozlvyuARooKrao9Nu4aHljZaNXgB7kBYTMYM4z5gB4wBD/A+ABJ7iGuQIw+mIXfywAg1s58S+0+cQTT7g4M3IOGQDjw1gjQNaqStG/bdwrWzIOn0qbXEo7gJjKymyYmhKrrTCpNRMiIqA/FAAMQovNvkUIIXeaMszCviy2aO3cpT4MFICB9whNtJzebDYpyIWg98diGw4WGHjnDf+seWT3dxZAXqURzw544TdC5iVcH1jgORYJhMsTvuZsTNi44m5qAIy9Rz6QAAZLCi9+B54QMYxo0ska5iuxmeZlEVYrYhVZi0wMjMWV0t9dARh3VwFecNvyhkpa5x3b8QXAEEtKrTASuyCTsRThluhKKeB4r9I+05bloUFbniYkKK3d8vjeABgfuJx1KE/mpGXKwrRsFbjPZPKsETYLcSqtcv9WSdK5fjWpFnMKqXt2dWieFQoABm2G8wbVXVAf53G+t4RQcCcYAgVgAC74z+K+5uiPW1rfsT5xDQtvWSkcAAzPsHXr1rKywnbXo8lztDC66yBxCmSYw+WCxdN5M+XuunA5zu/Wkgf89nkZAGPv0bUTgCGT1J133qld6HzlGusolgOINQg3KLKaIZcMgPGcq94AGF/W+pLWecde+gJgcHMHOKNwhQjkJ6asrDGzuJpb7p64eZJWOlTIABgvRwqw8uumPfL7pkw5cFC5USjXMQ/xi75TpaiKUjcxTs5ulSwd6hTFV3jZjZA5PRQATLCZGSgAg7sPwfikVsT9xRMiQJBEAgTd+0oIZyvFKJt/FtvnnntOg6hQCeIn00vr1q21PzNaTm/cRXzlW3lfh0WB+j9Y2joq14YUFbzqTLhN4lpBIghSgMaqWL7uXRrq0+qmVFUuE+GvhFmyYqds3pql3EmKXIYMgHGeKfb63wIwuLJR++WGG27QCiQ+Wy4+WNZ82ayx4UMT/v777+ukLiU9OfegNgcylYBtbwlXJ9ybsXhaWnLawDpAP1AoGADjOVe9ATCet+r9md4AGNYeYm+pF0dsjTUPiNehECbgmEQVvigcKZ79wQcfaIUlT8F+gcx+vsxV77lQ9isMgPGSh1uzc+WXdUobsuugHD924jTwAkCJVWmTjxeckPw8V2mVRaLVJqBrkxrSs0ltSa7iXREtL7sb9NMNgCl9CCwAQ+0UUoMCHjDlOgYQWoGFpbdWdAYuPlR1R/CRmpGxKIm4B4kGCAz0JfsK4ASfXsCL5TuMth7rD/1gsQ0VAEMcFGmtAWCkpQxXwl2SgFBcH0jxygbPkUj3SVYcNlC1ExNkYJ/m0rb1KQ0d6eErKetEuFPW/sOybUe2/LFoq2zYvE8/rgEw9h51C8AwbxMSEgpjZdiYWZZwUuhefvnl0rVrV68fZvv27fLZZ5/pjaU7l2LcDq+44godhE31dF8IDTtZsyx5yrqAYsUirKi4/J577rk65b51PBzesXSyNrJ+4ILXX2XypO5KWQgAQ/piQCWplB15WZZ2vb2W1OETJkzQctUxHsdVO3hSsC9wTMaD4olMZsTrMH+JzfPWlQzLOunAseQxf7DwsXaTPZBimaFABsB4OUo/rMuQJWlZp6wvLkwv1WpWkTb1qkhe/lHZlH5QDue6AjEVJKV2vJzZNFG6Nagh0WGcVtkAmNInmAVg0MogmMgygsuKI4gYNGiQzijmy0JIkCLmZxIQWJYR514RmEpRLBYKR+DkfF5J/5P0gPSPVvVhzuU5HPt833336WKZditYCNDauHGj5hOLAhQTGyfVaiZKraQUqdeomT4WLn9y9mdpV6jMPbtkX8YOob4uiznzDNcEKzaGBY7FseDYYTmjU30ZNrC1VKsa3koXV2N8WFlfADCz522W9N0HjQuZKybZ6Bjz9n//+5/e9GFFdCS0zigmhg4dqrNRkanRF0IpQ9FBNpZsBhcuXKh/NyiCUlNTZfDgwbr2jbvYx9LuuUNZj+5TAIaaIPw2kc2062g1ApCxTnAsVLTmpT239X2gAAwbdtJaA4asujzEvMI/AuwDsTah2AOEWgkCWOsBZlhRSgIwWFuIuRswYIC2gMMb0jwzF1CikO0PCw1AHWWUN8Q6jVsw3hG0T7kDlHYAGOf6Mt60W57nGgDjIbfxh9ymso1NW5kh2/YSuF+EXtTar9KMiVRUMQOtU9WPIrWGHD1WIPO3ZMqGncpSo6wxzkRa5Rb1qkm/5olCQH+4kgEwpY8s7ghUqqfGDNoWi5hzZPJBkFM/gNSPaA19IRZXAAzvlvDE5MziygstHguur4stbaJtJMi7TZs2Ok89CwHuGhThsjbEbI5xWbLbYusMYAAvjZq1lqZtOkjNxBSp27CJL2y37TU5B/YruVQg+/dlyIaVi2XzupUSFxMtZF5jQ4eWGpcx5gwLW52kWBk2uLV0aFPXts8U6I5t2aaykM3eIPMXbzcAJtDMLmP7rDsAFV64WjkS4IYgeDawyFR36e0dr3H3GddcXmxGFy9erE8DwPBC7nkSY+au7fHjx8urr76qYx6Q/6SaxuISKRQoAAOwHT16tK5Yj9WCxBysSawBgADc/iwQw7oFOPTGPYs1HG8KgIWVHAhLNopJjrGuV61aVSv6kLElARjmFRYjFH8AIBSc/fr10zKa+7zyyivapYz5DLi1YvU8nSP8PnBPwx2Svj3++ON6LwBICgUyAMaDUSLu5eDRY/Ljml2yTgGSQ9qqUnQhAIY0ydWrx8mg1knSOrmKdi1bsvOAzF6/Vw4fOhX4WnSFxjtSvVqMnNG0lgxsnqQykoWnK4YBMI6j7voz2hPMt1gAHBdbBCrCFnMz6RcfffRRrXlx3UrpR/EHJwCQF4ADcIHrUIsWLbTVBe2Lr8Rii3ke1wrM81iV0BCFCjkDmHqNm8kZvQdKi3ZdQuURfO7nprXLZcEv0yQna6+uUUB9DRZsFje0v8uXL5dO7evJZRd0ksRaZVe2oPo5XnBc9mcfkt17s1W16XwNmOLioqVWjapSJ+X0WIFcdc7+/YeUZfuYcmWrqmTnqX6kbd2ttOlFsSmumNCwQZJUSSi71Whv5iGZOXujAjEbDYBxxWgfjrFpKs1FEznlT4XHjBkzdPYmsjoRO4AGmk2rnQiLDjKUIp/NmjXTcQ5lDda20/N50pdAARgrjTIuzSgNp02bpsEB3gm8sIpgiQGEAGAAM5bbYWn9BrBi2cDSQvvMbYAy7eCWBQAhboU2SaM8Q1nw/qHiThhv1iBACZ8tl0H6AODmRXsjRozQtZQ4D2DDHOaed999t1YcAshwf+YZeHEfq5Yd/XAFxNh/sGZjdaEOna9KzNJ4E4jvDYDxgKvHjp+QFbtzZMbKdMkmcP94UeA+4EXNTomKjpJOKq6ln3ILq50QozOTbd2fK7+pbGUbVKHLAo28i9+MeJnUlCoyon0dqVctrlBLXfys0P4vnAAMiy2uByURiy2+qf4gBBrAgFzvuCugHWFRI2bBLoQ2iWQBY1X2EtwpcHWgj5deeqlduuhRP5wBTKee/aVLrwHK+pLk0fWhfFLGzq2ydN5MWbN0vp5baPXQ5DkCmF7dG8u1o7v75TGPK3matiVDZs9dKavXbleav2PqfpXU7yZamjapK0MGniEN69cudq+163fIHwvWyoGcw9KhfRMZ0Lej/v79j6dLekZm4bkFxB6qhT4hrsid4rKL+0nzpvUKz/H1gwEwvnLO/XVk0cL67I6QpWiu/e2TTwFMYliwkmCBISWxnQjg8uc//1mnSWZzyWf4EEkUaADjipco+bCaYBlBoci6gALR05TxKO2sQq3EXmHZIa7Q8kDgnrRNCm7cyhhnXLf5HQA+UAASUwWIAYAAOPgN0Cf2UswF3N0A4cxfrsFa4mjpwxIDiOE75rdltQOgYGFCGcAewnI5ow4TyQHopzsLDnygDyg5uZe781zxNJDHDIAphbsn1AYtWxWt/GblLtmWkas2sKdycFuXAWAqKiBSrWa8XNIhRRoqdzArpiXv2HFZk3FAvl22SwX0q1S9ThnLuJZA2OYNa8qotskSVzkKLBRWFE4ABqGDudkdAV7Q5HXu3NndKT4dJ4CPLFC4j6FpufDCC31qJxAXAeoALmwIEL4PPvig3gwgOEOJnAFMl14DpUvvAVJdxcB4S/mAXPU7jlLzoVLF01NRFxQc0wsii0BUlEr4cbxAuwGwyMWqxaoCF/8/HT9xXMWfHCN3qo7J4XDekVztrsq1lmaQ/h87dlROKHdDXFkrq8WrYgXPrLo52aq20aK58sfM78oFwBzKzZPnX54kk76cJb17tJUR55wpJ06ekDnzVsumzenSvl0TeXrcGImJrqzlIRabiV/8Kr/NWym1alZVWsoj8uoLN2kujf98luzes19z65iStxm798uOXZnS68xW+hh/Lji3tzRpnFL4v68fDIDxlXPurwO8jBw50u0JrVq10hm80Az7k9g4AtRJD04AM9psfymeytJPFEJo2rGCYhlAOYTi6i9/+UtZmg3Ja4MBYALNKKwzgA9cvgBLX375pZa5ZL3s0qVLIRDBbY3YUQADbtckcnj55Ze1hQiAwjxhvcU6BwAnVbe1FvAMWJJwaeSFBR0A1q1bN30d+wl+c8S6AmLgM6CKewF6HMEWbfE9+7i3335bAzKUCXZxMTMAhhEqgY6oRXGVsr5MXZ4uR3JxBWM5LSJcx+KVtq9L8xpydmptqaJiW6ztB5Nsnwr+nJe2TxZs2q+sMKfXG6morq9RLVbOVq5nXeqHX0B/OAEYcqWXtJCiGSFd5mWXXVY0QfzwCcFB/nfM3XfccYf+7Idm/dIEJm6C9wn0RjhTbRow4ywE/XKzADbiDGD6j7xUOvfqXwxMeHr7/33xmdaete/SXerUP901Ze2KpbJy6UJp1b6TdFDnbNm0XmZ8N1kDlNHX3aJc+6ILb5WxS2nklixUsidXzrv0Kn184gdvq3YbSPvO3SRRJRiAsjL3yvzfZsnObWnSsHFT6dFvkFSvcborlj7Z6U95A5gs5To25NxHZcigM+RP154jTVNPZTUDiMz8dblM/3mJjFZWk7OVlSUuNlotvsfl6Rc+k42bd8mgszvLa299I/Nn/VOBtMpaQ6rErKZFSzYoUPSr5CuLzj9evKXwKcmU5g/FkAEwhSz124fSAAwbJeI/CLz2J/F7f+CBB3TaWGL2yPZ14403+vMWPrWFQgi3IGQqFlAA3EMPPSTXX3+9T+2F8kXhCGAAzaznWD0YWxIwEIgP+HBcM/ls/c938IL6bABvrDMQ3g7sN5i31rnWeLP35MU8516UMuAc4l1QOGIZ4lpc0phnWCDZ2/Tp00fH51jt8I7LOama6QNt4HIJGLIDGQBTwigcV4OffuCIfKtcx9L35emFlElhEeClsrKa1KwRK5d0VsHQKjuPcywL7mc7c47IpKW7JDsz93QApCZE5coVpV5yvIw+o5EqbhmlNKcWBLLuFLrv4QRg0IKwOXdHqUozQr0BzP3+JEACGjkCqgngw8qB1jDYBGAhOJHgffqIRuf555+XUaNGBbtrXt/fFYDBhcwXeu35cVJXAZc+g4ap90anNbFm+WL59yvPSL8hI+TSq2+QtI3r5JtJH8mOLWkyeOQo6TNwmFSpWk1fl75zmwCIli2eL298+JU+dsWIs2TU5dfI4BGjNIDZnb5Tfvr+a5n27edyxXW3SU8FXqopFwFX1p/TOqMOlDeAyTl0RO59+G3ZqSwlt990rpzdp4PKbBYvBUpWEg9zWFloqlaJUxrxGC0L5/2xRr75TiUSqFNLW2z+8cZkGXVeLzl/ZC9Vl6aoDs2Cxetlwue/KBeyAnnj5VtdPWqZjhkA4xv7kA0ff/yxzvyElpkAZossAIO7DAHrZEPE9QbLCCnXUdrgYoNixJFQmJCdiU0g2cR8IVxduSdaZ9xrqHcUbGJ/gZvyiy++qGvNsH7yfGw2SbARSRRuAIbU3iTlwZOCvQJAddGiRSUG8TuON3MBiwpxssSpEL+KO5gV4+J4ruNn5hQgBiJYnyLVxL1gucGqg/sa+xpACvsL4mNxQbOy3ZEN7+/qd4Ilh3WS58BiZAcyAMbNKIBT9h85Kkt2ZsucDVly5LAKFFVuDkXwRbmOKQBDIH5XFffSt0midh1zhh5MnkNHC+RXFQuzeFO25Ko2T6pJYBHnA4SqVImWAe3qSKc6qv5E5dPdTqzzQ+091AAM/WUhQyvHi8XNIgvAIDDYpKMBwQ0IAYBWA3M/NVTIFuNIfGcVVGMB94Uefvhh+UAVnGJxo3YBfQk2YZZGIPO8mMIRbldddZXWFPn6nMF6Jn8CmFf++rDUb5QqZw8d6RbAvPzUIzJg2Ply9Q13aAAz9etJcijngKxfs0Iefebvktq8pfJ/jhIAzOTPPpAF836V97+aodlz7lnt5Irrb5Nh51+itWIzf5giv//6k3TrpbLTjLpMatSqrTV6nvKyvAEMGRp/n79W/vbKJCVPT0qLZvXVq560btlQ2rdtLHUVUHGkV16fLDt27pXzR/SQZiqWZfykWTJ/0Xp57817lPX6VDA/5xsA48g1e3zGbx73LCzIyE2UO7iwsPEimBo5hlYa9y3qYpDOFYBDgDMFeGepOAHcY0gDjysN2mhccLiOzR/pcG+55RZd08ObJwZQvf7667JgwQIdVI2Vw05B8mjFiX0kiQuyqX///nqTSe2SSKFAARjiSlmnsT4wp8qLAMzMeeYsz8bcRulXUhYy576xx8BKB+D3JekOeweUBrTD7wbFgCOAITkA4IV4GCuxBamccZ8HcJHwh+84xw5kAIybUchXbgubslTRyk1ZsiM9R06o/x3BC8AjJraSNKlbVYa3rStJKnDfGbxYTaNZ3HUwT6as3it79h2WoyqTTjFLjrK4RCkrTF1VG2aEaqt+9VipHCa1YUIJwOA3Sh0TFjdcF/A9RtggKNasWSNvvPGG1l7Uq1evUFtI3AuF/jALo6HAt/SFF17QGhbGHzD01ltv6YBAzLMskt4WTiNYjwWcFMgIEDQlCGA7ECCGoEPcMRBwZDoB3GExYuMRKhRsAPPjlC+1TEjbqIIpzzhTWVculDr1GpQIYLr37icrlGVmxZIF0qxlWxl67kWSoq7xlsobwKAcwsoy9/fVsmzFZtmVniU5B1V8Yf5RpRCKl0EDzpCLzu+t5em2HXvlb69+Lo1UJjHczRLiY2XRkvVy94Nvy9uv3ykd2qUqK8wpJYMBMN6OfGDPx0cfeQrYwFoCUXcDOcjGkcQkyLZNmzZpq8v8+fO1fEOmAk4AMLi8AHwANlxLUDMyFZcYNNFkWUJrjPuLpxaKTz/9VMtT7sEGEhccrDxkiLITwQ9ADLU6eE4qpD/11FM67sFO/QxUXwIFYNj04pa4W2UKO6Q27MSRkCCBFxtzAtwt60NZn431kfnNXMeqBoAhCB5QALgHDLDfgIgb9XccFr8R4m0gQAiKBN4hVwCGfQ99oy8WgOFc1kcyq5GgwC4B/PTLABi44IJ2K8CxYHu2LNqSLXmH89TmovhJWF+Sa8bKmc1rS69GtU7zQXQ8m0txJZuj6sIs2LxfsnPyVLBtcSsMleSilb93n1aJOhamlgruDwdXslABMGi8cNHCxGoF6hPL0rdvXy3g2JxPnDhRuzQg8NAC8gNnQcWdAdDy448/6h8+NVUsE+tXX32l3SHwW0Uo8B3gw5NAf4QGCzWLGLU48JcFGGDudSxy6TjXgvWZjQr9BMzwnFhiAFr+WggC/Vx2ADDR0THSsl0H+eHbL7R72Bk9+sjBnGy3FphjR/Nl+5ZN0qR5Kxk47AKp17CxT2wqbwDj2Mmd6ZmybfteBWIyZdWarTJv/mpl9awsH779gNpMxMvkb+fKu+9PVVp5Vfi3a0t9KemXP1PB+7fdcK5ce/VgSUk6lZXPABhHzgb3M1pdS54iE6yU6rinAEj4Hy0wGzoURMhZLDWWZhd5SQpvamRh5WUdQd5igaENrseNhk0V/wNwqOnSo0cPrZ129fSWPB03bpxWtiBDkcUAGLvJU6v/PD+WIooRI0uJjWEjHAkUKAADcGWtYk1nXWVO8bIICyAbdYC0NW+t7wA3ji6Q1vF0BUZ0shV1AJdJagNBPANAHoU1SRmY38TKEjwPQEVpSmIezmEOMsdxobSIPnizhlK0FS8N0jdTQ4Z3lK/ck3thvQHU8JtE2epsgQFc8Zsi1XN5Wqes5/X23QAYFxwDbKzMyJHZG/ZJuipa6Wgt4XQCmeLioqRV/WrSv0WSpFQpvcYAICZTZc+Zuna3bM5Q9QzyCoqBIjIPRamFu07tWFXcsra0qJ0gsVGh70oWCgAG4cEPAZ9rqiqj7YIQBggUsoHgAoY/NsKLauVs2C1CMLCosOCivcDf1Ko+j/YFiw2CC8EA4Lnooos0CMFFjbnkimgHrSVaSHLAc19SE1O3gJowdiTcQzCHww8EIACmpJghOz2DHQBMfEIVuXzszfLe6y8pN9PjMnD4BSoLWi2XAObMPv3lKNnOlNzo2Xeg9B08TAXtF3e98pS/5QlgjqiaLes37lSBqDnSpXMzXc/FUtRs37lPBeH/Ip9M+Fn+9fc7pF2bRjLu6Y9lU9ouFWdYtVgtFzI6pm3bLS8/e4M6r7H6XVU0LmSeDniAz7MsL8hTNkpotseOHavvCkhhQ4ULGdpe5BryDNcoXo4uu6SxRXuM3GWzSapXZChFIom7w5KN1RsNNiCGWBFADAHGjptAbowmnHOQUbhlsaZb7q5Y2YNBbDDZyJbkCsQmlzgF1haeCWsTLkCRQIECMIBm1imyvTHHLAsJnwEf1GAhKxdzEWUl+wDWB4g5y5hxLUDcImJKWLMhAARtAD7wSICIVyEAnzlLnCxAgeD9KVOmaK8M7s1eifYBU8SXAjbYS6Smpuo2SvvDvZjjXGvFvNBH5pcVJ8ZvB1BDHAz3cgYw/DZRLGDtIx7N7mQAjNMIIdh2qaD7eWn7ZdnWbJU5DHev4idVUsCiUXKCnKmKUHZIqSZRHrp70fb87Vny+8ZM2b3/iLLCODWsboMVpnvzWtK9UU2pUyWm+I1D8D+7Axj6x6KK5QXAAPDgxwuxaPA9ggwAglYGky9AwjmVMdpGfFrRbqDhQWuIEERLyOKNACPgHSGGgKISMIstAMnZJMtii5n36aefli+++EJ/TxYaBB/ZQ+xKbDaIh8ESxWI7XPkYf654GwpkBwATp3h2xXW36piYzz9+V2UoO1Nat+uoMpR9fVoMTK3EJBlx0WjZuztddu/aobJ6XSS9zh6s5qr3MqM8Acw+BVw+/2q2fDv1D7n9xnOlY4cmkqwsKMjGHQrA/PrbCvn86zly49ih0rhhijw87j0ZNrSbjBk9SBW4LKp/RDr7M8++S8Y9fJXOZlajeoIBMDb4obH5AVDgNkb9DDaAV155pXbHpXuvvfaaVsggDwEaaLhLc/1iM4gFAms2gIVNPC5ABPCz+QQo4RqDvOX4I488ouW0IxhiU0kbZHICEKFUQv6iELIUVq7Yx3VspJ0BkatzvTnG+vCrSo1fTQE4rPH0x5kc1yY23fCLLJQ8YyRQoAGMOx6yhgPCIdYFNvUAFouwDjLP8TRwRVhSWPeZM7goWkQMDOs9LtaAIOK82DNYMTCMMeCDuQFQJx7Fcvey2ijpnZhca85jtcGC4q6PFMUGyFgAht8FilUUDrix8dkAmJK4bdPvjijAMnPTPlmoAMyRw8VjVeiytr4kRMtZyvJydrNElXXMtQbd3ePtUxl4ZqzfK2t35KjaMMoK43RiJRUUnpKUIH2b1ZL2KVVDPhbGzgAGjQmpkYlRQbsHeGFBw8WADRWmXTbjFIJCc4KGEOtLSYTpGKCC7zZAhsWb4lNoUQgYRfNhFaAClBCcj7BxNGGjBcJFjesQYlgznn32WRmiNIyxSvC5I0vIovnxF8EHNga8sB6h0XG1mPM9gpiNC2kXMVmz2IZKQUtbAJh4BWCuv1Vp7qLl+8kTZNP6NVK3XkPZk7HrNABjBfGn79wuU7+eKNlZ+2TsbfdLi9beA9zyBDDHCo4rl7E98uDj76k6L9HSrUtz6dO7ndoknlB1XlYpELJBotX8ff3lm+WDT1S9hPlr5JY/jZDB/YvXViIRwJ33v6nrwoy5cqC0bdXIABh//ejL0A6gBSUGihqUPmyEcK/ls0XIB7TCVoE967gv72iasc6QmRF5SxwLmRDPP//802JaUAyh9Qbs0Ac2aGRi4lxnmYb2mw0e5wGgAEsETlvPwUbRUWaX1ndkM5tTS56yPtAX/sdKzcuxQDHyFGBGbCUgDdc4Ut2GijwtjR+efB8sAONJ33w5pzQA40ubvl5jARgUCgA0fgcQIB93TOYa9V78HZPja3/dXWcsME6cWb0nR+aqwP0tys2rQC2SzoT1paFKedy1cU1pk1xVZwzzRpApeSVr9x6U3xSI2Zx+UAsw53tERUdJu4bVpbey8DRWhTFDmewMYIgvYZNNcDwAAy0EP2xHIh4G7Zi/fKTJSAZoYbEFDLOQkQ3FcfHi/mh5WGhxIQPEoHVDY0gKRlfEQshiy1xE6wm5c09zdb3zMdqDWMjpA33BAkVBNTYljm1zLnUaOI/FFn92+sp5oUIBATBDRkqdBo2KsQB1B2mUnbOQ/TjlC4nTAOY2DWCOqviWd/7xnOQqTV+CSqm8cN5sl1nIqAOzdOE8mfTROzrRyPP//lA5lXmnVClPAAMzSGqyefNOmTJ1gXz3wwJVfDJLBefHSYvm9aRPr7bS76z20q5tqlx3y6vSpWMzuWBkT0l1KkRJivvpPy/WaZNvGDtMXdfuFID54hc1ZwsUADJplItNvHL8B2s0sgDtMnIVRRDyIBCEogd5SnpZiAxTWNCd5anjvUmIQv8AWwAD+odLmkXIMyw9xEkAxCAUN/1VJjDWC2QsVhPc4BzloHW98zvtoV1HcWXJUyw7FuHWgzKL+9Ee55Mwhj4S/I3FCf45W/2t68P13QCYwI0s+xxcGAFVzDMUq46EspY5Z3mjOH5np88GwPz/aCiZIcdPnlCZwtJlOYH7R4hRcbaPsClUFbajVNpjZYWpWT1eUqpGS7vEWGmWooSZhyObrxbw2Zv2yh+bMlU2HlUc08mVDCEWF19ZuisA00+9Ev4/y46HzdvqNDsDGCwwBEliRsUCg4megmaOhShZcLA88CorsbDjz4xfMz6wLFIIChZbZxDMhhoNIMKFBReNHEAHTQlpSB0JrQkJBshWQ2YTwBbaE0tbRzYwtIeeEos3QAsQhVUFAMXLWriJbSGYFEIDihULgEPgLiZrahbg7laSb7enfSmv8wIBYFop969KlaIKHwH+te7QWTasXnEagPkBABMbL1fecLsGMMieZQt/l7m/TJf5c37RGxtXaZQBMIAdMpF99ObfpW6DxnLHw08W1pEpvHkJH8obwCBVC5Ql5ohKKX8kL19bX0iKEqWUQzEqDjBG1XaJrhwlmVkHlUtElNICRis33eK/P9rIU/E0ubn56rcUq6/LV8AlV2U347taNaqU8MS+fWXqwHjGN2QClms2RSQ4QaGCiy5WbMvFxbOWSj4LOYrihPTLyDfLom3FEbi7GvcfgA6Wd1xmSPkOMMH6DiHz+G7p0qWFsQT8dnH7sQK4eQ7cg8h+RgYzd2RlkMRtDUsOv2tkKe+4/GBtx12I9QA5jYIIpRmB+ySW6a9A021KG36Osr6Hkjx1xw9vjgcKwMyZM0deeumlcnfHBixgiWN/wW/C2YXMG96U9VwADHse9hKPPfaYdolzbJPfE3shilbamQyAcRid37ft0/Epe/aTJex08MKpFkipGFVRpz6OVvEv1eOjpHaNeGmdXEWa1EqQqjElF6Ok5R2qQObvqjbMchVncyz/dEtPxUoVpJFyIeutAvo7qHdPND0Oj2Kbj3YGMDCJxYNiZvhts5ig7SIg39+xJsSHsKAT/M9ihWsZGjc0e87gxRo8FjmSB+CWRf8ANIMHD9buBrwDrojfwRUBYYT7GqAMFzK0g5bViEWXxZJsOyX5taIxJe6HvtIWwpagQIjrAUe0z4KPRQg3MRZbQBaLrQVeAE7eZE6xnjeY7/4GMHt375LYuPhij4Rr2D2PPyfbNm+QCR+8rQpODlR1Wy7XMS/OAIYLc3MPyy/Tv5NpkydKraRk+ctLp4r53XP9pdJf1ZjpO2i4LmTJuTkHspWV5lcV8P9f6dV/iKoRc5nUqu1ZWtjyBjD0NxTJABjPRw1ZimKD9OrIH+QFypuS4k08b/3UmRS7RPYgU5GjaIx5lWR9se5BYDabHxRYKGxIT49MJbEKblvEQ2JxZoMHsGCdwBoD4EEuQwAKZDgWIHcEIGGzDKhDJltFfslGSTwEMQ7IdpRbtIcbMwCHOAjufbOq1TFAgRhPnsldH0L1eCAADEHzzEusD3gKAD5Z6/0JrN3xGwBjuaQzX/FWIE7FioFxd50/jjNn2SvgxsjvBsUC8w/3dBSkFrHO0yf2E7h4Ek/mrDC1zrXDuwEwahSQR7tycmXqqnTZvofsD8ULVroaKCwxFpwBbERHV5REVYyyfu2q0rFeNWlYPU4XtnR1LcfyCk7IivQD8tvGfbI3i4D+orTKfE/78fHR0lG5qg1tWVvilGYyFMnuAAae4gMKaPlAFYrkR8tGn4XHn0TmGxZbLBu4H6CZQ1h4AkzJUII/NFYWgAU+qrg84IaA5YMF+P/Yu78fq64qDuAbhh8zAwwo0EJLYbCxNibFIBAFo6VGH0jhwV/BFxHe9JVnSAgJCWr4H3zzycTE9I1ESBNJMbGxGtpiRKAFC+HX/GCAuTPg+pxx4+XmnMulM0Nm5t7VDnPn3nP3Offcvdda37W+a21RR1EdP4AHJVVfAMh4yvgATlVCWQFDjDvwY3dqDQakkRUlUmoil4y74lvUOobd8xs3biyoGD8I2ti6uIezTaYSwJz7+1/TUDhwjVJksLbtSCN3h9Knly4U4GNN1LgMDw2mq59eLrJ8WiLXA9pr/7mSrlz+dwGGvrrp68WQKGOrVq9Jq19cG3tRTWTWHkbXsqHBgfTRP/6W+pavSP0xTk8DgGq8nvx3B8DkO9H8dwfANL8/9a/SIRwjXb90Rzpy5Ejav39/EbypP24yj+keDqHzyEI/C4BxXsEZepnOQ+kFWFwrfStII1JO19KFsicougq8/WYrZJzVCohglxXhO4cNMgEYTQvYlUzJAZjUF8isywjQ7fU6W2ODX0Z2580IqE0l6HNNs0WmA8DY++W9qJmydxsKIV3Lzsk4sHHspzkgyIja93kFgDePzBGCCug7ZjsBJvYTGFaXZV8k8wF4df5cZwX4AxmtivMJago0CnYS8xZQMmfZaXspATHmHJvH3zl9+vTjUwg48BWAdWOg1R88ePDx6zPtQdsDGLEUhaXvXrqZzp6/mQaHRx9HWCYwSjDK4wEEi+YwT9F+POE/zz0K2pmWnsRx3T2L04Yown8jQMyrK5ekpRXZGKDp2vD9dPbS7fSXf92ObmejcZLi/2Is/8zvmp9ejL1mvhE0sm2x10xXLLbZJrMBwDC2x48fLzIx/f39xYJFk5pKoVxkN2yiRlAU1LO0AmAcD2QBD5QgIypyQvlpDCDbgT4hu8KQeh6o0c5YZkTkhaFU3KpYlIIqE21FM7BivEUkUefsaSOrUx+1VD9EvE7R45F7DyMwG2UqAcxs+/wdANPaN9YBMC3ep9Cn70aHLUEXjiLqmFo/TtvTqLhoYTIRfkSpOZPNhJ4TGKK3ZIRF1IEFDik9xwFstkGlDLe2xKLyzk3UxXDcdu3aVarPvIeuk6kGymRgBKMahe2ToZFBp5sFm1xjo9DNHEzBLdfhmtkf9LF2zLzk+zMdAMbYHHiAAnuAjaT7ifMBD0ANx19QkI/HhrKxKITNBCD2PvMO6AQmzAHiNSDZOECsOSrLlm2087gO8122DgACcJvN3cZrMR7bj/rNXrPLQBCgn/0MLcuxKGT8BDiBdr4JYGPe2RsGFd3WDaiWfACBgfqGGz6D9TkTpO0BzFhMms+GHqR3PryWrkb2pRY86nkxgYGVRQuj1qV7YepetCDNeziWFhW0sQUBJLqKCWHC1WLCjNbG09ijeWkYJ/tBAJpAMi9/oSe9sW55ei0K/VdFJqVMRiPrcuHG3XTy49jILQr7HwVtbQIKTRwdeKigqa1b3Zv2bHo5rV3WU4CksrFm6nMzHcBY7Iwt2oAIGAoZXrVoSDPx3dszZnnUr+iaRPGJ2jQT52Fs7SStLzvAQEky6gyVSB+FUyUiRvjegAyl433aOuuiY4PLxmumzChq5xIJEl3B2ZYtaRSgSISQQtizZ0/RwrlsvxnKkKF1HRQyJet9al5mc6TQ9+meiub6jDvf/knavP2txts0J//uAJjWvtYOgCm/TzLBKCmcNDpHBJhu0BxFBlfdXmNzlPqROGx0qR+6UUcwP+hc6Cui0lXCARQUkj0mjhWEopfoud27dz/eA6NqDNeLWsQGEDqSI5cpuGXv043SZ24GYETbtcIXdAJG1AG5tipxHYJNjjF+Y2e0qvfN1eenC8A03i82EmvB/UffAx7YAMIueB34Bk5y8wW/HZsBht98HeCIHWSLOfr1YksE7As0wjwPgBzjAxMXL14sxhcoxLQgritfS/1Y9Y/5AeZqBinGAYgEEz3n8+TzeR8AA3w7DwADoGF0sPuuA9Vddog/o/ueQKvP7/O5Hx4DNOanz2rsfA311/U8Hrc9gBkZHU9nLtub5VbRHac7am77IouypGdhWtrTlV5YFq0TFZEGgFkcAIazat8XGZjxyLyMjtXS/QAwowFgrg3eTTcGa+nO3QdpOGhoS3sXp83rV6Ttr/x//4L6LxVYGbhfSx9cvZNOfXg93RuJWpiYeE+AmHlxPUFN2xItm9/80qoAUQGe6geZ4Y9nGoChYCxO6VGLnPJgiKRUgQfOuJacVUKJURAWOu61xcxY2gxNE4Cs0Mre77waBlAQIiS4pgpB8W9F8BhN1IVmohiUwQZiRIRER0Qdq7IqxnIOEb5mAEYXH3QH4OTHUcPy62h9WgZ08rX5LKKqlBjnweeZzdIBMH9O7/3pnQJInzhxonA8GTZZQ1Hu7ds2pJ//dNts/oonfe0dAFN+CwWBUFO1j6cf60X2ViYGGCkTDpoOXRx9+pRDl8V7FNZrGNKMSqPYXgCFo0Y4lvQ7JwsYUXvwNOEw5g0igZ6nZT44oXZWF/BS81d2fYJG9DSKjjGBpI60fgeeF4Bp9YrY/TzHZM0AC5kUkttsNxvLPDRP6gFMs+O9Biix+c2E7bVW6Gtzjj8jS0jsZ8NXMZ/9yC7JzNDpxsbk0MmPHyMQqg6WL2BdWru5ZlZgAguEnbS+ACZjCdw6DiiSxVEHC9Q8L3+g7QHMQBTQ/zGyLzduj4QD25vWLV+QvrKyN4BLT7JDdGCUAlBo2wlYhM8bMi9eC4pX8TPx2H4wXnPclYG76aMbI+nq0FhaEwBoz+vVxbQP4003AvD84dxn6ZMrQxHBinRmPFecpjiTLExXWr2qN/1w09pivAUxcWaLzDQAQxkwdiIQFmO9oAxw3qqMrUUsSvibKEb9XVAW6kWUAj1LcWbmsNa/nh9L3ep4Ux/JEYEEMkQpc3evfHzZb4pUihfw2bdv31NT2zIpooHAmfEpK8YhX4NzyO4osrWnwi+icBTQaifpAJgOgHnafJ+LAIajInMyGVEQrRZE1oUI4uRsNMrUb6NepEqcm5NfBTJEsulVwZUq4VABMZwyoh5GbYyocKsApmrsqucFg9DWWrl3slDsggh8R1q/AzMNwLR+5eVHfh4AUz7Sk8+yXQC4znU2exWklYlk9wUh+Qkey/7kZgV8DSDf+lCfBozzQwR1+S8CqdZdfXvxfFY+lPei4KGSA3XWnEyMrRPQzgAZNM7plrYHMGhcnwxG17Gog1kToKU7wELgllQLB28wsiO37kdxbGRpBqJd573wd2u1saI2pTsyIT3aKcfxyyND80J0IutdFNmZADJATy3+GYnMjCzN6mi53Ewc936RhbkZBb46oD3ZREDdTW+0Vd4am1t+e+OqtDQobbNFphLAWKijYXAnI+dj8aE0cNSJBS2SQCxWHOQqQVfQMUbRZpkw1jIiZYs+Hy9qg2ttwRM1LKhlIhqtApg8Vqu/gRyAh2OR09qUDqNfJh0A06GQcbpE72RgzNVvbt2QfrZ3a9BnQzm2qcxFAOM7biVo0uwrlzWhTzk/nCS1drlYvdn7vMYBUj+Xa+rKjpfZpidbFY6VuhTFy9MFYIyPRpsBDKpOpvA0XqdMELrw0aNHG1/q/N3kDsxFACN4CMw20r2b3IamL1lzskE6qeqoZ90JkFqHVeK+8mG8T6BS5kbNlzUsoIHRYYyyeq2yMfkSfBhjyTbKSPKDyijoZe+fzHNtD2BkOsaL2pNHhXEeDSDz8Y2h2GxyOF0fDCrYyHjqWtgbtTEPImI/PlGwX2Re5qeuMPJqZR6N3Y8doXvTS8sWpi1r+yayNxH9Mbni/6cafVmYOwGWfv9BdBy6PhLpuNiDBgr6n1CMCvqXxPg/+tpLqT9aNS8OADUbZCoBjOzHZLuD5cVmoSouVbyfFxpKVrPsieI2568ytqIOeUOyqu8GCHNu2RxCaejy4bnpBjA+ewZr5ma+hsZr7QCYDoABYBg6vH3Gaf26Fen7O19L2zavb5wubfP3XAQwqKVoJJMV+ou0C4Cht9GO1U0Q9ByU4DKRCVKPgGrTkdbvwFwEMKhWe/fuLVo4t34nqo+UfTwVtC9BCFlHVHQF9vR3lei8B/CgvQEd7rNx8hrmB6HFt0oD40sIYsjgYLcAaQcOHHjsV1Vdx1Q83/YAxk0EMoZHa+nCrbvp/PXhdOXWSBq6x8kMJ6/2MCIr8x/TjTK5Sw1MEXEpApIP06LYfC0gS1oZ7ZP7g+618YsBaPp6Ul80AWhFapF1OXftTjp57nq6ORBgKUBVluIUAWIWLOpKr7/Sl3a+ujqt7esuKG75mJn6eyoBjCJ7XOLJCAAhxUrwO6VdRfhaEVmMQ4cOVWYuZHPsd5A7jbUy5pkzZ4ooIcU2XQAG9xo/HdWjUcxhbR3rlRVDjNvdTmJe1Bfxb/nW99LmHW+lZcvLO7bNpXtTVcTvMwIvONJjo7fTd7/z5bRjW/9c+ujP9FnOvn85nTz1z3T509uFkT527NgzvX8mHkw/Hz58eFKXpu4FDcwaelYAg1f/q6i3UydTJmr7FBdXvV72nueRgfGZ2ZHs9AEpzTozcSg5hR1p/Q7MRQCjlTFHH0jQvhltnQ1WQ1tvg1u9S7IoOv1hfQAkKFxqUTT3yZ3D+BaCv+pW0Rhdg3WvvmwqqOJAvLbLxMaXArlHgpamBfl0y7MCmP8CAAD///Zg+OoAAEAASURBVOydB4BdV3Wul6b3PhqN6sjqVrHl3nEvsbFNx4DBdEMoAcJ7EAiBRwgtkIRgJ6YEQgs2YMcY4457l2Vbsqze62h676P3f3t0RneuZjRFc2du2dse3XtP2Weftc/Za/2rTjmkZodbT0+PbdmyxX784x9bVVWVvfe977VLLrkk2B0Tn726neaObntiW5Xtqm612uYOa2/vsd7eQ+ZuVJ+0/psOuaspwXd9mTJlikGalNRky8lMtYKcVJtZlGVLy/OtoiArOHLIT6ja0tllD2w4YBv2Nlpza7cdOnxtTnLXSppieXkZdtGiUls6Lc9y01OG7C9adlRWVtpDDz3k/mbPnm1f//rXxzy011577bjO58K1tbX28MMPuzGcddZZ9u///u922mmnjWhMTz/9tH3729+2e+65Z9Dji4uL7T3veY/967/+66D7B9v47LPP2sc//nHr6OiwL37xi3bjjTcOdthxbeOe+evs7DyqH57boqIiS0pK6t+XkZFhubm5/b8T4Utvb2//Wnbw4EFbsHSlrTznYpsxZ17c335jfZ299tIz9vLTD9ncuXPt//7f/2vJycnuvl966SV74IEHbNfObTZzer4tW1JuK04st6lTcy1Z61EitOqaFqusarLnVu20Nev2W0dnt82cOdO+8Y1vxPztsybAw4+n1dfX21//9V/b66+/bllZWXbTTTcZa2tBQYEtXLjQPVND9d/c3GyPPvqoXXvttYMecvLJJ9uXvvQle+tb3zrofjbu3LnTfvSjH9nGjRvdMYxn7dq11tLSYh/5yEfs+9///pDn+h3RSwHky8997nNWV1fnno8LL7zQ4LGx2riXlJQUKy0ttW3bttnu3btt2rRptmnTJndf8+fPd+/P1KlTbcGCBVZeXj7orbIdWfPAgQPW2Nhojz32mP3DP/yDXXbZZVZdXe1k0cWLF7v3jneA97umpsbJABUVFXbxxRfbU089ZWVlZfYf//Efg15jqI2bN2924+W9pU/Gzh8885prrnHXfvXVV+1jH/uYG89Q/YzX9v/93/+1u+66y+bMmWPve9/7bN68Y/PrKfECYAAk3T29VtPSYav3N9vanTXW1NJpPdpm+n8wwDISosPSp4ixJ6VMcUBmelG2zdbfnII0K87JsKzUFEuW0NiHSMJ61EO5el+9Pb2pyg7UtlsvYwlrqWkptrSi0M47odhmCsxEextPANPQ0OCY5PHcMwvH3//939uOHTvc4vH5z3/e3vCGNwgYChBKaOelHqpxL//zP/9jn/nMZwY95JxzznEL7pvf/OZB97ORBeBPf/qTW7z4vX//fnvkkUf03PXYV77yFfv0pz/NZt8mmALhAKZsxmw7RQBm8UlnTPBIJv5ye3ZssdVPP2x7t2+ypUuXOmE0ADA88y+88IIBtCsr91thfpbNnllg+Vp7WOcSoTU1dVhDY5sdONikz3Z3y/ECYMZj/hBk3vWudzmhqLW11QkRCGGAGZRDN0uYqZCAMVRjDfzqV79qTz75pBPsUObQEErolzXxWOsyz+eb3vQm27dv31GX+PCHP+zAzVE7omgDgKu9vd3xoyga1qQPJR4BzKxZs+yiiy5y/B5ZhPflueeec7Tu7u52oASQA7BJTU21fXo3wluhFAMAmHrJQ11SQOzZs8defvllW7FihVNSdnV1GcrikpISt2/v3r1O3qEf1vdTTjnFgf309HS74YYbwrvv/81ziWEitAGaUHbyfqP8BMjk5OTYCSec4Prl3f3v//5v994CqCLdEhbAdHb32IHmdlu7v8le2dNorWJSfYAhgC5THIOeMiVJEyVAc6jXPTT8dujj8G8eJP1/VOsHMslJlimLTEVxhk2VJaYkN8sykg5ZevIUyxAYSdbDgLWnXQ9dW/ch29OgMe2ss5r6Nrc9vGMenqLCTLtsyVRnhUmJciFiPAFMOC3G8hst3Yc+9CF75plnRN9ex2BPPPFEB2BOP/10Z0U8Vr+vvPKK0wiiZYDx0gct0ADcfPPNQ2pOOA7wgsUF7Ut4+9rXvuZATPh2/zvyFAgHMJnZWpQXLbclJ59pBcWlkR/AJFyhvbXFWpobbPumdbZ57WpLTUlyFnQ0aaEWuQDEPP/8807jhyIh0Vp2dralpaU5SylChwcwR56ApqYmZ5nGQo0whRDDM4J2eMmSJfZP//RPdv311x85IewbViCEuSeeeMKty/SH9WbZsmV2obTuK1euDDvjyE/m4r7777e3vuUtbuOVV15pFRUVhnBGwxL0zne+032Ppn8CCxHWow0bNrjn6YMf/OBRQ8T6wLuYn59/1L543xCvAIZ3gWeUBtjYIWUqjXdn165dDhTwG+vJYKCcfUHj3eGc++67z3l/8M6gOCgsLHQACMtI6DX4zfu5bt06dxzKW6w2gzUADADFeWjIIl8uUMWzOH36dCfvBEpf7oX1kIaiC2soigcPYAaj6jhsw22ssqndXtrbYGv2NlmLtGq4awFS0DymyHqSlZ5suRmplpmWqt/J2t/TB2CSkp2Vpk3uXk3tXdYsd7Purr59gdkmFM8AZEBASQIyqeqzIA8A02vZabiapUtoSLZuganmtnZrVF9Nnb3WLDDV3SUXstCODt+3ulJfU+zKFdPtjIoiS9f50dyiDcDAMAAKf/7zn/vBBwwTDRhuDLiUob0YqvFCr1mzxu699173srKA8CKfeeaZ9sY3vtFpIYY6F2b7y1/+0gA5MNjAdQ3mhHCENuTtb3/7UKdPynYAOu5nMFJoB60w0y5fvvyo8SC0cF+4oMVaCwcwjD8zK9vKZsyx8tnHNkvH2r0G421qqLG66oPuL3nKITenPMO4KKBdC20wPlyEAO1bt24N3RX33xEIcPuAeW/fvt1ZUT2AOTLtaI4RwnElwcKM4MWzgpIIIRQA8W//9m9HTjjGN9xd2tra3DOIBnm4xjURmP7lX/7FueH85je/sbPPPtsAnNHU4BsIqKwzvD/wDwTE1atXO5pdccUV9p//+Z9WIWEwaCi5Hn/8cUdPXPFYd4/Fm4Lz4uUzEQDM8c4VSgJc9JEdcLHnOTlWQ1HA+8n7yLl4k8DXh2rINliNsAotWrRogGJrsHM8gBmMKuO4DVDQ2N5pr8jy8twOIcymNrmMHbIMxZMkCcBky82rMDvFyvPSbHZBppVmpVlW5kCBDGG3SrEy2xs6bWdtm9ULDLV39FiHgExPz2GLjC4Ujj+cTAAAESOcIiDkPmXRcVYcAaSebqw8+K8dfW5AAgSLtLQku2JFuZ02u8jSBIyiuUUbgOHlhWn89re/dcwV2mFNQSOB2Raf6b/9278dlqQwIoAMzBvGgsZjuAZTv/XWWx2jwmIDswUwszBEU8wJQAswwr0xf9wnGkPMtWiLcMsgFij0njE1PyUNbFZmprsfaBlLQCYcwDAfzA3CFO8nQDUeW6bmCwGdZxDwgnbtWI1nYjDr4bHOifV95aJJhoA5IA5h4cEHH/QWmGEmldgplEG4k7DWIdjgdhK4Jg5z+oh2804CBP7u7/7OCWFofInH5TrR1NCA4+Lz05/+1GnDWffRgrN+cg/wJLwA/uZv/satrYydbQCan/zkJw4cEhNBjDGabcA0AA35IZ6bBzDDz+5oAUzQI/G2AOjRxsAE5w/16QHMUJQZp+2tAhmr9tTbS7saraWt11KSuy0rI8lml+RYWZYC7+XjXZSZJstGkhYIuZHpuuHayMBtTHDDWjt7bEddi+1saLPtVc0KvheQEZjBKoNr2LHAyGhuiXFgyUmVRai8JNMuWlhiCzXmJIeKRtPTxB4bbQBmsLu/Xy4IaPAQTM4991wX5D/ewjeL8a9//Wv75je/6fxcr776avvFL34RdUyIceKTe/fdd7sgvf/6r/9yJEMDg5DPH24ZMNt3vOMdbh8MGo0O4AwNNQG3BCxizoaOnBvtLRzAXH755U6ju379emedQ3sajw3BiUBpfJiHChqNx/seyz15ADNyqvE+/exnP3PuuriDfeITn3CKofF0hQJII+DjogYI/+hHP+oSoYQqVkY+4sgdidUSyzvJMWjENgBA3va2tznrC653vH9Y5j/wgQ+4YwCArKEoj1g/kTlQNpx//vmOpliZoCV9xSuQiTcA83/+z/9x4BpFEQH74wHmQwHMqlWrXIzLcP0CmokDxip4yy23uOdtvP4hIcfPf/5z587mXcjGi6qH+wFQvFLZZM9vrXbuX3OVyevEkmybmpvugutT5ZpFZh1AgQMMI7g+7mg96rdLf81yK9te12avH2iyfQrCb2/rVlxNt7OsjKCrIQ9xIErjSk5Ns7z8VLtgXrEtVRagnATLQjYkgY5zB1plMgp9VYGkFRUVjtGSVWc8G64V3/ve95yGcMaMGfbJT37SMahoYz4AELQyABKYJuCEduqppzotJ/6yoQCG/cRGvP/973d+7AguMFzMzoAAtuNeF+0tHMC8+93vdtla2E4LPqP9PkY7Pp4/GB6f4Yqa0fYV78d7ADPyGcYt5bbbbnMKGwTvCy64wAnxWA/Gq/FOYhH7whe+4KzoCPOss9HmZsU6SubK6667zr1rrJ+ssVhVUJ5hqSKTFLEGwVqJ8P7iiy86JQqxmQiqxE/yrnKfJIwB7Fx66aVRZ3Ear/mNNwCDMvAvf/mLs7ah5BvO3WskdAwFMCgJkCvmzp17zFNRTuJNgRv4Zz/72WMeO9qdN910k3OVBKx7ADNa6g1zPEBjs1JiVivzWL7iUcqVSScnPdVSxbydJUNIAbAw2uZcxfRPjxaqDmUOq2/rtH2NHbZV19pZrUDZlh5li5Ag6NzD9DHCCwQCBTEv2bkZVlGSYSumFzrXthzF0ES79YXbjAULDEL7d77zHWeyh4kQZIe5fzwbLgO4XZHukGsQb8M1og3AoJ3BdYHMPwgeME9og+Dxxz/+0WlVERJgvsTwwJxdIK2CCNHgo20l8BCtI9lJcCVDWwggoC98aqOxhQMY0mFPxAIcjbTwYxqcAh7ADE6XwbaiAPnHf/xHFyAMoCCWg7ih8bbGApRwU2NdpRFDSKr+8RAOB7uvsW7DykJqWZLIYCkCdOGuiRYcxRbKM3gBa27QcFUn4QxABdBCoPbvfvc7I5EMFifWZQThY2VoC/qKxc94AzC4bAEe7rjjDhdTSoIL+CFugVjBmePRtlAAc95557kYVXguySzgtzRkDyx5NIALykWy9gGCjyctNXwe93v6Jv4GN0ni1gDZPN8TwT8TKguZZC1ZSbqtW0AmQy5iuIkBEsYCWtzTMMg/gJMeaYbaFM9S19ZlB5QgYL8yi+1raLV9sv4cmpLa54ojDctRUEYnuxTMyYrHQTMqz5t8xePMKsqx6QUZcm/LsNLs9D73No07FlosABjM+z/4wQ8MEyyCOUH+x0ovOFa64x8KY//DH/7gmBfXwKwMoImmBpNkAWLBhXnCXHF5AJTgO4vAQNKB0LgdjkUDRDAqgf5omkgPTdAgLh2YqtkHwInGFo0AhsQJCDiJ0GDk4+leFAmaeQAzMqqyvrHOkRYZ1yhS1eMeNR4NSwbrJXUuEL4QzlhXyeyIuydrDWs5LrqT4UrGOoJQBThhjMF6h1suSiGEvKuuusrRB2s/jTTQ1LIgmxTeACQmQDHEfgAMdTsQCjkOzTb3i+snLrtYc4KMa66zOPon3gAMU4M8hMIUl2QSX1CPBYAPb+XZIV6MZ4ZnPHDpRRbkWeIZCG8AGJQD8GjkCdwq4bk8E4FcQb/wZxrbzzjjDAeYcGPDG2SohrcF4wptJNngPYPHEx9KY5z0c6EyBpJmGasocoMHMKGUG6fvLAzYWSIt//cBGaVHVoaxxo4uq2vtshqBmYPKMLarrtX04cZxSA8XIftTpghM6QHt7e5QvRglEBBoKVYxTNzESmR9wWKUrRoyQVzOOJEj4t1EO4CBcRD4iYaMl5BUllgL0GIcT8OSgRBPnzBxAAAvPczty1/+spGbnWv86le/cgsKGrWJbrh/sZgyvlDNKEJCUCsHDR+FObGm0O7S+P8oLRJB+wgPQUA3izDJD4ghYsHENeJb3/qWC/6nfwJXyUEfrcyWMbM48ywgqE6GBQbhhWQS0JY/mA40ToRGrBQCJ4IfCQWiLRCbOfAAZmRPIgoO3KKI42AusY4ECiGE9DvvvNNlNkTrTJwcyhCE9aEaCUVQhrCeovFlLUVr/Vd/9Vfu/UDhgnUb4Qlhn7ULIW2i11TWU6zTxAcibJL+Gdc5vrOm3n777e6dhhZYp4LUsygp4JNke2Qd4jlDTgGgYUnC+o2gSkHZT33qU+5YEhdg0TmWADoUPWNlezwCmID2eC3wLgBWaTy73C+ggwQOrPs8N1g5eBYCsMCxPCuAGlzFeMYBtMgVgHieKeQM1lOeH84LeDS8nr5RFmHp41zAEtfacTiVM/3TWH+xCPHc0RgL4IqaT4wVZRPXh+9jAQTEnHTSSW4sPo2yI1l8/AOQ4QGU0Ud/hwRg9ECpxktz1xQV0lR2Iy167E9WVrK09DQd1GlFWSk2UzVjCpRMIEVIi7gc919sGF0GTFy0A5jvfve7TmiF8WBShflhfg3aww8/7IRJXlQWB178YwlXvOD4LvMHKAKkkD0Gcy4CKUwMQIB2Axesf/7nf3YvfqjrQHDtSH7insDi+cMf/tAtTDBCfGJZWAF1ZGlj8UKrAvgIXL8YNwsi98nCF2hoOB+hgUUTgeP3v/+9E1xgzkG8T6CNjOR9jbXvyQYwzAfPIEIK4AVhBhCcSA1wy/uCdhnffpg5jDpamgcwI5sJsi1S8Je1jvXikksucdYHwCkKG5KXsBai0ADgAGAQjlgjWRMDZQkaatZQNMpoqvnjPaURzE4QPIIVsQW4sHA+4IHrTcZag8UU4MaajhCJYIdQxxhx+2JdxGJC6lrqb4RasIejLKmXcTkmCQxeI7idoWg7Fi8ars9o3x/PAOZYtIe38n7Ai5GfeOaDFNycB3/gGUAmAahg6eS5I6EF7w+yBMog1k8ATFBLBr7NX7hSDD4TgJxgXPDx0HeIdRjXsyCsAVcxrh9YeYLzAFMewATUiMNPQEwAZrpknQHA8BuQkqEMYxS2dEkE9IBqU8y3aAcwvPy8+AiOCFBYHLDC8AJTx4CXkZcboQpmywtLQDv7+R1YLhA+8W/mD19lNIZBow4CGbsQ9n+uDB0wW7SPMFu0iGgUJ7phAeK+MT3T0KagLQS0EJQPA6ayL7E6AJDRACwEGIJUAUcsdCyuZF6ZjPt0NzeCfyYTwKC5hUEBHElXnV+YJffRJMvJy1QtmvQRjD62D+mQhZqsjR2KHaxXRsckS3HuB7jaTLQW/ViU9ADmWNQZuC8AMWRehG4ohXBZ4TfPOiAFoSjQ8AJiWA/5C1xnsOSgUGL9ZZ1lvUWAQluMYgS3GkAAVkuqi+OixXo6Gc8MQiDjwHKLYgjhDosqwihab8aJgoe1lOea+x1NI9YHpRD8CF4DPUk0w3VoKEAQTAFNuEHHQ0tUADOaueP9wWULq95I6sCMpu+xHOsBzAiphtWCFnyysAXoMOgi2Bd8Btv5DI5nH3/B7+CYYHvwO/gc7Dj2hV87OD70M+gztA+2BS20j6G2c+xQ+4Lt9BN8Dz6Da/AZev3Q7ZH4Hu0AhntGs4frEFleYCwE8QNYcH1AqwZDZDGFQWCJwDUA/06YbSCUI7CTihnmQh9BYCXmVgRUrDswORg74AVGBqgJnfNI0H+wPhkHPtkwQBY9NKMwQEALY0W4QJvJ/rccrnA9WD9DbcPNA60oVhyYN/cJrQKNDnQEMKAlGs+sREONZyTbJxPAIOTwDN551516dlLsjDcscvWoZlaUWrGyDcZ7a6xvtVbV1aqvbbb1r+6yzev2uVtGeEUzP5bg1kjQzAOY0VGVtRBrC5aDwFLL2sKcsr5imUDhwz7eAeI9vvSlL/W7RX3/+993mRpRnmCtYT9ABmUTFm7WVkAQ63Gwno5uhON3NPcAOCPeB7DCekcjrhLXVIAGLj5vfvObx3zR4BrE+KBVB8QEfAb6sa4T+zPeGTTHPODjPNEDmOEJ6AHM/zrFH2vK+973PleT71hUmyKBuF/i5gEL/MYxa+Eqg/k20g1hg5cVoSsYDoshi1saVgyi39UQxjChcXx4gymicUdLwjF8Z6FkQeR4+uYvXMDkOpjtOJ/jEMa4DufzF358cF3GGfSJgMuxgfY+OCb4DIRlxsZ1uF7QL/0wXq7J+cE+6MFYMNpk6D7Yz19An6BvPrlPxsC9RrrFAoCBBgj0gBC0XJhuadAIgIJrFbTFlQGBHPrBJAjADwAMVgYADJYN/JZvUjpBGlYONIjMPc8OJl6YLVaZyWqMh8QFxOLwHHIfaEWxvMAYAVgE5B8PsyXQD3qSSpVnE6tWEKTN9Xmer7nmGrvxxhsniwwDrsu7HKxlCKoTGQODqwzzsW//Ppszr9SuePNplicX0kRse3fW2B0/fUJZG7vtoosucgJZtIBcD2BG/0TyrmM1IKifhgsViiFi5WiAHFxqWSdYGxHOiZmjsX585StfcZYX1lGUQAHPok/+4H+TDV7g1wTYMw6C9FFucb9YjHbIcrJasUCsd2R+Ot6GGxrKNtL+42ZEC+QIXJyJi2E9j4fmAczwsxgKYPAmCWqvIWtMZIN/YhV94oknnOsoWMAH8Q8xAwiR66XJflZCZyDYp0vYLCktcWbl2bP7tHYsno8q8K9dwmdo4xwQG4ImAvZL0pIsXrzEzj6nrzgU2gwWIkzC4Q+C005roZ0vMy3+vatWvWgHBd7mnTDP5XBHWx+MKbgmIAIwgj8vGie0MQiJgak8OC74RNNCtXiEyQqN8xylx8tWv7SW1hZ77tnnbMeO7Tp/up2y8hTLys5y412//nVLUSzNG8T4uXf8ZhG8QxtjO1OmbMzvOdIURbrFCoBhjvBThvHgukAj/S9V58meha8xc8J+UiHiw4zGLbAqUHQMAAOTxT8ZCwYNUIA1AreyiooK5+aAVSNgxO6gCf6Hgp0EgfJ8I0hwH7h6YR0CyKHVA1wczxihJ+kVYaiYlUP7Yl/g8uEBjLlgZwS3NCXsuOadZwrElKlg7cQyoAl+BIe8XIMSnLz45EZb/cwWp01DERC4yQx50gTt8ABm9ITmXSeeKwAwZCeC9wY8MgAwZNRyvEk1o4LYENymcMcCCIQDGAQmhCV4MIqW0PVl9KM8vjPg18T8kMQEeYH1FJ6Bwob75482XmNElgDkweNpfEfRCa2wbGFVj4fmAczwsxgKYHBRRFGIZW4o2XL4Hsd2BONAEQEf4/0mgY8HMEPQEmsPAuEvFE8QmIOIG0kViMH/8yr5wSIgbdiw3m6RH351dc3AnrSgnCSz84UKUN4iDdD96us8BQV+UCZq3GkAGXcqFWRoHEPQAbEP75afK8LtGrnKoDmtlCm7QovI5/72cwIcFUe5PLCAYTVhcp+XgLhMGn1iLYgxCBbyoH9SMN8rV6Z7VHODrBE8DG/SAo1ASePe0Ty9+MKLtlQZXK644nKn4f6JtjXoITr11FPsRqHfe+/9swNvgTUh6D9NGnf8JVlgA/NzsC8Sn7ECYLh3wB5C/M/1XNGCLC+AUhgTWXV4SWFQWF7wZcaCQWMfVgdysQNk0CbSAM9Nmpd7773XnTNZMS9uMPoHS0sQDAqDpeYLCx5WpcCqyb0GlqXgvLF80h/uZBRnC5g4fvBYo3iOcXcg5Wo0tMmywKBFRbFBbYCMrDT78Oeu1CeW3GigysSPoV1xMJtf32f3/e5Ft46iTY6Wmh4ewIzteeDdCqwFuOAGFgN6CwUw/GY9DQR9BHW8CODlvCNYW0Jb4F0xHmtVaL+j/U52tK8qlhANOGNnPYUHROq5ZS0l6xRxi4A9wAvuuqRYZhvfoVkonUd7T9FwvAcww89CKIAhNhflO8H2yLEoqfGI4p3CzXI8G94oKHwB0QB4+Bfv+Lx585wLOgpSD2CGoDhCMUX1MKUWy49+hTJ98BLjb4rAjnUD4mGZ+O53vmsN9Y3KBrLCCewpSkVMmyNtOJq9p7To0NfFl1wst5lPOv9bfGufk9YY7TmT87o01YVFhXIlWuEejCCDCKlif68Ujq0CJywkaOEvkGY+cJUJhs+Cw7jIeEXObsZHBhEeuFAAw3HVegB/+uOfCDw97L7na8FHKP6s+iZmAMEPd6VntKCzQC7QH4ALi9Q8CYeY7li8bpNgSkwH46JgUn4+9TcOWYroRH+Ap/BxBuMdz89YAjDcN8I1c868YJIPZQIBgCGTDvthxgGzZX4BQAjlaOMCLWJASxYWjmUOJ7PxrJMlB2bLGCn8xnMZqXERV4P2FM1g4JLHe8s23EmwTvF8TnabLACDdpq5ILVspgDMzV+4WoqYvjXqeGjy5COr5EqaYfMWzrKikvz+rrq6uu2he59R0Hy3nXnuCqcA2rZ5t3O9Pe3sZf3HBV9eWbXBdm3fZ7Mqym3WnHJ75vHVwa7+z6KSApu3YJaVzzz+Kusd7V22beN+u+d/nnf9wwjRwEdD8wBm/GcBEELiCiwwQ7UK8WoAQrQ2QBiggT8UYPBVnllq36CwGk5RiCWcmB5ogYIJixKuQIFybLD7xpUM4BbwJxRBABjceIgdw9KFUiqWmwcww89eKIAhnTgKduRXEhDhgcMzxCfPJHFk8OCgkZBoJGm4eS5xr6ahpEVGQt7h+cL6h4svfB6lPAkFsADiTukBTEDpsE8HYOTGg/DDQvEhufkg6AM47hOoQOON/zQWiltlgamvb7AzzjrTZkkgZQIzMjJt4aK+/Op3SXC4W0LdpZde0g9gEERrJXBuV7YTgAzpINEcv//973egB3cihFkCFFl8sAIRTYLrFi5HWIFCXc9CAcxjjz7q0DBWnHAAw23iwsN9Yd1Bg00/PCSf+vSnnNWnStakHwrAALy4j+ycbKuRGR0B9P1atHAJ4mH9vtyYEFYRsgFMZdQ1EUDK0qIHgIEphGu0uP54t1gDMMe6f0DIY4895qxuQx2HUE4RyGhtvCM8t1iEYJYwV7KPYXrGBM3zcqyGsMGCSOP54dnk3QiAXPi5MCFAN4tc8E5gicTEjPsdzDaoERF+7kT+jjcA88VPft+WLJ9nl199rk2bUdJPyk5l/Prlj/9oO7futRs+cI1lZmfYvXc+Jk13t/3NF9/bf1zw5fe/esA2b9hpZ55/ki06ca794TcP2r5dlTZj9jRlSsPN7ZDt23NQjDLNLr7iLDv3ouPT9HkAE1A+cT4RiIgDG6phAY+UNWOoa45mewA8cDvHOo+LLvfE2kbigaFcIFl/yTyIIhR3caxNCKQodFgTAT8jTZOMspKYxh2SWYi1YY0NV6KN5p6i4VgPYIafhVAAE2QhA9zyHABkkCH5hGfzLPHM8bzS2Bd8H+pKhEzAu1G00fgNHyfdPQpe9iFvYkAAIOGhgmsn3isewAxB1QDA/FyuPiefvNK+9OUvOUIyaQj3BNThtnK6BLJfKp6hSgI+SBPhDI0FBH+D3MdOkhWCGhfhAIbLAjrQuLG4/Ie0Q7h9IZgi+POAYDK7/be3OybORPKAsNCSfYQc9aGC4EgBDCbz/1LGFoAHiJY+Ors6rUfbr7v+TU6rgoaF9LQ8JMQC4TrHQ4VV6JMqcsW98YB99zvfcf1wbYTUYDwIje9VtgYWSQ9ghnjAjrGZF5nYjqEasSRoz6K1YebFYoclEOYJYKbB8LDGDKUtJDkBDPrPf/6z0zJyDsoAXBaox4BL5UhdOQDoWH1YfLEYUttgslu8AZh3Xf05gYlT7S03XH4UgPnFj/5oa17aaB/65FssrzDXfiVA09TYYt++5XNHTcPP/+Mu27ppt1105ZkOwNzxi/tt/Zot9q4PKi12rjS80t6s0+8Xn1ljZeUl9vl/+OBxpX72AOaoKfAbYoQCrGdowYmFYZ0dDsBgqUfgQ14JbyiTbrnlln5X5PD9/MZTAIEUpRL1ynBlgz+hQMWqG16jY7A+onmbBzDDz85gACb8LORKnhMaYAZwTUOWDICJ2zDIP8i0yDRBQ44GrGDpGQwgewATUOoYn6EAZqUAzJe/8vcOwPBC43uKdYIFgL9fy92HIHsEd0xeCPcFslYQA4K2/DfSmIQCGMAIrQ/AVLn4mFtvvcUBmL/74hcdgHnmuWd13m/sZQV1z1aMynmyeiDYoaF/m4RAgrQR7AKt9FEARi5eZDnCAhM0BCgesu9859sKFn/Zpgl0zNBY6HOHYmGwogCgcAEjO8sTEkB5eHGWL5YpkLgfTNY8cLg3BQAGrU6eQE1Gerq7Jx68jyuDFpm1JsLEHE8WmGCu4uETjd/PfvYzp7XjfoYDMGgW+cOCE7roAWLQtBBLE7w7g9EHZQCWGNwtAOgoBnh+sf7w7kx2SyQAgwXmVQDMJ8YGYDas3WrfulUurUV91rrdO/bbb//7PsMV7du3/q2UJWOva+QBzGS/Cf76Y6UA2mzSoWM9gW+TBhoFDTx3sEYmS0AMqfoHa7jVoVQa6nxAyz333OPigVlXUVKiBad4JgoiFJux3DyAGX72RgJghu9l/I7wAGYEtAwADAIYL+ynPvVpKy4pdgHDv9WCsEOWGGJRXCyIhP06aUOWLV1mU6eVOa0xLzYvOabd38mSQlYprCY3yUUs0EADdFxauMefkH/uEQCDGY4sVXdKe90sKwkBUwRso9FGQDtR48EdB4104MMaDmAY8/Uy8wIiaFMUG5Eqy9Cjci/7mbTToGRcc1i49uv7XgEbTHafUqEutCsEYT8pCwwvOBYlQArBUzfLbIf2H0349xTngKCYKUCzWG52hQI5NBY5gs/p31tgHEkS8h80hAAHYrFovEvXXXfdkLEw73rXu9zxWB8Ha7hN4L4IgB6sUbuBP941AgDR3pAphXeB+I/JbvEIYE45c6ldfs15WhsHxsA8/Odnbe3qTfbBMQIYLDCf+fL7pBjpE5C2Crg89ZfVzhr9ub+/SWvS2DOoeQAz2W9C/F0f/ggvj2RDy42ShtgDEk+wvsKnWTeH4rOst/DooRoZGvHoQI4ZrGHJRmAkPgHlEQpZlKf0Gw/NA5jhZ9EDmBisAwOAQRAiEBhLBYITKYEfe/Qv8iXdb3MlnGNhQej/Z2kiWLxwKeMlJ1MZFgpMYYARzK7/KzCCQH+qgAiC1RQ9N1hs8O/bJ6vOrTLlEk/zZRXZItMXMQQE0QNyiL2hz/b2Nmmm65zWAxctsoYF/qvhAIZ4lWXLl2l85e4JBehUyDWNwP2nn3raARNAFv12yU+xSeNnTJdceqlz1yFY8FktlNwDQiDaF9zkEAZvUtpRQAxjxi+Wa2HpAQwRqwPgAXAFVYzdACL4j7fARJC4Y+yaGC+slQBmgj1pZNzDDZFnerDGM0Qa6aEa2kSYLfEwgzUYLX9cl2cSZouvNpZFlAmT3eIRwJTPnGrzF84ZlLQbXts2ZgDzugDMspMXuGQDrG2AoaTkJHv7jVfaBZeeLsszq9XYmgcwY6ObP2twCgTuM1hGItkQJMm4iHsx6yQyxhflsRHEzQ52bZRHKG8Cl57wY1CEEgw91PqIJwbu5JxP3a7PfOYz4V3E9G8PYIafPqdklzIbqx8KSZTiKBGD5A7D93D8R8A7eQb5g8cTTvGRj3zEyRPH3/uxeyAbH67wZOuNmUKWlQf7spDd9h//6RaKZFkwWDB6xUy5kWulgcA1ZbPyopNxCctIigQzjgnaSmk1LlaKObIq3C0i0JIl3BOMz3Gz5sxWTY9zrVBAhoXCVWZXJhSACxk/goKF5+s6ZDtD43LP3X90pmNSMqN5CVzEAgDz7W9/21lOeOhwLyN+RRdzD9xixaSgSamTDysLFmnv8D2sq6/TwrjGZVgrkuD3aQmJj8h0zCJJJrErr7rSAbTb/vM2FzezXNs+pIWP1NCPCJxh1kYodXeua6Ur8Br3NbJlTUSucA9g3KM1on94TlgM+Itkg9Gi+cN1AQZIG86FjLo2JK5gjIM1GOinZSEcCsDg2kktCKyDMHaewWhq8QlgymzBIgGYI8ueI3lv7yHbsHbbKGJgdtnFV55lCxXETwwMAGb5KQu1fiUp856CRPdWWWtLu63Qtre/70pZe49YfEY7xx7AjJZi/vhjUQBXWbJGkqFrIprj6+Lt8H4EKvjsUEH8v1VyoH/Vuohbbnijn+8ojhU5Yig+zXpLgiGUnay/KJDiqXkAM7LZxKUbV0WC8nE5vPzyy122XOTY4I+eQuXfkfU8+FHIAMEfRyBHEEtLFmDkCYrPMg4MCJFuMQlgCHBHmHpAfvSipJsYBHMKWS49cakBBvJkSdkqVxXACcHuLtr0MDVhvKQfPknaX/JYEzPDgtEn5HPQFGc9weqSlZklYe9uWWjmuUl5/vnnXDAzDwPpm7HsYEHBTI3FY5tASEFhkV2oJAEnrzzZXZHJDvavXbvG2lrbBlyLoCjACkW56PdcZQnDioI1CG05iPaPsjh1yUx9zdXX2K5du+Qm11cjhmNB3OTJX6VUjNDhIl17j4Kut2osLssEQufhmwPsXaKYBczSBPxHunkAM3IKM6+4JxJPEsnGs4i2BKG9790YHsDgzw2QD9Ipho+P2kRYVEID/kKPuUmWQfy1WdQ8gDlCGZhPJNIoE8R/5vkn27Vvvdimlve5j3JVspCRSWztS0dcyH5x21128ECtfe17nxrgbsbx//KNX9je3ZX25ndeqgKbMxyAWa8YmK9+968tXwkAWNt6e3rt6cdetoeVnvmUs5bauz94DaeOqXkAMyay+ZOGoMBEAhi8NrCawFuxMOOOjvvYUFZteDNWk9tuu+2o0WO5oSwDnhJDnR8AGI4BvFx//fVH9RPLGzyAGdnswccBESi1sUYgCxLfDIjGwwHlO3Ilv4OwhpH1PPhRpArnWsh2GADIaEq/AHayAiP78uwP9dwO3uvYtsYkgOHBxhe/Sj6nQcN6kpWVabk5uS7uA0CCcFZZeUBZvHqCw/o+NZloLYgHQZALgEOoopKCjwAIJoGYlGyBhHIVB0LgwFycrIr3AADqw/BwwMiZUKwrWHuK5LIVChDYf7DyoDU2NToXsdBruRgYgRgQNONGCAyuzcNJzm1cb7hvHox2LXwuD7fGRKYRzIXQg3TKGozb1tnZoWPaJFwMvHf050Hqu4kwM3oAM/DRO9YvCpcSuInVMNINrR5pOnl23/GOdzjAjJshYHqwxjwCQgi+D20waM7/ktwr586dO6TpGncJTNww9s9+9rMTkmIxdJzDfY9HC8xQWcgI4icLGTEwM1Xf5b//8y5b/cI6+/QX3muhtWA2rttu//7dX2sty7MPfPwtchlLdQAmPIgf2gJg7vzNQ6oXM83+5u+OTsc8HP2D/R7ABJTwn+NBAXgq/H3nzp3j0d2gfaC4/Kd/+ifHdwEVpE4eqQDHmk/tDGIIiaEJ0kV/Qq5jxK4OFT/DQAIAgwyD6xDWnmuvvdYJrIMONMY2egAzuglD9oRP42GBnMqzz3OP/EpD5iXcAPlvNBnqkDU5j2cM+TSwrKAIZR8yA3FXyBTIrVxnImRL7ikmAQwDR+DgAQ8agpizouiT7zR3jI7DShPeOJY/gEVoP8FxQX/8Zj+/ATP0yV+wnz6CxnGH5J6BtSPoP9jHJ/s5d7BGf4yFcwFHof2yvbun2xmRGAO/6Se4BufyO7gPtnOM62+Qi9EH5/AX6eYBzMgpDOCmoBlxWZFqpN8m4URFRYV9/OMfdwkd0JoMBVxCx4EfOdoW0n4yrzBX4q7Q/qHlOZZ2JwAwLG4kzAA88YnLZzQ03h+sSxTZRJDAxW0i8thH0gIzEgBz4or59uC9cov99YOWk5fl0i6ff/Gp9swTr9jddzyiRCUtdsW159sV15wrBYnSxx9Oo/yxv72hP4i/trreHnvwBZdO+c03XGbXvu3iMU+pBzBjJp0/cZIowHr9VbmXUxMOUIFVBUFupC0AWAiDxAfSSNZzrPWUY9CC//73v3dadwRVqq+TeZX0zQAh+HwsN+QZrFBYFwBmF0qzP1RGtli+z/EeOwr2NoFaFN3wF8IbglYrWmbJOoPCm+eOhpcPiXVCGwAckIOSH8BCHyjWkRlRzIcWxMQDiBjyyWgxC2Amg1j+mqOngAcwo6MZWhQWnUi1X/7yly7ehUUHZjtav2kWuk2KLWNBYxEjkQTxMaGAe7Cx4z5G7SSSBeA6AYMm0QaFX4fyER+sn0htizcA85kPfVMxKYvsqusuOKoOTKgFZsWpi1SIssoef/hFe/rRlyw3T4XLygqtcn+N3Mpq7KIrzrTLrj7HymeUypXsYF8MzKubbcmKef2gl0Dp9vZOK51aqOudryKXZWOeJg9gxkw6f+IkUYD6WAQvs76xFrKmAmCoz4IASOFo3Lwi0ViLce0lxT2xvqyrrLGsy8OtyZEYz3j26QHMeFJzYF/wb4AODUsKHj6hDSDNM4wrGhabaG0ewETrzMTJuDyAia6JxEeWGgEwviuvvNKBGEaINoYAexjgUEGjx3snzz77rH3ve99z7hLEsZE9kABbrEGT3eINwNx/91NWIiCycPEcyyvI6Sdvt9xpX3h6je3dddDOecNKgY2pbl9NVb2rDbNtyx47sO+gtG1FVja9xE4/e5nNnNMHSOrrmmz1868L8Bxx3eXkrKwMm66MZycsnKlU9YPXvOgfwDBfPIAZhkBxsJuYTrJ1hQtN3BpadlxREZxQ5uBjj1U6mhv127DCEIyPhvriiy921hOADdrqT6nANJXJx6OhLICnohXHwoKyi8BpXI9xJUMpRGB/PDQPYOJhFiN7Dx7ARJa+Cd97rAMYkjzgpxxoK4IJRbtFsCZmVfw9cf/iuB2qQRTN7bXXXnMpyMkaAmDBNE9j7JiMP/rRj/ZvO977QLODEBK4RdDfl7/8Zeemhdn6zW9+s1HLIBpavAGY46IpHreR9y4ddIgewAxKlrjaiNsTGQkHS20cmgyEtZf1AfesWGqsowT0YxFBUUNtln/8x388bisMlusNGza4OEQsOvAeQODPf/5zlxIf6w/Z1oiFiYfmAUw8zGJk78EDmMjSN+F7j3UAAwOF2aIxDG34J1NF+VLV5sHUSvwExwVpiUOPjdbvaAsBMWg7MSkDOD7/+c+7Qmwwx+NpaAMBRWQLJC04/RFUiH84cTS4VeBq8cY3vvF4LjNu53oAM26kPK6OPIA5LvLFxMkEvVM4FwtFePvWt77lYs9QehB8DNghA2IsNJRarKdkfiKLKHW2KGxJrCAZGkl0Qi260TbWTRRoZH8C4OEuRiPukJhCLECs4SQP+MIXvjDa7qP2eA9gonZqomZgHsBEzVTE50BiHcCQ1hjzPJaL0AZTYh/FHwEwxIbcouKhkU6BHDqG4/kegBfSgJNeETCGa8esWbOcFYZ6QxkCaWNpMB4CTAF0AbPFhQJGSwIA/MKpW4BrRbQ0D2CiYyY8gImOeYjkKLAikChjsIZVG6E8aLi2IrjHQgNEYAUJGu5v3/jGN9zailWGTE0U3x5NY10iAxSCGms0irQggBqFE/sBTljSv/71rzvgNJr+o/lYD2CieXaiY2wewETHPMTtKGIdwOB/DbNlMQ1t+B9fKH9tguEBAzASQEysMFt8s7GMcB+4wHGfZK/BraNCMSnkdKcg1VgasS5YotCeoj2kYbGCRtCRDF9YetBSRktjbPGUhSxa6DracXgAM1qKxd7xrAHDZcgM7or3kr9YaaHpY7lParxQxBcL91gADOCFBAG4ieF2C7jDzZf2m9/8ximFWK/JKEl6+ljPPBY6z9DPZyELpYj/Hk4BD2DCKeJ/jysFYh3A4HfMQjpYw10A8BI0NGIwmVhoMDo0hkHjPv/f//t/zqqERu/GG2+0b37zm8HuEX2SGAArFPVe8P8G3JEogPSi5KaHNqRbBLzcpEJtY7XwjGgwozzIA5hREixCh3sAEyHC+m4nhQIohUiaQlYwQAYCedCoqbUjLGaSNRkFTwBEsFZ95zvfcS53pEZGqXTJJZe4Lgjgv++++4zAfhIHhFp/gmvE8qcHMLE8exMzdg9gJobOCXuVWAcwiTRxN998s5FmGZABsw3NnPPAAw8cld4Ztwiy3gQNkEKQPj7uaAXf/va3O0sO2keYLQXbOIe4F1xFoql5ABMds+EBTHTMgx/F8VOAiujf/va3jRTyuOlS7PLyyy93HWNZ+drXvmarVq0acCEsLMQGYq3BNZkkKLihERuExZyUyWeffXb/Ofv27XMKNmKGQl3v+g+I4S8ewMTw5E3Q0D2AmSBCJ+plPICJjZknK9kXv/hFe+yxx5w2j4BTtHoI9mgJ2RdezZp0y8Sy4EqHxhB/dZgvcS+kSEZbGDBsqIB7HS4WpAAlDiaamgcw0TEbHsBExzz4URw/BbBGEz/JuseaR2Hcs846yxXvRfAimQlCOhnLaCQ+IasYSQBwv4V3sqYS+4JiCQsMoOed73zn8Q8uBnrwAGbgJNWp1tbBNhVRF08uyki2wsw0FT0/4gEy8OjE+OUBTGLM86TdpQcwk0b6UV34pz/9qQu6p/ga2W1uuOEGu+aaa2zJkiXOqoIPNsw0tAFCsMDAXAlYpZI07g533323nXPOOQ7AhFpoQs+Ntu+TBWCgGeCRhBDpGal2/XvOsRlzii0lNbaraI91fhvrW+2lZzbbi09scjU0KLY6b968sXY3rucRC4cV8cEHH3TZpNCM++YpMBQFeFawXBNfyPpI9XMs0xTupWYMiWAIvj/ttNNcFyiKsNjQyCaGwqimpsbFVhKfB4DBzfcd73iHOybe//EA5sgMEzP23O4621zd5uLH5hdn2dJpuZaXnmJJUxIXxHgAc+QZ8d8iQAEPYCJA1Ah0SSE2NH24PZAtjPgeAAxZ1nAno54Brgv4ctP27t1rBOsDYtAykjKUVJ+kTSaZwYoVK1yRzA984AMRGO34dzlZAIY7wfWO7HUdnR124srZdv7lyywnN2P8bzLKe+zp7rU9O6rtwbtesrqaZlu+fLkD0sEzN9nD9wBmsmcg9q5PKmjAysMPP+yADJkeASUIpH/1V3/lUtazxtJQHr31rW91WceCJAdYuXEPI+kKSqGPfOQjDsjEHiVGP2IPYPpo1tt7yCqb2+ze1w/anqoW0087YVqOnTW3yOYVZVtqctLoiRsnZ3gAEycTGa234QFMtM7M0eMCeKA1xIJCumMYbdDQHP74xz92dW/YRqD+TTfd5IL1g2MI2gf4EOdCjAtWnGip8xKMcajPyQQwaFepnr1ly2YrLsuzi64+2aaW58vdLnGsMICXutpm27hmt7345CY3TQBoApZ5nqKheQATDbMQm2PA+sKa+rvf/c5Z8Ej4gpsugGXq1KnuplAK/eAHP3CKJIR3amdRZ2zRokUOtOCqm0jNAxgTWDlkLZ099siWA7ZuV6MKZnc58FuYn2ErKgrtrNlFli/LfaLaYDyASaQVYRLu1QOYSSD6cV7yFVkEfqT0nzBbspPRSIsMGCkuLna/8euG2f7qV79yv8meg8Yc4IJbxAUXXOC2x8o/kwlg0NI+8sgjLv6ItNOlAi9LV86xgqIj9TBihY5jHWdjQ6tt33TAtm884DL78TxRmA93xtBseWPtfzzO8wBmPKiY2H2QiZFilMS7UNxy/vz5/QQh/iVYT9n4tre9zbmc9R+QYF88gDHrkGJnW22r3bPugDXWKyNqNynIzZJTkmxmabZdsLDUFpbkJKwVxgOYBFsUJvp2PYCZaIof//UQ5knNiWANs6WRoQxXniBtNAAGqwFMhkZtglJpEpOVgpmAflIxx1KbTACDuwhZ2kirCpBhLFMUnJlIWjXxZDsk3whogVvihz/8Yad5pn5QtDQPYKJlJmJ7HKytPOfh6yTb2Bc0Ep4E622wLZE+Ex3AYH2pbeu0BzdV2qa9TdbRpucG/zE1nouMrFQ7YUaBXbWoxIoU0B9bHHd8nmQPYMaHjr6XISjgAcwQhImBzTCQuro6N1Iy5YQWaUOTSFxM0PDTDmoXBNti6XMyAQx0gtbQk2Bf4pBIn0rShFAaxxI9RztWnq9Zs2a5P9J4E0NFxfFoEuA8gBntrPrjPQXGToFEBzCtXd22qarJHthYZY11bdbbg4Knj54ot5LkYlxcmGlnzCu2U8rzLEO/Ey0pmQcwY3+//JkjoIAHMCMgkj9k0ikw2QAGAqCBJSsZsUcwb0BiqEZ20okUwQGkpqY6VzHiqIK/CF5uTF17ADMmsvmTPAXGRIFEBjA9ssLvbWyzJ7fW2OYDLdYpS4yzUIdQEuVOurKQzVBA/9VLptnUrDRLSU4ku72ZBzAhD4T/Ov4U8ABm/Gnqexx/CkQDgBn/u/I9jicFPIAZT2r6vjwFjk2BRAUwGFnqVfPltQPN9tz2BquvU+axHrkWasdhA0w/4ZIEWHKVsfK8RVNtRVmu5aZjhUkcEOMBTP+j4L9EggIewESCqr7P8aaABzDjTdH4688DmPibU39H0UuBRAUwnT0K3JfL2PO7Gmz7fsW+tLZjnj8KvDBzWGFS05JtemmOXbSwxGYXZDpXskSBMB7ARO/7Gxcj8wAmLqYx7m/CA5i4n+LjvkEPYI6bhL4DT4ERUyBRAUxVS4et3ttoq3fVW7PcyEgxP1QDqJDwJTUjzU6fX2Snzsi30ux0S0mQYBgPYIZ6Mvz2caGABzDjQkbfSYQp4AFMhAkcB917ABMHk+hvIWYokIgApkvWl7UHGu2F7TW2p7rVerr60iYfa9KwwqQo4UlJUbqdr4D+hSXZlp2mDHbHOilO9nkAEycTGa234QFMtM6MH1coBTyACaWG/z4YBTyAGYwqfpunQGQokIgAZl9Diz25rdZe39None196bZHSt00WWFOnVdop84stGm5iWGF8QBmpE+HP25MFPAAZkxk8ydNMAU8gJlggsfg5TyAicFJ80OOWQokGoAhRfL9Kub78o5aa27qUj2w8JD9Y08llpicvFR7gwL6V84otOzU5GOfEAd7PYCJg0mM5lvwACaaZ8ePLaCABzABJfznUBTwAGYoyvjtngLjT4FEAzCbqpvsic1VtrOyxbo75ToWRtLklCTLyklXan2l2FdRy165m4U2XMaSkpNs8aw8O2NukZ1QlGOp+h3PzQOYeJ7dKLg3D2CiYBL8EIalgAcww5Io4Q/wACbhHwFPgAmkQKIBmLvX7bN1BO63DG59yS/JtZWz8q29s9O2Hmiy2oaOowL8pyjyJS8/w1ZWFNnpOrYwMzWu0yp7ADOBL2QiXsoDmESc9di7Zw9gYm/OJnrEHsBMNMX99RKZAokCYHrlO7bhYIP9ZUOVVda2WXdXb7/1xQXi65/klBRbKqvKGbMLlFK511bvqbd1uxtkiekiw/KAhqVm1tQcO+2EIls2NdelVR5wQBz98AAmjiYzGm/FA5honBU/pnAKeAATThGzOhVTq27rtSnikCWZyVaQmXb0QQm0xQOYBJpsf6uTToFEADA9inOpbeu0+1/fb9srm629vWdA7EvgFlZUmGVvUJ2XhaXZlqJYl7WVTfacgv2rVC+mp4tg/4HTlZ2daktlgblgfokVZ6a7ejEDj4iPXx7AxMc8Ru1deAATtVPjBxZCAQ9gQoihr4fEEZ/fXWcbq9rkgmC2uDTTVpQXWLq0e4naPIBJ1Jn39z0ZFIh3AAPoaFOa5FcONNjjsr40N3e4uJYAjABeqPGSnpFqJ59QaGfOLrSSrHS3Hu9v6rBVu+vtlZ11KnTZKaPMwEKXSclTbHpxlp0hALOsLM+y4jSg3wOYyXgzE+iaHsAk0GTH8K16AHNk8mCgB5vb7J7XDtjOgy1Oe7dgeq5dtKDUZuZnHjkwwb55AJNgE+5vd1IpEO8Apru31w4IiDy4qdJ2VbYqbbLcwUKAiAwtlio9vEKHAAA6zUlEQVTgUSqry5WLS21WfpalJydrPTajXszmqiZ7eNNBO1jb7urF4HcWGGIAP2kZKTZL4OUiWW7mKC4mOSkp7mrDeAAzqa9o/F/cA5j4n+N4uEMPYPpmEfDS2dNj967fb+vlY01AKa24IMNOm1di5yk4NEWMMBGbBzCJOOv+nieLAvEMYFhnGzu67NX99fb4phprE5AZAF5E9CnKIJabk2YnzS20c2R9yUs/EpAPUKmX69maffX25JY6a21qH3A+c5Yk6w3nL68osPMrii035Hz2x0PzACYeZjGK78EDmCieHD+0fgp4ANNHCrSC2+pa7Y8v77O6xnbr7e4LKHWBoaU5du2KcpueoFYYD2D6Xxf/xVMg4hSIZwCDBWVHbbM9sOGgAvfb+9ImB75joiyuY6npKVYmN7CrlkyV9SXTKY6wrASN4P9KAZ97Nhyw3fsa+4L/AxOMDiIjWXLqFCspSrfrTpptM3MzlFY5tIegp9j99AAmducuJkbuAUxMTFPCD9IDmL64l0ZVf77r9b22Y1+Ldeg70aHwRIqkZWal2oJZhfb2ZdPkjhBfjHAkL4AHMCOhkj/GU2B8KBCvAIb4wirFu6za02CrdjRYe0urrCdH3L+gHjEsxXL7OnVesZ0+s9DFsISvuKzLLbLirD3QaI/KCtPS0DpoDE2WAvpXnFBi58qKUyC3smR80OKkeQATJxMZrbfhAUy0zowfVygFPIAxa1dAKX7V96zdby3NqkUgLWGg0IPlJaUky5Usyy5bWmqLSnIsLc6LpIU+H3z3ACacIv63p0DkKBCvAIbA/fVVLfbMjjqr1Hrb3aEsYiFkBF9kZKbYghmKX1lQZmXZaUPWcnFZzBTEf++WGllhmqy97XAigMP9oXhKTpliOerj8qXlLotZVmqKSwQQcsmY/eoBTMxOXWwM3AOY2JinRB9logMYGGGlAvcf3njQtuxrta5O6guEstU+K0xaWrJVTM+zNy0vP+yTnThPjgcwiTPX/k4nnwLxCGBYUvc0ttkLu+rsNcUYth/OIBZK7WRZX8pLslTHpdhOmpZvmcNkEOuUomljVaP9ZWO1VSutcrcAUrB0O1uLrOVp6Wm2ZHaenTWn0KbLlSxelE8ewIQ+Of77uFPAA5hxJ6nvMAIUSGQAA0xpVAac11Rb4InNddYkV4RDzvoyEMBAdgJDs8QAr1k+zRYpJmY45hqBqZq0Lj2AmTTS+wsnIAXiEcBg5X5Z8SrPba+x6tpW61GMYWjDYkINlyUz8+3MOUVWrrV2OHddFE2tUjg9tKXaJV5palFa5Z4jaZXpM0nZy/Lz0u2c+cV2YlmucyVLwtQT480DmBifwGgfvgcw0T5DfnxQIJEBjAsorW+zp7bX2/Z9zdbV3jbApSH0CXEuCdIIzpcV5uKFpTY9L0PBpbHPCEPvcajvHsAMRRm/3VNg/CkQbwCmV1buLTUt9vzOWtuyv0lpkylAOVBJlCL3rnlKWX+aLCXzi7MtQ267I8UZ6ysb7XGBmH3VLbKgH7HCMDOs0CnKQrZQxS3PqihUWuXMuLDCeAAz/u+d7zGEAh7AhBDDf41aCiQygKlp6bDVe9EKKh1no6wvA3nqgDnrd0nISLOLlpTaSQIyBfo+UiY7oLMY++EBTIxNmB9uTFMg3gBMg9IeP7qtxtapAGWLrCS9spKENpRDubK4nKHA/dNmFVh+OuBl5MqhJlnRn5Rl5zX1X9+oWBgBptCWLCtMnhIDnKGimCum5Vlh5pG0zKHHxdJ3D2BiabZicKwewMTgpCXgkBMVwJA2eZ2y2Dy1pcr2VpHFZiDTG+xRgKWmpqdbeWmGvUHMdoEC+lMTIKDfA5jBnga/zVMgMhSIJwDDqvqKarY8LyXRXllIujuxvgykW5LW0NLCDFtcnmfztKYWKutjjqzd6fobqbvX7oY2uQFX22a5qXWQHCDsIsm6xuxpOXa66nktnooLcEpMF7f0AGbgM+R/jTMFPIAZZ4L67iJCgUQFMAcU7/L01mp7eWeD/LEHuh0MR+j0rHQ7d4G0hbMLrCgzbbjDY36/BzAxP4X+BmKIAvECYMAQHSoOfPe6/bZxT721tR4NXpgWZ2zRwakZqZatApRTc9PtxNJMWzytwAENXHWxyBzLJgMmwkXtBVliDiqgv6frSCbJYOpT01Js+ex8O/uEIrkAZyrGJnYLE3sAE8yq/4wIBTyAiQhZfafjTIFEBDAw1oc27rfnBGDaWntcIYIwpeAxqQwzLSxIs4sXl8nloeiYx8bDTg9g4mEW/T3ECgXiBcBA70e2Vtrq7bVW39BpPUNYuQEmrL8UsQTMYHUh62NeXpotk6vu0rJ8K8lKG9baXSdXNVI0v7Sj1trkHkyNmdA2RXilVAUyT5UV5rQZBZYtQBOrzQOYWJ25GBm3BzAxMlEJPsxEBDCbqpvsyU1Vtu1Ak/V2H8laEzwKyQogRRNIppxWMtuEuSPAcJPl3rBC2jyy28zMzw5OjctPD2Diclr9TUUpBeIBwHQrDmV3XYv9SdaXqto268IiMoyWKNTCApihqGVGapIVF2UruL/IFpZkW66AzVBuZd3KILmhqtmeFWDaVdmstMoDLT70n5aeYouU6eyC+SUjynQWpY+IeQATrTMTJ+PyACZOJjLObyMRAcw9r+21V3cqoLSVmi9HT3BBSa6dInDS0dHpAkMbmwavDVNYkGmnzS2yc5Tdhqw58do8gInXmfX3FY0UiHUAw5raoliXp3bV2uqttdbs0hv3uXRhYcHMwieKIdLTO7CCO1ffRgXhy6WXdMjqhz8ylJUoFfISFbg8UUH4ZTnplqKYllDAE8xjfVuXvbS3wZ5Rgcu2lvajYhuxnuflpNqJM/PsgnlTrUAuwFw21poHMLE2YzE2Xg9gYmzCEnS4iQRgYJgbDjbYX9YftL01bQOYm+Nh+ic5JcVOmlekWgSFcnnoUfBpra3dpTgZ1TEIb1hh5pbl2HkLSmxxaW747rj57QFM3Eylv5EYoECsA5gOWa531rfaQwqqr6pWcWBZQqbIfys5ZYplKsNYYXaa5SreJcV6XUrjNLlypShTGOACftTZ3WUdSofc0TPF6ls7rLaly7rUZ4HOm6daLkun59tsZRUbrCglyVl2KTX+M1q3NwnIdCmgH/80/d/fKJhZVpRp5ykd/jIVzCQRS6xhGA9g+qfTf4kEBTyAiQRVfZ/jTYFEATBo8mrlI32/rC9b5V7Q1j4wcB8GNkVaQHykL1lUYgtUrPLQoSm2dn+DPS53s4ZGfLiPBjE5Kr62QmDnqiVlYoTxaYXxAGa83zrfn6fA0BSIdQDToLTGz+6us1WKR5miNVShLArMz7T87HTLyUiW1UNZxlSbJWVKr6VqzQW8ACpwDSMFMq5gnUqs0qk1u761UwCm02qa2q2yWe68Scm2cFquna0EKnmDxLAAVFpl/dkkV7JHBaBqVDSzl+LEIQgGoJSdlWLz5Up28fxSK1Z8TXKMmWE8gBn6/fF7xoECHsCMAxF9FxGnQCIAGHgXGrwX99bZk7K+NMIIxSgDntZnfVHgqLSCZy4otDNnF1uRmBoWm32N7facgkJf3VGvFKBdR2nz8NOeIdBz6dJptqA4x7lERHzSJvgCHsBMMMH95RKaArEOYOpVqPJ5ZR2rrGu1/JwMm5aTYnPkblt4OGNjp9zDurT+dgikENffo+/gh2S5k6XoS6rWVKwiGfojAxnrcLXcwXbUt9uB5i7LFwA6RVYY4mEGaxxfI+DzuDKSrZWrcKfcysLXe6znRQVKhy9l1ZLSPMscReHMwa450ds8gJloiifY9TyASbAJj9HbTQQAA4OslivC3Wv32b6qtqPqBMA8U8TAShQk+qZlZS7FJj7WtC5p77ZUNdk9r+6zejHPQ2jzQuYa8JOWIQZdnm/XLy1z2sWhgkxDTouprx7AxNR0+cHGOAViHcCwZtYJNPQolqUosy9epV1gpVGWmXpZwevaeqxFyVOa2jtMWEfKpW4pfpIcaMlMSbIsgYscuZoVqx4M1po8Bd6nEWOohRf3tB4BlKxjBPMz/W1y+d1U3axsk9XWIJeyblyAdV6wdhN3k6F1e970HFlhyqxU7mmxVNPLA5gYf8mjffgewET7DPnxQYFEADAElK7eW2+Pvl55uBZBwMbkNiYa4DqWJfeGcxYq9mVWoZjjkSJnHEkl6Zf21NoTG2qsUxwXDV9ogxnmigGetbDYzplTbOlo80IPiPHvHsDE+AT64ccUBWIdwATE7tU6STay5o4uxR42ClC0WGVDu7W19dqU5HRlgOzuC9h3+Y7lQqZ1OEkuYiyehw51Wpas4NPkf3aqUinPKMh26zIgYyQKItboRsW/PLS50jbslcuw3NCcK9nhweFG5kBMZrJdJPff5UoOkCcL/Ej6Du5vMj89gJlM6ifAtT2ASYBJjoNbjHcAgz/1XhWtvOOVPdLEdbs4llAAQhacFAGW4sJMe9cp053GEFeG0AYjrhED/OXq3VZT1ao+BhYY4OhkaQ6Li9PtxtPnqo/YYYSh9znUdw9ghqKM3+4pMP4UiAcAw5rZLACxrrLR1uxvtIOKRens7BVgkdKM9fMwaBmUelpQ+wBGkg7rtUwpl2arsOXC0mybJzddF7MisDNcI6B/v9b+/33tgB1U0pZul8r5iPKJa7Bul03NtEsXlNncwmwpnxTQP3D5H+4yk7LfA5hJIXviXNQDmMSZ61i+03gGMA54yBd61a46e35LvXXIZSHUjYB5A8AUKqPNuYtK7YyZBfK5PpoxwvLaZMV5cU+dPb2pzpqblZ4TTny4we+cNk8uD+ctnur6yRkkwDQ4PtY+PYCJtRnz441lCsQ6gMFlt1Yuuw9tPmh7qlqsubXbuuX61a840oJ6BEYcPVP9+AEkISDE2poqt7LMjCQrV02Y5VqnT1TWxwyBjWM1roGy6fHtVbZaCQXqlYill3EcPsldR9fI0Lp9pup5rVRxSwpmhiuwjnWNydrnAcxkUT5BrusBTIJMdIzfZjwDmD4/6BZ7TLUIDkoTGOpCwLTBwDIyU2yB6gu8cel0y5Wv9VANpoz/9p3rlIL5YLPAEIGhISBGnSXLvaEgP93euHyGzVVg/2BpPofqP5q3ewATzbPjxxZvFIhVAAMw6JRb2F65iT2/p9G2yfLSKgVSn8Xl2KBluDl0FhmtsemKfcmTRWaakgLMn5phcwpzFNSv+BWBHI4ZrBEL88jGg7ZfYIpYGGGi/sYZSXL5nTNDxS3nFcsKk2nph+Mf+w+Kwi8ewEThpMTTkDyAiafZjN97iWcAs6ehzZ7bWWtrdqgeQLsyj4VNIxnEyov76gGsnF4Ytvfon4CY1WQy21Rt1cqI4xjz4cMc6xQDTctIs1NOKFAms0KbqoJrseJTffTdHtniAcwRWvhvngKRpkCsApg21XvZqYD5V/Y12tYDLdba0qE1ktTzrI5kGiPuBBetwE2LYpVSAk3pixnkO2mUXcawUJQRQnB6oo80AZlCFaQszs2wErl+ZSUfsmxty05LtVRZZnqkXGpV7E1zR48daOnWeBqtURklQy0wdBus21mKYbxwyVRboexmJA1w20OuG21fPYCJthmJs/F4ABNnExqntxOvAIYUnWvESKnhUqN0nuH8EGaak52iisz5duGCqf0pPoeb5qa2Drtf2ryNexutpVVWmBBUBNNLTk1Ves50u0DFLZdMzXVMdbg+o32/BzDRPkN+fPFEgVgEMPARwMuqPQ226UBf0DwWav6SU1NkOZF1WrVXigUU8qXkyRDQoB1SMUtFosjFrFtZyjqtSrGG1Upz306yFMAMC2zf/wOm2AEMARliWLJkgcF4nombGfVlVFeG8bR2dOqvx1oV+4LFvCfUjS2kNww3KLMuVCr8U2YXWaEL5g85IAq/egAThZMST0PyACaeZjN+7yUeAQyxL9trWuxZVWPeIFeGHjHHUKDBbBK4P29ajp0jt4H5xdnyez62P3XoE7Bmf709tbnK9la3OaYYuo/vqWKiKyoK7Wz9zcjLGNK1Ify8aP3tAUy0zowfVzxSINYADGmNDyou8OV9TbZOGb+aW9stScAkR8AiU8tqvopYFqrg79TcVNWESXdJTjLT0gasi11dXUqv3Gn7lKp+j6zbVY1t1igFUb0ATZdSLg9nmSGDWZ91R2gERALowaJzOGFAiJ5pwCMDEOK8TGUju1DZyFYoDoYCmXQRzc0DmGienTgYmwcwcTCJCXAL8Qhg0OQ9tqXaBW52tA2S9ljcKVfA4uz5JXbB3KJRB202yArz+FYVSdtVr4D+o13TklNSrKhQiQHmFdlJ5SqSJg1kLDcPYGJ59vzYY40CsQRgUAzVab19YXe9baxUjInqusjIYnlZyVaen2WlsrqUqZhlnsAMMYEjwQXUjAEQ7W3ssJ21zVbbJOuMYmlaZZXpzySmCw8FSkYy324c+gd3tlRZXCrKsu2ciiKrKFTsIpnIRtLJJB7jAcwkEj8RLu0BTCLMcuzfY7wBGJjaq/vq7TkF7u8m5TEcNawly8WgvCTDlsl9bH5JrvN5JqONK5YWduxQP3fUtdgTck/bKAtPeHIAzklWYOiC6bl2tkDMAl0jlmNhPIAZ6inw2z0Fxp8CsQRgsIy8Wtlkr+yqVVHKHptTkmOLSnMEWtJV3T5FWR4Px5mMkkys41jSOxRDs0dJAdYrccqemnZrwL1MrmHdupbLxDxKINMPTKTEIulKutzZcPk9Z26hzVeGM+JoYmGt9gBmlA+UP3x0FPAAZnT08kdPDgXiCcCgDST3/51r99hrO+utq+NIlrBQ6va5BxySq1eK5eRlumJpp6gWwJLpJY55jcR9AAb7tNJzPi1XsgZpCEMD+oNrpcoVYWVFgV2yqESZcjKCzTH36QFMzE2ZH3AMUyDWAMyO+lYHXgpV/4oaLalSEPUDhXGah3YpoiqbO2x9VbNtrmy1OgGZTrmc9QJkWIzVDn/0/Qj7t388WtyJfyR2Jk/p8+dNzbIzVLy4VJnNRmohCut6Un56ADMpZE+ci3oAkzhzHct3Gk8Ahnl4ZEulrZb1pVbuBwFjC5+ffmam1JvUgSFrZkZ6suULzJyslMqLFXxfIM3ccPUAqpVl5znVF3hhS411KuNNeKN+QXlJlmoMlNjp8q2OBc1e+D3w2wOYwajit3kKRIYCsQRgoEDn4cK+yQIGrKf96+s4koe1nFgbrDy1cifbrYQB22tbbPOeellqUly2MzKe9deaCa6t81iHk5JTnVU8RbkDivPSbJ6sRBVKxVwuV+JsKZpY6yMx7mAY4/3pAcx4U9T3N4ACHsAMIIf/EaUUiBcAA4PbUdtk96vq8j6qLocULBuK9P0MS1+cVk6ZaHIykm2qXL5OVxrk+arlkiFXsKFalxj3+oNN9sSWKtt/UO5qhxl5cDz9p8u/eolc1a4+sUx992XeCfbHyqcHMLEyU36c8UCBWAMwWD7619IITwDrPFb2Dq21rZ091iLF0R65874uN7baNvYlueB9tFfEtyQlp2hdbrMyJRBYVJrnAEtOhizvsr7jNpwq7VUsKpY8gInwg5bo3XsAk+hPQGzcfzwAGBhopzRzj2yrtldkDWlqIb0xWw8zVrRr4rCk5SRdptMSirmxkeMO9fa4LDd9mWvM0sTcyqSdWy5rzIkKwi9UAOpgTI4r1Ekb+LK0gI9vqJbLWmdf9ht35b5/0P4V5qQ5V7KLFpQpxaeuG2PNA5gYmzA/3JimQKwBmMkitlvhtX43CcTUKFtZq8Id4QOdqkcDXyPWkXTNWuUFWJKU/SzdshTjkuL4wURBrshQxwOYyNDV93qYAh7A+EchFigQDwAGS8juhla77/Uqq6xpdTUFSKuZJLCQqfoDAIjsdIGQQ92qFyCtm7KCUSsAqwv3D8Nr119X7xSra1GgaGuPCqEdUpG0dMXF5NlSFTeboYJpgzW0gbvr2uxRFbfcquQBvT1HZ8dJFmiaVpxhVy+fYRUKFB0MDA3Wd7Rs8wAmWmbCjyMRKOABzNhmGWUUBSy7D7uSJUlJlSILOusta308NQ9g4mk2o/BePICJwknxQzqKAvEAYFrkSvCYrC8vb69zVpXc9ClWSurOrHTLzkhS8bR0uW8ppkUAhkBNgkzJQANjI9MNWruOrh7rkq6upqnNamXBqW5qt2p9JgnsLBOIufiE4qNoxwa0gC2d3bZJrmT3rztgzU1Kq0wBtpCj4Z3ZCnBdprowly+c6tIqxxI/9QAmZDL9V0+BCFNgsgCMs0ZjkdYfDaEfRVBoCz8mdB/HB0Ah6CP0fLbBb8JbcF7ouRwbbA8/PvR3MB62DXd8MKbg2OH6Ce87OD/4DD2fa4fea+i+SHz3ACYSVPV99lPAA5h+UvgvUUyBeAAwzQIQD2yutvrGditQIP6M3BSbq3z+ABdhCQWZHnJ+052Ki4F9Yl0BQBC4maIvuBTgC50mSwkFLakefVBAZoucqimsVqDYlcsXlAw5izC0elV6/tOGStu8q8G6BKjwwQ5ADLo/st4Uyi3t2hXTVGsg211vyA6jbIcHMFE2IX44cU2ByQAw3cry1dTUaHW1dc6CAYFTlAY5I13Kn9xcFXrMdAJ6a2ur1dbWWkdHx1FzkJ2tNMT6oyhlQ0ODO6ekpMTSVLSSbfX1ddre2A+Qgg64TmFhoeXk5DjrOee2t7e784uKitw4AnATnMMndKqro8++axXkF1iGsj0OBiQYb31dvbW1t7l+uV5qqtzLtP7TD/fU3Nxs6brfgoICZ7lpamqyxsYmxw9KSkutra3NWlqodXN0an7GmZeX199n6Dgj8d0DmEhQ1ffZTwEPYPpJ4b9EMQXiAcB0C5AcVIpNVQ6wkuwMB0g6BFbwja5Xqs26dgV7dh1SMbQOa9exXbK4YH1JT01WrYIky9YnQZ2lqhadJ7CSo6w0gBphEGvTsfSfP0wAPtlxCOh/cF2VBIE2F9DP+UGDUWYoeHRZRb5dPH+q6y9WXMk8gAlm0X96CkSeApMBYAAvr7z8ij399NNOSEfDkyYBH0F/0eLFtlh/CPY7d+60xx57zKoOHnTWa7dIiiRUs583b54tWLDAgYG1a9barFmz7JJLL7FSCf81NTX23PPP2dpX1xwFfgBI5513ni1ZssSqq6vthRdesP3799vMmTPtoosuMkAQICe0oTQCTD355JP26iuv2Exd64zTz7A5FXMcYAo/dtu2bfb8c8/b7t27bcbMGXb22WfbnDlzXJwMwOXxxx+3jRs3Wnl5ua1cudKBnJdfXm2bNm6yVAGwSy+91LZt3WpbtmyxRgEblFyuiU7E2px7zjl2ss4DyPA70s0DmEhTOMH79wAmwR+AGLn9eAAwAakBDLiEtXZ22brKRv01WZXSKbe29VhKWrb1dHW4dJuHVAGNpJkwXbLUiAep4GW75bu0mml2lrKGTc/LslQKsWkn+4drXLtNcTR3vrbXtu1vsfa2rr7EAIdPdNeThSdNLm3XnzTdFpXlOVey4fqNhv0ewETDLPgxJAoFJgPAVAqQ3HvPPfbrX//a6mXRQAhn7WMssyXoX3PNNU7oB8D8/Gc/s60S5A9pv1PCsEBqAVy58hQ7/fTTbd/+vfbUk0/ZkhNPtJtv/pidcMJcA0D84Q9/sL888oisGo0uVsVZpnWdYgGUd7/rXXbGmWfa66+/br+74w7buWOHzRAo+fSnP23Lly93lp1Qywp8q76+3n502232qADVokWL7K1vfauddtpplpWVNeBRwWJy55132t13321bNm+28mnT7Oo3XmNvectbHUADXN166632zNPP2MKFC+2CN1zgLEB3arxYZk7TPb3nPe+xP//5z/aEgA7Ho5CCf/CZLoDDtaERQArLTqSbBzCRpnCC9+8BTII/ADFy+/ECYDB2NLZ3unSa6w402gEF83d09joFYV99ACYkQCIcHXxnO/7TuHklO81atqpIz1WBs0Wl2c7dq1CxNCNpgKedSuX8xzX77WBtu5g/1znSYHa4ks2ZlmOXLS6zWfmZw9aaOXL25H3zAGbyaO+vnHgUmAwAwzv+pz/9ye64/XYnkCO05+bl2uOPPW4HKittzuzZsqZcasWyMPzud79zFpJTTjlFFo8KZ61gbcN6kS3w8MLzL9jDAipLly21j3/841ahY5pltXjttddszZo1ztLBJ0DjTIGWWeob4AEvevihh+z+++6zOoGTLLmj3XTTTXbVVVdZWZkyOIZYYQIA89Of/MQefvhhZyUaDMBgqUEW++lPf+qsLNVVVc5NjPu7+eabHWCpbwAI/chZn2bOmGGFusftAlxYgwBh73//+50F6ie61gP332+ZGjegqnxaueMZgL3ly5bZAoEf3MhCgVaknl4PYCJFWd+vo4AHMP5BiAUKxAOAATg0tnfbn1/fZ3sFXJrblFGsC/ByGKjocyCUGDgz/VBGTBjEg2YtQ2k3szNTbHpRlp08q8iWqPDZSFqnNJYPb6q0tTsbrEHVonvlfhY0dx1dIys7zS5YVGInTS+wAgX3R3vzACbaZ8iPL54oMBkApkqC/Z9kgcHqUC4h/oMf/KDNFrDAIgKo2b59u50qkLFg/nx78IEHbe++fRLul9hsWRyIj8nOzrHFSxY7Af4RgReOCQUwCPnEtezTebhr/eH3v3euYR/56EdtvvrMz8+3v/zlL3b7b39rmzZtcnEmnLNo0WK7+WM320knneSsMAAl2mAA5m1ve5udeuqpAyww8ICnnnrKfvnLX9rr69a5OBb64N7eecMNduVVV1pHe4f96Ec/ktXoSY2xw1lVuru73DHvE4ACZBGf88N//3e7T+AK/rBIYGX69OnO2gIQO++C8wXy5rhrB2OM5DPpAUwkqev7dqj/IWkT+ONl+frXv+6p4ikQdRSIZQADNCCe5YBiTp7e2aQ0xnViUIddt7TzCHQYPdlhQpSKyVDdgGKlUC5X+uNFpfosyLbcdFV1Fh8dilGtq2xQXZgq21d9dHFLRpKizGYLZxfYBfOKXTXo0Y9uYs/wAGZi6e2vltgUmEwAc5dcrXAZ+8QnP2lz58517lK3/PCH9uyzz7kYlYWLFjj3sJ07dwlQZDnwAtAgPubSyy6zpUuXuhiZB+5/YACAIZCfhmIXi8lv5Ko2depU+5vPfMZZQQjGv0OuY1g4sGAQ/7JD7mrEuXz4Qx+ySy65xKbJ9Sv5sBVmJAAG8ELyACwnWHUAUACljs5OF4dD3AoAJT09Qxaan9iTTzxhNdU1zr2ttLTEXfM977nRyqaVOZe6H/zbvzk3sga5wGFpyshQwgDde76sLh8Q4CN2xltgEvvdjZu79xaYuJnKuL6RWAYw7Up9TP2Xl/Y22sa9TdahgP2+4Eq0dIfTcDo/ZXyVMa70WWWmJCW7OeVY9wfYEbMbrNETGrf09GSblp9uxXL7KsnPtszkXpcAIEtghrTM1B9oUSHLFrmt7Vcq5c17G1xWtFALTNA/hTRzVWPmshPL7KQZ+Zaq/qO5eQATzbPjxxZvFIgGAPPXn/iEYldOMN79W2+5xQXWA04WLlxkTzzxuO3atUsxgwWWK8tEimI+ADAXXnihC+J/9NFHBUQesGXLl9nHPvYxq6iocIH1rLH09/BDAjC/GQhgnhB4IEZm44YNzrKBxeWl1atdLAyB/G9/+9vtRF0faw8tHMAsVgIAXMhCLTCAF2JvfvCDH9hauaxNk4tbmUBTTU2tswQRm/Phj3zEZsji9Itf/MIlBKiR2xhrOckLzldigZsEcHBxw30tADBkIuPeybgG2CoQKHq3YmRWyK2MhATehSze3sgEvB8PYBJw0mPwlmMVwAAMdje02fO76mzD/mbrUCVmGCQgBQtHugpY5mUkW5HiWbCYpIvJ9gEYBfBPSXEuCk2Kmalp7XR1Xzo6ugVmmMA+0004nAmATHJqkuUo01l68iEF4SdblurLpCp2pkfFNFvaOqxZ/QBiOpRWuUfWocFwEWBqikDMFSvK7cy5JZahuJhobh7ARPPs+LHFGwUmC8DcIxcyXLvIGvY2AYaZM2baK6+8bA888IBLV3yWMncBRu5TMPv+/fuce9cMWUoyMjLlOpXpAukBMo8pqB4Xsoq5FQqUf4sDJAAArDCdsn68tOolu/323/ZbYLB23H77HTqn7zpkHcNrhYQByFEAiPe+9712/vnnuyxfAIRwAEPGs4tlpVm8eJGzqGAVIpj++eefV9+32wFlNcPikyuAUV/f4ILzi4qLHOg5R/d1h+J6nn3mGdcv55IyGToQmE/sD+cS6I8lh/3Eu7CN++Lezz33PJeFLQA1kX4mvQtZpCmc4P17AJPgD0CM3H4sAhhiXqpaOuxlWV1W71bNgJZ2ZcMxy8lMs/SkXsvLybTCnDSblptqM/IyrEhxJpnK7x/aOmUtqVFa5d1NXbarvs1qBIaaFDvTLODR1S0gJDDTB4jCoUxfLzBRl4WGTyESd6w0d70CMpw8+FlHzs0UuLps2TQ7ZVahK64ZOrZo++4BTLTNiB9PPFNgMgAM7zhB/MSg0MjqlZubp6D7V11aZSwcF8rCAgjhmL179zqBvaxsmqWlp7k1sGJOhRPqCdB/8MEHBWzSnaBP/Aj1tYqKix0oImj+7rvushIBgM9+9rMumxiuay+//LKzXgAccOvq7Gi3PXv2uHX2uuuvt2uuvtpOUKpmxhAAmJ/8+MdGzE2ysknOnDXTigVKkpNSFGif6VzO1ilxwGr1myLQgVUlMzNLIKrDAbI2uZQRfE8sDONd9eIqK59e7tzXDgo4bVXaZMDUG6+91lljfqv7Josa6/7cuSf0gSnVD0uRAuusM8/yaZTj+aVMtHvzACbRZjw27zcWAQxFI1/YXWdr9zbLymGWlXbIcjOTbVZxtk0VWJmmmJV8gRmKU46kdchSskcAZk9jm+2oabH6ZhV1a+2y9o4eZ1nBjAJAOZ4mfNXXFFiTrjFWKMvZ+YqBmavYGpeKNNgfhZ8ewEThpPghxS0FJgPAkHELIR4LDOmJaShmAAu4kl12+eUukH7Hju2KX/kf27F9m3O1CiaB1fFkuX0R6I/s85isMGQeUyf9+R6JazlFQfZYQR7StQAHn/jEJ+2VV19xwIBsZ/MFUEinDNgg3TJWGUAM7mvXXXedO5+gefgW+3+l4Hzcz2oVQ3NICVS4Ho1jcA2rVcpj6rasWLHCTj75ZCsVaGpubrJ1r62zVatWOWsK7l9rXn3V1q9fr4QCC1wa5d7eHiU1+JPtUDpnsqvd8M532osvvWSr9Ven1Moo0YIGja4XwLriyisd+AnNlhYcM96f3gIz3hT1/Q2ggAcwA8jhf0QpBWINwOA6tlppkl/aXmvtqruycHqenagMYaU5GXLFonbB2AndI6YEmNkhiwypmHdXt1tzqzKaye2hW4UxATK0I6xr+Gv1D0dfsNqkyRJUXJhmb5hfbPMFuDI15mhvHsBE+wz58cUTBSYDwLS0ttj619c7ob5VMR4AgQytVQj8WGMo+kiV+t27dtszzz7TJ8QLRARrIsHspFQG7ACAiDkhWH5KiKBfJMAyV4kBEPgpPknAO+5ZAAcKRLI+UjCTFMVYbXA3e/qZp23zps2uJhfxLRTVJHgehRLZw1548UXbsP51ZyXqLy6ph4G4nGz1wb0wttMOn8s1oa8ryKlYHcZKlrGGxga5mR2wqUrXvGL5CsvLz7PNqhmzWnE4BP+vFDhrEBBCrmtR4cv+awHQ9HfGGWe4lMu40HEfkW4ewESawgnevwcwCf4AxMjtxxqA6RGA2VrXojiTbivNSrOp2elyD+hz4+oHC8dBe8AJzLFNCQL2N7Xb+oPNtvFgizU1CciIYRJHczhMZkRXgbmhgkxW2rIcBf8vLsuw0+U2NlVxNCO1EI3oQhE8yAOYCBLXd+0pEEaByQAwrHkEvfMHT6AhiBNHgkXBrWPaxtgAFnyGNvZzHH+czzHhVmvcyMgixrHsp/8MXMW6+vpj/QZ4cE2O4XyOoxAlDeATOpZgP2MOvxbn88c4uQ7gK/Rctnd0dLi+AUSMmesQ38J1OIff7j60j3FxDH/h1+I3/TNuzpuI5gHMRFA5ga/hAUwCT34M3ToLMtqvH8uXGEGVisOXKR1mtDYARifB8fpMEbNIlsllPIBL+P3ClLoElloFZKqVIGB3fauKVLbatr31JnbmNHC9bhxh9hj9JEA/KVmplsUMU1IPKQ1zqs0vy3OFK6crJidHGc1g5pEYd/h9jMdvD2DGg4q+D0+BkVEA4fpzn/uci9O4VvEXFyr2pFjxI5Fu4YI51wMEhLfBjguOCYBH8Hu4z8GOD71m+LVC99F3+P7w67Gfc8LPC84N9rvzWMp1u6HHDtd/nzJr6GuEj2e8fnsAM16U9P0MSgEPYAYli98YZRSINQAD+QLIcDRrHX/iCsNYt0AeFplmWX2aFRuzWxagjbLM1HUwlmQF7qONhIklWRIayK5Wm5aXZgun5luZAEsWGdEUk5OpbGNpshZFe8xLOBU9gAmniP/tKRA5CkwWgIncHfmex5sCHsCMN0V9fwMo4AHMAHL4H1FKgVgEMJNFSoATGrkG1ZupbO6QdUbgRlnHOjrlwqD/nEtEWrqUeD2WJytL6eEUzsTlhGr1Jmv8Y72uBzBjpZw/z1Ng9BTwAGb0NEu0MzyASbQZn+D79QBmggnuLzcmCngAMyayuZMAMxQ965KvNJaaZLkqpMoCkywrSzw1D2DiaTb9vUQ7BTyAifYZmvzxeQAz+XMQ1yPwACaupzdubm4yAQwAINTHeDBf5fBjwgkfWDa4DywgwW+O41y2h24Lzg+9VnCNkQRgBsfSz3DHc2zQwscwWD+h24LjQ/sI+uIzdPyh2yPx3QOYSFDV9+kpMDgFPIAZnC5+6xEKeABzhBb+WwQo4AFMBIjquxx3CkwWgIFJNysdZZ3y9weNgmBkc8nKynapMhHS29varaamekDNgeD4zMxMl26TbDKkw6S+AGksyQZDZhrqBPAXgIHgPLLR5OfnG1WT/3975x4cVZGF8aOASEDFoISEZxYECQiBIAIrEAhPcQuLLR6u64qwQCGg+BcgqPzpc+URUBQQ1nXd0hVEREJpoW54S+LKUwKEBDAoIBh5lQq659fYmUkYkVrnwuCcrkrunXt7+nZ/M9O3v3u+cw71SktLXUQaXnMc5/tIBTJBf49pOE2uTV36G6l8p30q1WvTN6LckNfAt8vY6e/Jkyfd+/01aZc/+puYmOiyQVOHz6hiYZyEGmUsQRcjMEEjbO0bAiEEjMCEsLC9yAgYgYmMix2NEgJGYKIEpDUTKAKXisCQ5Oy/mjyMLMreGb+qZm5OTKwlaWnNpanmHqhRvYYUFxXLsmXvuDj/4UCQDZmcA+QMKCkpkbVr1kjLW1pKVlYPRxZYdK9ft85lYa7oNE8ugN/ffrtLjsbvlERobJs0biLds7KUmFx7DumBvBBWk2RvW7ZslkYNU6Vjp47SoEGD8G6V7RfuLpT169fJ3n37tG5D1y4ZpikQt5UrV0pBQYFmj64vHTp0kAQlRKtWrZIdn30mCUqkevfuJbt27pJt27a5PARlDesOWac7d+4srdNbOxIVfi6IfSMwQaBqbRoCkREwAhMZFzsaQsAITAgL2wsAASMwAYBqTUYdgUtFYL48+KUsfftteX7282UyMi+LatykiQz44wDpoot0kqs99dRTcvDQITRh5cbftm1bXej3lh07dsjb2lZmt0wZM2asIxUs/F977TVZ/u67Ze37N9+gROL++4dJ165d5ZP8PJnz4ouaxOyAS8Q2depUuemmm1wuAF+fLQTm1KlT8sQTT8iq3FxppYnN7rnnHmmnmacrWnjwi3nj9dfl35rVunD3btefgYMGufq0xdwwffoMJV2rHQH7g4ZKJVna3559Vk6pxaVzly4ybPgweWvxW/Ku9v8EieV8UetMVQ0U8Jf77pP++r6Uuin+TGBbIzCBQWsNGwLnIGAE5hxI7EAFBIzAVADEXkYXASMw0cXTWgsGgUtFYFgUQzrmzJkjtZVQdOzUyWV+/uDDD+WwkhUsMH369Jbk5BR5UkkD0qqOHTs6iwWJxigpKSlSWzNFf6AZld9avFizOmc5AlNfrRpfHT4sn2i257yNeZp1uUg+1ozNWEDIulyvXj1pr1vkV5CoNxctku81YRpysPEPPyy9evV0lqBwxD2Befrpp+VDvV5rCIzmzKlIYKjHb/9FHRdWFqRi1RMSpN2tt8rkKVNcHw7p+GbOzJbVq3KlcePGjjhtUmvU559/7ojRqFGjNPt1U5mVPUsxWqKyuOvddWppJmsKUru2bTNc1mpkc0EXIzBBI2ztGwIhBIzAhLCwvcgIGIGJjIsdjRICRmCiBKQ1EygCl5rAzJ83T5o3T5OHxj/k/D7yP8lX68Ubsm/vXieTYuH//KxZjgi0a9/ekY+zfjIJbgFfp04dZ+1gQg8nMCwCsFxACv7z0Ucyf/58aXbzzTLmgQekUaNUuebaa9zxufPmyp7CPc6KAvlom5EhY8eNk5YtWpTzL7lQAsOH9ZFeb8GCl2Xrlq1Odoazf926dWXM2LHSvXt3OXLkiGRnZ0uuStew3jAeCBqE7KHx4yU9PV39gBKcRYZx4ZsDYeI8Nqga+rqLWo8aqjTt53xwovmlMQITTTStLUPg/AgYgTk/PnZWxAiMfQsCRcAITKDwWuNRQuBSE5iXlVi0bp0uUx59VJKSajt/lhnTpzu/lFuVvOAf8o9XXhGsFolqgWBhTxb769SJvWfPnu78P1991U3o4QTGy7p4X05OjmTPnCktWraURyZNktTUVDmkFpp/qcQMmVd1dYZvqrKxTZs2OVTHPfigIxo40vtyoQSGoACzZ8920rXv1KqTqBm02X6jgQL69O0ro0ePdlI06kB0jv0UZACn/D59+shoJViMEdLz7DPPuHHRJkEACBxAoV8jR46UW1q1Kjvm+xnE1ghMEKham4ZAZASMwETGxY6GEDACE8LC9gJAwAhMAKBak1FHIHYIzBQlMEnOYgKBwaEdAoNs7O8LFzrCgYQK60MllX6x4M9Sh/v2apUJJzBjx44TJGQUSIcnMLPU4gGBmTRxonP+X6kysFeV+GxXXxkITWa3bk5Oxu+23513ypAhQ1TG1awsVPI5BEatJH/+SULmPxSw3LlzpyMemzZvlgbaj7p166n/zkHZvWuXWpqay6RHHnEWFaRzEBiIjZphpKZGNMvq0UMeVPJEdLFwAnNarUm1lLRAYLDAsP/XESOkpY7HkxrfhyC2RmCCQNXaNAQiI2AEJjIudjSEgBGYEBa2FwACRmACANWajDoCl5rAzJs7V5o1bSYjRo2UWmqt2Ki+KkuXLnWEJVNlUki6smfMkK91oZ/epo2TUSGbIjRxWlqak2YtevNNZ6nAv2XIkLslqU6Sw4lwylg/NqzfoJKtsxYYCAwWjAVKipYsWaLWkJOSXCfZkZu8jRs1ZPNX8jv1Sxk+fLhz8vcEoSKBaaIWm379+rk+cDEIB8Tj/fffd8TooBKh+vUbOKJ1+PAh+eKLL9z4Rqp/CxKxhXp9LyFjLEjIIHD3DR0qndQfCII27bnnZIlKyBK0XaKt3aAEjn5wnW5KuIjC5vsX9S9GWINGYMLAsF1DIGAEjMAEDPBvoPmoEpjBgwdLD3165p1LfwP42BB+JQJGYH4lgPb2i4JARQIzcOBAdWLvFfhcxqLYO/FjUUhvo34f1RI09PB6l7sFawn9qFnzOnXif9IdY+GfpD4vEBMKIYyxcuSqtWaxOuLjI9JcSQ1WGqwaEBXOl5Z+c5bAqF/L5MmTXUQzrC8fb9igRKiaJGkggMpVKrucLfjM0P4gndPvuuuuctYcopB5J35kXjjgYxUiDDSkClJDSOb8vDypgpXo+kQNTHC1fPvdt3L066NyUn1yCFaA5WaR9pfQz4yBdgoLC6VgZ4G+buiilUHGkNe9o2Suujrq45NTU2VkFIIPYJlqpRIyiE7QxQhM0Ahb+4ZACIFwAkOURR5WJCcnhyrYXtwj8KsIDDf94uJip3VmcscxEz02N1ArhgAIeAJDngskKo899pgBYwjEHAJ+LnvhhReclYCbJcQh6LnskFolcpYvl7kvzXWyKIAhXwvkgQX9HWrdaN/+NinY8ZlMnzZNDqtlpFwQZbVEYJFBRoZsi2hiWCco3v+FHCtYM25Qyw6SLSRcE9QCs3btWlefuZtjmZndNPdKggsUgFWGkMoZ7TJk0KDBTsZGm7RNqONp2pfVSphIkEnx17pa5V1Izor27JFjmuclQ0M8Z6j1CKsJ1qNPNcoY78N6gp/LGiUvn2qUtBZKTPCNIcfMSxrOmXmjiYaRHjr0fpXR5TqZ2QkNrewLZOmqKlXl7j/dLX3v6HtRFjaewGBdInDAVA01bcUQMASCQQACM1HnKeSvPlQ8c4sVQwAEuFdwn+IBYKNGjZxa4OfykXnErtAbWLn7JyceVcfTfZqoDC0yTBkzvxVDAASQjJD0jifKTEJIUqwYArGKwOOPP+4eyrCgZi7j6X6QhQhhW7ZskQ801LAvkACiitEHSD9kprioSJarEz7WD2URvqqTbKWqhIq590DJAVmzdo1UVhkXlhdfIA+EY8ZakpOzXCf7VCf7ylMLybatW6WKhmNmnPjRcC0WDitW5ChpKnDSrA5q5SD6ly/cOAiNzHvpjycvnK9cqZJcrxafo0ePOgsJxClNxwFhwQm/uKhYFi1epCTolD7wynKLk/1670jR6GRYW65THxhPcmjvtts6yJGjR/T+sldzw+jYwwrXJVcMYycpZ9AFUsVctk4Tg2IFG6H+N1YMAUMgGAR4qESQD+bHmzVyIvMx2/D5JpgrW6uXAwKoBJYtWyarV692EuYJEyb8YrcjEhiSjHFDw6RPBJnMzMxfbMgqxAcCOOiuWLFC5SulRmDi4yO/rEe5XK0hzGX4cjCXYYkJsnCTxj8FWZUvVyoJQIbLXyXdp7D4h+z8qPXLFV3EUw/pFsTixPETcsWVVzg5l6/n22NMx48dl6uqXuUc6LGkcG0WBN6fxi8OuJY/h38J58OLP0//Q1RJa2hb9Pn096cdhlh06B/t8uyLPh5Xy8yZ02dc1LMzZ05r7pnv3b2jWkI19x43Vq1DW1z3ByVUOPCHj91ROP1H+9RhbEEXZHFEcmMuMwITNNrWfrwjwNzCAhX1Br5x3ipOzisrhgDrSr4bJ9Uyz8Ove++99xdBiUhg3nvvPeGPuP5EviGpGU8PrcQvArBj/rZv3+6sc+R/GDBgQLknufGLjo08VhFAHsRchhP7xZjLvEHbbz0uLPg9mfDn/NbX8Vtfj9c//qCr+nKM4mwtX8efL3v9kzWH1/6Ya0eP++tVPFfx/NkrRP5f8b206dqlm0q0fFtsfd2yOu7sef6FtRHe9/O84/86VVJSIvv37y+by5AVMpdBYqwYAoZAcAiQAPc5DeJRpBZoktUidUWSioXaSnwigNqLteVWVQAwNyO17t+//wVxjogEBtM6T6c2qDMoXzgcKsNzB8QnzPE9ap7Q8qSVLRm/0ei3Ua0+yeisGAKxigBzWW5urpM82lwWq5/Sxe1X+FzGgxjmMuSwNpdd3M/BrhafCKDiQLrJQwR+c0RpRA5rJT4RYF3p15Y33nijdFEZcVeN1Hkh34mIBAYYYURoFTdr3H/8HpAKoIO2Er8IQFy44WON44bPExQrhkCsI8BTHeYx5rMD6shuc1msf2LB98/PZYSs5gmwzWXBY25XMARAgEAh+NDm5+c7nzmkrcg4rcQvAgRRwa8Snyh8Ny/UIvezBAYo+aIRlYybPjpmIzDx+wVj5EhwuPHDki+Gk218o22jjyYCNpdFE83Lvy2byy7/z9BGcPkiAGHZo5ENiQQIgcE6biV+EUjV4DZY4yAuF0peQOu8BCZ+4bSRGwKGgCFgCBgChoAhYAgYAoZALCJgBCYWPxXrkyFgCBgChoAhYAgYAoaAIWAIRETACExEWOygIWAIGAKGgCFgCBgChoAhYAjEIgJGYGLxU7E+GQKGgCFgCBgChoAhYAgYAoZARASMwESExQ4aAoaAIWAIGAKGgCFgCBgChkAsIvA/wd8FLZDzkAwAAAAASUVORK5CYII=;" parent="1" vertex="1">
          <mxGeometry x="543.5600000000001" y="90.11" width="366" height="111.23" as="geometry" />
        </mxCell>
        <mxCell id="eAZYdMzIZOF0PukDBkYk-58" value="BigQuery" style="text;html=1;align=center;verticalAlign=middle;resizable=0;points=[];autosize=1;strokeColor=none;fillColor=none;" parent="1" vertex="1">
          <mxGeometry x="965" y="499.33000000000004" width="70" height="30" as="geometry" />
        </mxCell>
        <mxCell id="eAZYdMzIZOF0PukDBkYk-59" value="BigQuery" style="text;html=1;align=center;verticalAlign=middle;resizable=0;points=[];autosize=1;strokeColor=none;fillColor=none;" parent="1" vertex="1">
          <mxGeometry x="520" y="515" width="70" height="30" as="geometry" />
        </mxCell>
        <mxCell id="eAZYdMzIZOF0PukDBkYk-60" value="DeltaLake&amp;nbsp;" style="text;html=1;align=center;verticalAlign=middle;resizable=0;points=[];autosize=1;strokeColor=none;fillColor=none;" parent="1" vertex="1">
          <mxGeometry x="834.45" y="225" width="80" height="30" as="geometry" />
        </mxCell>
        <mxCell id="eAZYdMzIZOF0PukDBkYk-61" value="DeltaLake&amp;nbsp;" style="text;html=1;align=center;verticalAlign=middle;resizable=0;points=[];autosize=1;strokeColor=none;fillColor=none;" parent="1" vertex="1">
          <mxGeometry x="960" y="225" width="80" height="30" as="geometry" />
        </mxCell>
        <mxCell id="eAZYdMzIZOF0PukDBkYk-62" value="Forge Data Lake" style="text;html=1;align=center;verticalAlign=middle;resizable=0;points=[];autosize=1;strokeColor=none;fillColor=none;fontSize=15;fontStyle=1" parent="1" vertex="1">
          <mxGeometry x="656.56" y="40" width="140" height="30" as="geometry" />
        </mxCell>
        <mxCell id="d0G_s2lFXDd53nD6BOQX-28" value="" style="edgeStyle=orthogonalEdgeStyle;rounded=0;orthogonalLoop=1;jettySize=auto;html=1;flowAnimation=1;strokeColor=#666666;strokeWidth=2;exitX=0.119;exitY=0.441;exitDx=0;exitDy=0;exitPerimeter=0;" edge="1" parent="1" source="eAZYdMzIZOF0PukDBkYk-3">
          <mxGeometry relative="1" as="geometry">
            <mxPoint x="560" y="580" as="sourcePoint" />
            <mxPoint x="760" y="550" as="targetPoint" />
            <Array as="points">
              <mxPoint x="760" y="590" />
              <mxPoint x="760" y="556" />
            </Array>
          </mxGeometry>
        </mxCell>
        <mxCell id="eAZYdMzIZOF0PukDBkYk-63" value="Real Time&amp;nbsp;&lt;div&gt;Inference&lt;/div&gt;" style="text;html=1;align=center;verticalAlign=middle;resizable=0;points=[];autosize=1;strokeColor=none;fillColor=none;" parent="1" vertex="1">
          <mxGeometry x="415" y="570" width="80" height="40" as="geometry" />
        </mxCell>
        <mxCell id="eAZYdMzIZOF0PukDBkYk-64" value="Forge AI and ML Platform" style="text;html=1;align=center;verticalAlign=middle;resizable=0;points=[];autosize=1;strokeColor=none;fillColor=none;fontSize=15;fontStyle=1" parent="1" vertex="1">
          <mxGeometry x="645" y="750" width="190" height="30" as="geometry" />
        </mxCell>
        <mxCell id="d0G_s2lFXDd53nD6BOQX-39" value="" style="edgeStyle=orthogonalEdgeStyle;rounded=0;orthogonalLoop=1;jettySize=auto;html=1;flowAnimation=1;strokeColor=#666666;strokeWidth=2;" edge="1" parent="1" source="eAZYdMzIZOF0PukDBkYk-70" target="d0G_s2lFXDd53nD6BOQX-35">
          <mxGeometry relative="1" as="geometry" />
        </mxCell>
        <mxCell id="eAZYdMzIZOF0PukDBkYk-70" value="&lt;font style=&quot;font-size: 20px;&quot;&gt;&lt;b&gt;PDM AI&lt;/b&gt;&lt;/font&gt;" style="rounded=1;whiteSpace=wrap;html=1;verticalAlign=top;fillColor=#f5f5f5;strokeColor=#FFFFFF;fontColor=#333333;" parent="1" vertex="1">
          <mxGeometry x="65" y="440" width="250" height="215" as="geometry" />
        </mxCell>
        <mxCell id="d0G_s2lFXDd53nD6BOQX-8" value="" style="edgeStyle=orthogonalEdgeStyle;rounded=0;orthogonalLoop=1;jettySize=auto;html=1;entryX=0.5;entryY=0;entryDx=0;entryDy=0;flowAnimation=1;strokeWidth=2;strokeColor=#666666;" edge="1" parent="1" source="d0G_s2lFXDd53nD6BOQX-1" target="d0G_s2lFXDd53nD6BOQX-3">
          <mxGeometry relative="1" as="geometry" />
        </mxCell>
        <mxCell id="d0G_s2lFXDd53nD6BOQX-1" value="" style="editableCssRules=.*;html=1;shape=image;verticalLabelPosition=bottom;labelBackgroundColor=#ffffff;verticalAlign=top;aspect=fixed;imageAspect=0;image=data:image/svg+xml,PHN2ZyB4bWxucz0iaHR0cDovL3d3dy53My5vcmcvMjAwMC9zdmciIHhtbG5zOnY9Imh0dHBzOi8vdmVjdGEuaW8vbmFubyIgd2lkdGg9IjIwIiBoZWlnaHQ9IjE4IiB2aWV3Qm94PSIwIDAgMjAgMTgiPiYjeGE7CTxzdHlsZSB0eXBlPSJ0ZXh0L2NzcyI+JiN4YTsJLnN0MHtmaWxsOiM0Mjg1ZjQ7fSYjeGE7CS5zdDF7ZmlsbDojNjY5ZGY2O2ZpbGwtb3BhY2l0eTouOH0mI3hhOwkuc3Qye2ZpbGw6I2FlY2JmYTtmaWxsLW9wYWNpdHk6LjZ9JiN4YTsJPC9zdHlsZT4mI3hhOwk8cGF0aCBjbGFzcz0ic3QwIiBkPSJNOS4xNyA1LjE0bDEuNjYtMi41N0w5LjE1IDBINUwwIDguNThsMi41IDUuMTQgNS04LjU4eiIvPiYjeGE7CTxwYXRoIGNsYXNzPSJzdDEiIGQ9Ik0xNC4xNyA1LjE0bDEuNjYtMi41N0wxNC4xNyAwaC0zLjM0bDEuNjcgMi41Ny0xLjY3IDIuNTd6Ii8+JiN4YTsJPHBhdGggY2xhc3M9InN0MiIgZD0iTTEwLjgzIDEyLjg2bC0xLjY2IDIuNTdMMTAuODUgMThIMTVsNS04LjU4LTIuNS01LjE0LTUgOC41OHoiLz4mI3hhOwk8cGF0aCBjbGFzcz0ic3QxIiBkPSJNOS4xNyAxMi44Nkg1LjgzbC0xLjY2IDIuNTdMNS44MyAxOGgzLjM0TDcuNSAxNS40M3oiLz4mI3hhOzwvc3ZnPg==;" vertex="1" parent="1">
          <mxGeometry x="856.85" y="562" width="40" height="36" as="geometry" />
        </mxCell>
        <mxCell id="d0G_s2lFXDd53nD6BOQX-9" value="" style="edgeStyle=orthogonalEdgeStyle;rounded=0;orthogonalLoop=1;jettySize=auto;html=1;strokeWidth=2;strokeColor=#666666;flowAnimation=1;" edge="1" parent="1" source="d0G_s2lFXDd53nD6BOQX-2" target="d0G_s2lFXDd53nD6BOQX-1">
          <mxGeometry relative="1" as="geometry" />
        </mxCell>
        <mxCell id="d0G_s2lFXDd53nD6BOQX-2" value="Vertex AI" style="sketch=0;html=1;verticalAlign=top;labelPosition=center;verticalLabelPosition=bottom;align=center;spacingTop=-6;fontSize=11;fontStyle=1;fontColor=#999999;shape=image;aspect=fixed;imageAspect=0;image=data:image/svg+xml,PHN2ZyB4bWxucz0iaHR0cDovL3d3dy53My5vcmcvMjAwMC9zdmciIGlkPSJzdmc1IiB2ZXJzaW9uPSIxLjEiIHZpZXdCb3g9IjAgMCAyMzkuNzA4MjUgMjc0Ljg2MzI4IiBoZWlnaHQ9IjI3NC44NjMyOG1tIiB3aWR0aD0iMjM5LjcwODI1bW0iPiYjeGE7ICAmI3hhOyAgPGRlZnMgaWQ9ImRlZnMyIi8+JiN4YTsgIDxnIHRyYW5zZm9ybT0idHJhbnNsYXRlKC02Ni42ODYzNjEsNjAuMjU5NzY2KSIgaWQ9ImxheWVyMSI+JiN4YTsgICAgPGcgc3R5bGU9Im9wYWNpdHk6MC45OSIgaWQ9InBhdGg4NjkiLz4mI3hhOyAgICA8ZyBzdHlsZT0ib3BhY2l0eTowLjk5IiBpZD0icGF0aDg2OS0yIi8+JiN4YTsgICAgPGcgc3R5bGU9Im9wYWNpdHk6MC45OSIgaWQ9InBhdGg4NjktMyIvPiYjeGE7ICAgIDxnIHN0eWxlPSJvcGFjaXR5OjAuOTkiIGlkPSJwYXRoODY5LTEiLz4mI3hhOyAgICA8ZyBzdHlsZT0ib3BhY2l0eTowLjk5IiBpZD0icGF0aDg2OS04Ii8+JiN4YTsgICAgPGcgc3R5bGU9Im9wYWNpdHk6MC45OSIgaWQ9InBhdGg4NzEiPiYjeGE7ICAgICAgPHBhdGggaWQ9InBhdGgzMzU3IiBkPSJtIDc3LjE4Njc3NSwxMTAuODgyNTIgOTQuMjM5Njk1LDY5Ljc0NTc1IiBzdHlsZT0iY29sb3I6IzAwMDAwMDtmaWxsOiMwMDgwMDA7c3Ryb2tlLXdpZHRoOjIxO3N0cm9rZS1saW5lY2FwOnJvdW5kOy1pbmtzY2FwZS1zdHJva2U6bm9uZSIvPiYjeGE7ICAgIDwvZz4mI3hhOyAgICA8ZyBzdHlsZT0ib3BhY2l0eTowLjk5IiBpZD0icGF0aDg3MyIvPiYjeGE7ICAgIDxwYXRoIGQ9Im0gMTUzLjA4MTIsMTA5LjAzNTY4IGMgMCw2LjEyMDQ3IC00Ljk2MTYyLDExLjA4MjA5IC0xMS4wODIwOSwxMS4wODIwOSAtNi4xMjA0NywwIC0xMS4wODIwOCwtNC45NjE2MiAtMTEuMDgyMDgsLTExLjA4MjA5IDAsLTYuMTIwNDYgNC45NjE2MiwtMTEuMDgyMDgyIDExLjA4MjA4LC0xMS4wODIwODcgNi4xMjA0NywtMTBlLTcgMTEuMDgyMDksNC45NjE2MTcgMTEuMDgyMDksMTEuMDgyMDg3IHogbSAwLC05Mi41MTMzODEgYyAwLDYuMTIwNDY5IC00Ljk2MTYyLDExLjA4MjA5IC0xMS4wODIwOSwxMS4wODIwODkgLTYuMTIwNDcsLTVlLTYgLTExLjA4MjA4LC00Ljk2MTYyNCAtMTEuMDgyMDgsLTExLjA4MjA4OSAwLC02LjEyMDQ2NSA0Ljk2MTYxLC0xMS4wODIwODQ2IDExLjA4MjA4LC0xMS4wODIwODk2IDYuMTIwNDcsLTZlLTcgMTEuMDgyMDksNC45NjE2MjA2IDExLjA4MjA5LDExLjA4MjA4OTYgeiBtIDAsLTMyLjkyMTY4MyBjIDAsNi4xMjA0NjkgLTQuOTYxNjIsMTEuMDgyMDkwNSAtMTEuMDgyMDksMTEuMDgyMDg5OSAtNi4xMjA0NywtNWUtNiAtMTEuMDgyMDgsLTQuOTYxNjIzOSAtMTEuMDgyMDgsLTExLjA4MjA4OTkgMCwtNi4xMjA0NjUgNC45NjE2MSwtMTEuMDgyMDg0IDExLjA4MjA4LC0xMS4wODIwODkgNi4xMjA0NywtMTBlLTcgMTEuMDgyMDksNC45NjE2MiAxMS4wODIwOSwxMS4wODIwODkgeiBNIDEwOC43NDE4MSw3Ni43MTgwMSBjIDAsNi4xMjA0NjkgLTQuOTYxNjIsMTEuMDgyMDg5IC0xMS4wODIwODksMTEuMDgyMDg5IC02LjEyMDQ2OSwwIC0xMS4wODIwODksLTQuOTYxNjIgLTExLjA4MjA4OSwtMTEuMDgyMDg5IDAsLTYuMTIwNDY5IDQuOTYxNjIsLTExLjA4MjA4OSAxMS4wODIwODksLTExLjA4MjA4OSA2LjEyMDQ2OSwwIDExLjA4MjA4OSw0Ljk2MTYyIDExLjA4MjA4OSwxMS4wODIwODkgeiBtIDAsLTMyLjY4MDYyNiBjIDAsNi4xMjA0NjkgLTQuOTYxNjIsMTEuMDgyMDg5IC0xMS4wODIwODksMTEuMDgyMDg5IC02LjEyMDQ2OSwwIC0xMS4wODIwODksLTQuOTYxNjIgLTExLjA4MjA4OSwtMTEuMDgyMDg5IDAsLTYuMTIwNDY5IDQuOTYxNjIsLTExLjA4MjA4OSAxMS4wODIwODksLTExLjA4MjA4OSA2LjEyMDQ2OSwwIDExLjA4MjA4OSw0Ljk2MTYyIDExLjA4MjA4OSwxMS4wODIwODkgeiBtIDAsLTMyLjY3ODI0MyBjIDAsNi4xMjA0NjkgLTQuOTYxNjIsMTEuMDgyMDkgLTExLjA4MjA4OSwxMS4wODIwOSAtNi4xMjA0NjksMCAtMTEuMDgyMDksLTQuOTYxNjIxIC0xMS4wODIwODksLTExLjA4MjA5IDAsLTYuMTIwNDY4OCA0Ljk2MTYyLC0xMS4wODIwODkwNyAxMS4wODIwODksLTExLjA4MjA4OTA3IDYuMTIwNDY5LDAgMTEuMDgyMDg5LDQuOTYxNjIwMjcgMTEuMDgyMDg5LDExLjA4MjA4OTA3IHogTSAxNDIsMzcuNzc5Mjk3IGMgLTUuNzk4OTksMCAtMTAuNSw0LjcwMTAxIC0xMC41LDEwLjUgdiAyOC45OTQxNCBjIDAsNS43OTg5OSA0LjcwMTAxLDEwLjUgMTAuNSwxMC41IDUuNzk4OTksMCAxMC41LC00LjcwMTAxIDEwLjUsLTEwLjUgdiAtMjguOTk0MTQgYyAwLC01Ljc5ODk5IC00LjcwMTAxLC0xMC41IC0xMC41LC0xMC41IHogbSAtOC45ZS00LDEwLjUwMDM3NyBWIDc3LjI3MzY5MSBNIDk3LjY2MDE1NiwtNjAuMjU5NzY2IGMgLTUuNzk4OTksMCAtMTAuNSw0LjcwMTAxIC0xMC41LDEwLjUgdiAyOC45OTQxNDEgYyAwLDUuNzk4OTkgNC43MDEwMSwxMC41IDEwLjUsMTAuNSA1Ljc5ODk5NCwyZS02IDEwLjUwMDAwNCwtNC43MDEwMDkgMTAuNTAwMDA0LC0xMC41IHYgLTI4Ljk5NDE0MSBjIDAsLTUuNzk4OTkxIC00LjcwMTAxLC0xMC41MDAwMDIgLTEwLjUwMDAwNCwtMTAuNSB6IG0gLTQuMzVlLTQsMTAuNDk5NzY1IHYgMjguOTk0MDE3IE0gNzUuNjM0NzY2LDEwMC40OTgwNSBjIC0yLjc1NDE5MSwwLjQxMTQ4IC01LjIzMjExOSwxLjkwMDIxIC02Ljg4ODY3Miw0LjEzODY3IC0zLjQ0ODg3NCw0LjY2MTU3IC0yLjQ2NjAyNCwxMS4yMzYzNSAyLjE5NTMxMiwxNC42ODU1NSBsIDk0LjIzODI4NCw2OS43NDYwOSAxMi43ODYwNCwtMTYuNjY2NTkgLTk0LjUzMjEzNiwtNjkuOTU4NDEgYyAtMi4yMzg2OTksLTEuNjU3MTYgLTUuMDQ0MTAxLC0yLjM1NjkzIC03Ljc5ODgyOCwtMS45NDUzMSB6IiBzdHlsZT0iY29sb3I6IzAwMDAwMDtvcGFjaXR5OjAuOTk7ZmlsbDojYjVjYmY5O2ZpbGwtb3BhY2l0eToxO3N0cm9rZS13aWR0aDoyMTtzdHJva2UtbGluZWNhcDpyb3VuZDtzdHJva2UtbGluZWpvaW46cm91bmQ7LWlua3NjYXBlLXN0cm9rZTpub25lIiBpZD0icGF0aDE4NDAtNSIvPiYjeGE7ICAgIDxwYXRoIGQ9Im0gMTk3LjM5Mjc2LDE0MS45NzM2NiBjIDAsNi4xMjA0NyAtNC45NjE2MiwxMS4wODIwOSAtMTEuMDgyMDksMTEuMDgyMDkgLTYuMTIwNDcsMCAtMTEuMDgyMDksLTQuOTYxNjIgLTExLjA4MjA5LC0xMS4wODIwOSAwLC02LjEyMDQ3IDQuOTYxNjIsLTExLjA4MjA5IDExLjA4MjA5LC0xMS4wODIwOSA2LjEyMDQ3LDAgMTEuMDgyMDksNC45NjE2MiAxMS4wODIwOSwxMS4wODIwOSB6IG0gMCwtOTIuNzI1NTg2IGMgMCw2LjEyMDQ2OSAtNC45NjE2MiwxMS4wODIwOSAtMTEuMDgyMDksMTEuMDgyMDg5IC02LjEyMDQ3LDFlLTYgLTExLjA4MjA5LC00Ljk2MTYyIC0xMS4wODIwOSwtMTEuMDgyMDg5IDAsLTYuMTIwNDcgNC45NjE2MiwtMTEuMDgyMDkxIDExLjA4MjA5LC0xMS4wODIwOSA2LjEyMDQ3LC0xZS02IDExLjA4MjA5LDQuOTYxNjIgMTEuMDgyMDksMTEuMDgyMDkgeiBtIDAsLTMyLjg1NDQ1OCBjIDAsNi4xMjA0NjkgLTQuOTYxNjIsMTEuMDgyMDkgLTExLjA4MjA5LDExLjA4MjA4OSAtNi4xMjA0NywxMGUtNyAtMTEuMDgyMDksLTQuOTYxNjIgLTExLjA4MjA5LC0xMS4wODIwODkgMCwtNi4xMjA0NjkgNC45NjE2MiwtMTEuMDgyMDkwMyAxMS4wODIwOSwtMTEuMDgyMDg5NyA2LjEyMDQ3LC02ZS03IDExLjA4MjA5LDQuOTYxNjIwNyAxMS4wODIwOSwxMS4wODIwODk3IHogbSAxMDAuMDI5MTEsODQuMDA2Nzc0IGMgLTIuNzU1MTcsLTAuNDA1MDA0IC01LjU1ODM4LDAuMzAxMDcgLTcuNzkyOTYsMS45NjI4OSBsIC05NC43NDYxLDcwLjQzNzUgMTIuNTI5MywxNi44NTM1MiA5NC43NDYwOSwtNzAuNDM3NSBjIDQuNjU0MTIsLTMuNDU5NzggNS42MjIxNSwtMTAuMDM3NDggMi4xNjIxMSwtMTQuNjkxNDEgLTEuNjYxMzYsLTIuMjM1NTMgLTQuMTQyODcsLTMuNzE5MzcgLTYuODk4NDQsLTQuMTI1IHogTSAxODYuMzEwNTUsNzAuODY3MTg3IGMgLTUuNzk4OTksMCAtMTAuNSw0LjcwMTAxIC0xMC41LDEwLjUgdiAyOC45OTQxNDMgYyAwLDUuNzk4OTkgNC43MDEwMSwxMC41IDEwLjUsMTAuNSA1Ljc5ODk5LDAgMTAuNSwtNC43MDEwMSAxMC41LC0xMC41IFYgODEuMzY3MTg3IGMgMCwtNS43OTg5OSAtNC43MDEwMSwtMTAuNSAtMTAuNSwtMTAuNSB6IG0gMS4yZS00LDEwLjUwMDgyNyB2IDI4Ljk5NDAxNiIgc3R5bGU9ImNvbG9yOiMwMDAwMDA7b3BhY2l0eTowLjk5O2ZpbGw6Izc2OWVmNTtmaWxsLW9wYWNpdHk6MTtzdHJva2Utd2lkdGg6MjE7c3Ryb2tlLWxpbmVjYXA6cm91bmQ7c3Ryb2tlLWxpbmVqb2luOnJvdW5kOy1pbmtzY2FwZS1zdHJva2U6bm9uZSIgaWQ9InBhdGgxODQwLTMiLz4mI3hhOyAgICA8cGF0aCBkPSJtIDE4Ni4zNDU3LDE3MC42ODE2NCBjIC0xMi4wNDU3LDAgLTIxLjk2MDkzLDkuOTE1MjQgLTIxLjk2MDkzLDIxLjk2MDk0IDAsMTIuMDQ1NyA5LjkxNTIzLDIxLjk2MDk0IDIxLjk2MDkzLDIxLjk2MDk0IDEyLjA0NTcsMCAyMS45NjA5NCwtOS45MTUyNCAyMS45NjA5NCwtMjEuOTYwOTQgMCwtMTIuMDQ1NyAtOS45MTUyNCwtMjEuOTYwOTQgLTIxLjk2MDk0LC0yMS45NjA5NCB6IG0gMCwxNCBjIDQuNDc5NTUsMCA3Ljk2MDk0LDMuNDgxMzkgNy45NjA5NCw3Ljk2MDk0IDAsNC40Nzk1NSAtMy40ODEzOSw3Ljk2MDk0IC03Ljk2MDk0LDcuOTYwOTQgLTQuNDc5NTQsMCAtNy45NjA5MywtMy40ODEzOSAtNy45NjA5MywtNy45NjA5NCAwLC00LjQ3OTU1IDMuNDgxMzksLTcuOTYwOTQgNy45NjA5MywtNy45NjA5NCB6IE0gMjg2LjE2MTM3LDc2Ljc5MTAwOCBBIDExLjA4MjA4OSwxMS4wODIwODkgMCAwIDEgMjc1LjA3OTI4LDg3Ljg3MzA5NyAxMS4wODIwODksMTEuMDgyMDg5IDAgMCAxIDI2My45OTcyLDc2Ljc5MTAwOCAxMS4wODIwODksMTEuMDgyMDg5IDAgMCAxIDI3NS4wNzkyOCw2NS43MDg5MTkgMTEuMDgyMDg5LDExLjA4MjA4OSAwIDAgMSAyODYuMTYxMzcsNzYuNzkxMDA4IFogbSAwLC0zMy4xNDU0MzUgYSAxMS4wODIwODksMTEuMDgyMDg5IDAgMCAxIC0xMS4wODIwOSwxMS4wODIwODkgMTEuMDgyMDg5LDExLjA4MjA4OSAwIDAgMSAtMTEuMDgyMDgsLTExLjA4MjA4OSAxMS4wODIwODksMTEuMDgyMDg5IDAgMCAxIDExLjA4MjA4LC0xMS4wODIwOSAxMS4wODIwODksMTEuMDgyMDg5IDAgMCAxIDExLjA4MjA5LDExLjA4MjA5IHogbSAwLC05Mi40NjgyMjQgYSAxMS4wODIwODksMTEuMDgyMDg5IDAgMCAxIC0xMS4wODIwOSwxMS4wODIwOSAxMS4wODIwODksMTEuMDgyMDg5IDAgMCAxIC0xMS4wODIwOCwtMTEuMDgyMDkgMTEuMDgyMDg5LDExLjA4MjA4OSAwIDAgMSAxMS4wODIwOCwtMTEuMDgyMDg5IDExLjA4MjA4OSwxMS4wODIwODkgMCAwIDEgMTEuMDgyMDksMTEuMDgyMDg5IHogbSAtNDQuMjEzNjIsMzIuNTU3NzE2IGEgMTEuMDgyMDg5LDExLjA4MjA4OSAwIDAgMSAtMTEuMDgyMDksMTEuMDgyMDg5OSAxMS4wODIwODksMTEuMDgyMDg5IDAgMCAxIC0xMS4wODIwOSwtMTEuMDgyMDg5OSAxMS4wODIwODksMTEuMDgyMDg5IDAgMCAxIDExLjA4MjA5LC0xMS4wODIwODkgMTEuMDgyMDg5LDExLjA4MjA4OSAwIDAgMSAxMS4wODIwOSwxMS4wODIwODkgeiBtIDAsOTIuNTM1NDQzIGEgMTEuMDgyMDg5LDExLjA4MjA4OSAwIDAgMSAtMTEuMDgyMDksMTEuMDgyMDg5IDExLjA4MjA4OSwxMS4wODIwODkgMCAwIDEgLTExLjA4MjA5LC0xMS4wODIwODkgMTEuMDgyMDg5LDExLjA4MjA4OSAwIDAgMSAxMS4wODIwOSwtMTEuMDgyMDkgMTEuMDgyMDg5LDExLjA4MjA4OSAwIDAgMSAxMS4wODIwOSwxMS4wODIwOSB6IG0gMCwzMi44ODIzMTIgYSAxMS4wODIwODksMTEuMDgyMDg5IDAgMCAxIC0xMS4wODIwOSwxMS4wODIwOSAxMS4wODIwODksMTEuMDgyMDg5IDAgMCAxIC0xMS4wODIwOSwtMTEuMDgyMDkgMTEuMDgyMDg5LDExLjA4MjA4OSAwIDAgMSAxMS4wODIwOSwtMTEuMDgyMDkzIDExLjA4MjA4OSwxMS4wODIwODkgMCAwIDEgMTEuMDgyMDksMTEuMDgyMDkzIHogbSAzMy4xMzIzMywtMTM2LjU4ODM2NyBhIDEwLjUsMTAuNSAwIDAgMCAtMTAuNSwxMC41IHYgMjguOTk0MTQxIGEgMTAuNSwxMC41IDAgMCAwIDEwLjUsMTAuNSAxMC41LDEwLjUgMCAwIDAgMTAuNSwtMTAuNSB2IC0yOC45OTQxNDEgYSAxMC41LDEwLjUgMCAwIDAgLTEwLjUsLTEwLjUgeiBtIC04ZS00LDEwLjUwMDc1OSBWIDEyLjA1OTIyOSBNIDIzMC44NjUyMyw1LjI0MDIzNDQgYSAxMC41LDEwLjUgMCAwIDAgLTEwLjUsMTAuNDk5OTk5NiB2IDI4Ljk5NDE0MSBhIDEwLjUsMTAuNSAwIDAgMCAxMC41LDEwLjUgMTAuNSwxMC41IDAgMCAwIDEwLjUsLTEwLjUgViAxNS43NDAyMzQgYSAxMC41LDEwLjUgMCAwIDAgLTEwLjUsLTEwLjQ5OTk5OTYgeiBtIDQuMmUtNCwxMC40OTk0MzA2IHYgMjguOTk0MDE3IiBzdHlsZT0iY29sb3I6IzAwMDAwMDtvcGFjaXR5OjAuOTk7ZmlsbDojNTk4NmYyO2ZpbGwtb3BhY2l0eToxO3N0cm9rZS1saW5lY2FwOnJvdW5kO3N0cm9rZS1saW5lam9pbjpyb3VuZDstaW5rc2NhcGUtc3Ryb2tlOm5vbmUiIGlkPSJwYXRoMTg0MC04Ii8+JiN4YTsgIDwvZz4mI3hhOzwvc3ZnPg==;" vertex="1" parent="1">
          <mxGeometry x="976.5" y="559" width="37" height="42" as="geometry" />
        </mxCell>
        <mxCell id="d0G_s2lFXDd53nD6BOQX-3" value="Vertex AI" style="sketch=0;html=1;verticalAlign=top;labelPosition=center;verticalLabelPosition=bottom;align=center;spacingTop=-6;fontSize=11;fontStyle=1;fontColor=#999999;shape=image;aspect=fixed;imageAspect=0;image=data:image/svg+xml,PHN2ZyB4bWxucz0iaHR0cDovL3d3dy53My5vcmcvMjAwMC9zdmciIGlkPSJzdmc1IiB2ZXJzaW9uPSIxLjEiIHZpZXdCb3g9IjAgMCAyMzkuNzA4MjUgMjc0Ljg2MzI4IiBoZWlnaHQ9IjI3NC44NjMyOG1tIiB3aWR0aD0iMjM5LjcwODI1bW0iPiYjeGE7ICAmI3hhOyAgPGRlZnMgaWQ9ImRlZnMyIi8+JiN4YTsgIDxnIHRyYW5zZm9ybT0idHJhbnNsYXRlKC02Ni42ODYzNjEsNjAuMjU5NzY2KSIgaWQ9ImxheWVyMSI+JiN4YTsgICAgPGcgc3R5bGU9Im9wYWNpdHk6MC45OSIgaWQ9InBhdGg4NjkiLz4mI3hhOyAgICA8ZyBzdHlsZT0ib3BhY2l0eTowLjk5IiBpZD0icGF0aDg2OS0yIi8+JiN4YTsgICAgPGcgc3R5bGU9Im9wYWNpdHk6MC45OSIgaWQ9InBhdGg4NjktMyIvPiYjeGE7ICAgIDxnIHN0eWxlPSJvcGFjaXR5OjAuOTkiIGlkPSJwYXRoODY5LTEiLz4mI3hhOyAgICA8ZyBzdHlsZT0ib3BhY2l0eTowLjk5IiBpZD0icGF0aDg2OS04Ii8+JiN4YTsgICAgPGcgc3R5bGU9Im9wYWNpdHk6MC45OSIgaWQ9InBhdGg4NzEiPiYjeGE7ICAgICAgPHBhdGggaWQ9InBhdGgzMzU3IiBkPSJtIDc3LjE4Njc3NSwxMTAuODgyNTIgOTQuMjM5Njk1LDY5Ljc0NTc1IiBzdHlsZT0iY29sb3I6IzAwMDAwMDtmaWxsOiMwMDgwMDA7c3Ryb2tlLXdpZHRoOjIxO3N0cm9rZS1saW5lY2FwOnJvdW5kOy1pbmtzY2FwZS1zdHJva2U6bm9uZSIvPiYjeGE7ICAgIDwvZz4mI3hhOyAgICA8ZyBzdHlsZT0ib3BhY2l0eTowLjk5IiBpZD0icGF0aDg3MyIvPiYjeGE7ICAgIDxwYXRoIGQ9Im0gMTUzLjA4MTIsMTA5LjAzNTY4IGMgMCw2LjEyMDQ3IC00Ljk2MTYyLDExLjA4MjA5IC0xMS4wODIwOSwxMS4wODIwOSAtNi4xMjA0NywwIC0xMS4wODIwOCwtNC45NjE2MiAtMTEuMDgyMDgsLTExLjA4MjA5IDAsLTYuMTIwNDYgNC45NjE2MiwtMTEuMDgyMDgyIDExLjA4MjA4LC0xMS4wODIwODcgNi4xMjA0NywtMTBlLTcgMTEuMDgyMDksNC45NjE2MTcgMTEuMDgyMDksMTEuMDgyMDg3IHogbSAwLC05Mi41MTMzODEgYyAwLDYuMTIwNDY5IC00Ljk2MTYyLDExLjA4MjA5IC0xMS4wODIwOSwxMS4wODIwODkgLTYuMTIwNDcsLTVlLTYgLTExLjA4MjA4LC00Ljk2MTYyNCAtMTEuMDgyMDgsLTExLjA4MjA4OSAwLC02LjEyMDQ2NSA0Ljk2MTYxLC0xMS4wODIwODQ2IDExLjA4MjA4LC0xMS4wODIwODk2IDYuMTIwNDcsLTZlLTcgMTEuMDgyMDksNC45NjE2MjA2IDExLjA4MjA5LDExLjA4MjA4OTYgeiBtIDAsLTMyLjkyMTY4MyBjIDAsNi4xMjA0NjkgLTQuOTYxNjIsMTEuMDgyMDkwNSAtMTEuMDgyMDksMTEuMDgyMDg5OSAtNi4xMjA0NywtNWUtNiAtMTEuMDgyMDgsLTQuOTYxNjIzOSAtMTEuMDgyMDgsLTExLjA4MjA4OTkgMCwtNi4xMjA0NjUgNC45NjE2MSwtMTEuMDgyMDg0IDExLjA4MjA4LC0xMS4wODIwODkgNi4xMjA0NywtMTBlLTcgMTEuMDgyMDksNC45NjE2MiAxMS4wODIwOSwxMS4wODIwODkgeiBNIDEwOC43NDE4MSw3Ni43MTgwMSBjIDAsNi4xMjA0NjkgLTQuOTYxNjIsMTEuMDgyMDg5IC0xMS4wODIwODksMTEuMDgyMDg5IC02LjEyMDQ2OSwwIC0xMS4wODIwODksLTQuOTYxNjIgLTExLjA4MjA4OSwtMTEuMDgyMDg5IDAsLTYuMTIwNDY5IDQuOTYxNjIsLTExLjA4MjA4OSAxMS4wODIwODksLTExLjA4MjA4OSA2LjEyMDQ2OSwwIDExLjA4MjA4OSw0Ljk2MTYyIDExLjA4MjA4OSwxMS4wODIwODkgeiBtIDAsLTMyLjY4MDYyNiBjIDAsNi4xMjA0NjkgLTQuOTYxNjIsMTEuMDgyMDg5IC0xMS4wODIwODksMTEuMDgyMDg5IC02LjEyMDQ2OSwwIC0xMS4wODIwODksLTQuOTYxNjIgLTExLjA4MjA4OSwtMTEuMDgyMDg5IDAsLTYuMTIwNDY5IDQuOTYxNjIsLTExLjA4MjA4OSAxMS4wODIwODksLTExLjA4MjA4OSA2LjEyMDQ2OSwwIDExLjA4MjA4OSw0Ljk2MTYyIDExLjA4MjA4OSwxMS4wODIwODkgeiBtIDAsLTMyLjY3ODI0MyBjIDAsNi4xMjA0NjkgLTQuOTYxNjIsMTEuMDgyMDkgLTExLjA4MjA4OSwxMS4wODIwOSAtNi4xMjA0NjksMCAtMTEuMDgyMDksLTQuOTYxNjIxIC0xMS4wODIwODksLTExLjA4MjA5IDAsLTYuMTIwNDY4OCA0Ljk2MTYyLC0xMS4wODIwODkwNyAxMS4wODIwODksLTExLjA4MjA4OTA3IDYuMTIwNDY5LDAgMTEuMDgyMDg5LDQuOTYxNjIwMjcgMTEuMDgyMDg5LDExLjA4MjA4OTA3IHogTSAxNDIsMzcuNzc5Mjk3IGMgLTUuNzk4OTksMCAtMTAuNSw0LjcwMTAxIC0xMC41LDEwLjUgdiAyOC45OTQxNCBjIDAsNS43OTg5OSA0LjcwMTAxLDEwLjUgMTAuNSwxMC41IDUuNzk4OTksMCAxMC41LC00LjcwMTAxIDEwLjUsLTEwLjUgdiAtMjguOTk0MTQgYyAwLC01Ljc5ODk5IC00LjcwMTAxLC0xMC41IC0xMC41LC0xMC41IHogbSAtOC45ZS00LDEwLjUwMDM3NyBWIDc3LjI3MzY5MSBNIDk3LjY2MDE1NiwtNjAuMjU5NzY2IGMgLTUuNzk4OTksMCAtMTAuNSw0LjcwMTAxIC0xMC41LDEwLjUgdiAyOC45OTQxNDEgYyAwLDUuNzk4OTkgNC43MDEwMSwxMC41IDEwLjUsMTAuNSA1Ljc5ODk5NCwyZS02IDEwLjUwMDAwNCwtNC43MDEwMDkgMTAuNTAwMDA0LC0xMC41IHYgLTI4Ljk5NDE0MSBjIDAsLTUuNzk4OTkxIC00LjcwMTAxLC0xMC41MDAwMDIgLTEwLjUwMDAwNCwtMTAuNSB6IG0gLTQuMzVlLTQsMTAuNDk5NzY1IHYgMjguOTk0MDE3IE0gNzUuNjM0NzY2LDEwMC40OTgwNSBjIC0yLjc1NDE5MSwwLjQxMTQ4IC01LjIzMjExOSwxLjkwMDIxIC02Ljg4ODY3Miw0LjEzODY3IC0zLjQ0ODg3NCw0LjY2MTU3IC0yLjQ2NjAyNCwxMS4yMzYzNSAyLjE5NTMxMiwxNC42ODU1NSBsIDk0LjIzODI4NCw2OS43NDYwOSAxMi43ODYwNCwtMTYuNjY2NTkgLTk0LjUzMjEzNiwtNjkuOTU4NDEgYyAtMi4yMzg2OTksLTEuNjU3MTYgLTUuMDQ0MTAxLC0yLjM1NjkzIC03Ljc5ODgyOCwtMS45NDUzMSB6IiBzdHlsZT0iY29sb3I6IzAwMDAwMDtvcGFjaXR5OjAuOTk7ZmlsbDojYjVjYmY5O2ZpbGwtb3BhY2l0eToxO3N0cm9rZS13aWR0aDoyMTtzdHJva2UtbGluZWNhcDpyb3VuZDtzdHJva2UtbGluZWpvaW46cm91bmQ7LWlua3NjYXBlLXN0cm9rZTpub25lIiBpZD0icGF0aDE4NDAtNSIvPiYjeGE7ICAgIDxwYXRoIGQ9Im0gMTk3LjM5Mjc2LDE0MS45NzM2NiBjIDAsNi4xMjA0NyAtNC45NjE2MiwxMS4wODIwOSAtMTEuMDgyMDksMTEuMDgyMDkgLTYuMTIwNDcsMCAtMTEuMDgyMDksLTQuOTYxNjIgLTExLjA4MjA5LC0xMS4wODIwOSAwLC02LjEyMDQ3IDQuOTYxNjIsLTExLjA4MjA5IDExLjA4MjA5LC0xMS4wODIwOSA2LjEyMDQ3LDAgMTEuMDgyMDksNC45NjE2MiAxMS4wODIwOSwxMS4wODIwOSB6IG0gMCwtOTIuNzI1NTg2IGMgMCw2LjEyMDQ2OSAtNC45NjE2MiwxMS4wODIwOSAtMTEuMDgyMDksMTEuMDgyMDg5IC02LjEyMDQ3LDFlLTYgLTExLjA4MjA5LC00Ljk2MTYyIC0xMS4wODIwOSwtMTEuMDgyMDg5IDAsLTYuMTIwNDcgNC45NjE2MiwtMTEuMDgyMDkxIDExLjA4MjA5LC0xMS4wODIwOSA2LjEyMDQ3LC0xZS02IDExLjA4MjA5LDQuOTYxNjIgMTEuMDgyMDksMTEuMDgyMDkgeiBtIDAsLTMyLjg1NDQ1OCBjIDAsNi4xMjA0NjkgLTQuOTYxNjIsMTEuMDgyMDkgLTExLjA4MjA5LDExLjA4MjA4OSAtNi4xMjA0NywxMGUtNyAtMTEuMDgyMDksLTQuOTYxNjIgLTExLjA4MjA5LC0xMS4wODIwODkgMCwtNi4xMjA0NjkgNC45NjE2MiwtMTEuMDgyMDkwMyAxMS4wODIwOSwtMTEuMDgyMDg5NyA2LjEyMDQ3LC02ZS03IDExLjA4MjA5LDQuOTYxNjIwNyAxMS4wODIwOSwxMS4wODIwODk3IHogbSAxMDAuMDI5MTEsODQuMDA2Nzc0IGMgLTIuNzU1MTcsLTAuNDA1MDA0IC01LjU1ODM4LDAuMzAxMDcgLTcuNzkyOTYsMS45NjI4OSBsIC05NC43NDYxLDcwLjQzNzUgMTIuNTI5MywxNi44NTM1MiA5NC43NDYwOSwtNzAuNDM3NSBjIDQuNjU0MTIsLTMuNDU5NzggNS42MjIxNSwtMTAuMDM3NDggMi4xNjIxMSwtMTQuNjkxNDEgLTEuNjYxMzYsLTIuMjM1NTMgLTQuMTQyODcsLTMuNzE5MzcgLTYuODk4NDQsLTQuMTI1IHogTSAxODYuMzEwNTUsNzAuODY3MTg3IGMgLTUuNzk4OTksMCAtMTAuNSw0LjcwMTAxIC0xMC41LDEwLjUgdiAyOC45OTQxNDMgYyAwLDUuNzk4OTkgNC43MDEwMSwxMC41IDEwLjUsMTAuNSA1Ljc5ODk5LDAgMTAuNSwtNC43MDEwMSAxMC41LC0xMC41IFYgODEuMzY3MTg3IGMgMCwtNS43OTg5OSAtNC43MDEwMSwtMTAuNSAtMTAuNSwtMTAuNSB6IG0gMS4yZS00LDEwLjUwMDgyNyB2IDI4Ljk5NDAxNiIgc3R5bGU9ImNvbG9yOiMwMDAwMDA7b3BhY2l0eTowLjk5O2ZpbGw6Izc2OWVmNTtmaWxsLW9wYWNpdHk6MTtzdHJva2Utd2lkdGg6MjE7c3Ryb2tlLWxpbmVjYXA6cm91bmQ7c3Ryb2tlLWxpbmVqb2luOnJvdW5kOy1pbmtzY2FwZS1zdHJva2U6bm9uZSIgaWQ9InBhdGgxODQwLTMiLz4mI3hhOyAgICA8cGF0aCBkPSJtIDE4Ni4zNDU3LDE3MC42ODE2NCBjIC0xMi4wNDU3LDAgLTIxLjk2MDkzLDkuOTE1MjQgLTIxLjk2MDkzLDIxLjk2MDk0IDAsMTIuMDQ1NyA5LjkxNTIzLDIxLjk2MDk0IDIxLjk2MDkzLDIxLjk2MDk0IDEyLjA0NTcsMCAyMS45NjA5NCwtOS45MTUyNCAyMS45NjA5NCwtMjEuOTYwOTQgMCwtMTIuMDQ1NyAtOS45MTUyNCwtMjEuOTYwOTQgLTIxLjk2MDk0LC0yMS45NjA5NCB6IG0gMCwxNCBjIDQuNDc5NTUsMCA3Ljk2MDk0LDMuNDgxMzkgNy45NjA5NCw3Ljk2MDk0IDAsNC40Nzk1NSAtMy40ODEzOSw3Ljk2MDk0IC03Ljk2MDk0LDcuOTYwOTQgLTQuNDc5NTQsMCAtNy45NjA5MywtMy40ODEzOSAtNy45NjA5MywtNy45NjA5NCAwLC00LjQ3OTU1IDMuNDgxMzksLTcuOTYwOTQgNy45NjA5MywtNy45NjA5NCB6IE0gMjg2LjE2MTM3LDc2Ljc5MTAwOCBBIDExLjA4MjA4OSwxMS4wODIwODkgMCAwIDEgMjc1LjA3OTI4LDg3Ljg3MzA5NyAxMS4wODIwODksMTEuMDgyMDg5IDAgMCAxIDI2My45OTcyLDc2Ljc5MTAwOCAxMS4wODIwODksMTEuMDgyMDg5IDAgMCAxIDI3NS4wNzkyOCw2NS43MDg5MTkgMTEuMDgyMDg5LDExLjA4MjA4OSAwIDAgMSAyODYuMTYxMzcsNzYuNzkxMDA4IFogbSAwLC0zMy4xNDU0MzUgYSAxMS4wODIwODksMTEuMDgyMDg5IDAgMCAxIC0xMS4wODIwOSwxMS4wODIwODkgMTEuMDgyMDg5LDExLjA4MjA4OSAwIDAgMSAtMTEuMDgyMDgsLTExLjA4MjA4OSAxMS4wODIwODksMTEuMDgyMDg5IDAgMCAxIDExLjA4MjA4LC0xMS4wODIwOSAxMS4wODIwODksMTEuMDgyMDg5IDAgMCAxIDExLjA4MjA5LDExLjA4MjA5IHogbSAwLC05Mi40NjgyMjQgYSAxMS4wODIwODksMTEuMDgyMDg5IDAgMCAxIC0xMS4wODIwOSwxMS4wODIwOSAxMS4wODIwODksMTEuMDgyMDg5IDAgMCAxIC0xMS4wODIwOCwtMTEuMDgyMDkgMTEuMDgyMDg5LDExLjA4MjA4OSAwIDAgMSAxMS4wODIwOCwtMTEuMDgyMDg5IDExLjA4MjA4OSwxMS4wODIwODkgMCAwIDEgMTEuMDgyMDksMTEuMDgyMDg5IHogbSAtNDQuMjEzNjIsMzIuNTU3NzE2IGEgMTEuMDgyMDg5LDExLjA4MjA4OSAwIDAgMSAtMTEuMDgyMDksMTEuMDgyMDg5OSAxMS4wODIwODksMTEuMDgyMDg5IDAgMCAxIC0xMS4wODIwOSwtMTEuMDgyMDg5OSAxMS4wODIwODksMTEuMDgyMDg5IDAgMCAxIDExLjA4MjA5LC0xMS4wODIwODkgMTEuMDgyMDg5LDExLjA4MjA4OSAwIDAgMSAxMS4wODIwOSwxMS4wODIwODkgeiBtIDAsOTIuNTM1NDQzIGEgMTEuMDgyMDg5LDExLjA4MjA4OSAwIDAgMSAtMTEuMDgyMDksMTEuMDgyMDg5IDExLjA4MjA4OSwxMS4wODIwODkgMCAwIDEgLTExLjA4MjA5LC0xMS4wODIwODkgMTEuMDgyMDg5LDExLjA4MjA4OSAwIDAgMSAxMS4wODIwOSwtMTEuMDgyMDkgMTEuMDgyMDg5LDExLjA4MjA4OSAwIDAgMSAxMS4wODIwOSwxMS4wODIwOSB6IG0gMCwzMi44ODIzMTIgYSAxMS4wODIwODksMTEuMDgyMDg5IDAgMCAxIC0xMS4wODIwOSwxMS4wODIwOSAxMS4wODIwODksMTEuMDgyMDg5IDAgMCAxIC0xMS4wODIwOSwtMTEuMDgyMDkgMTEuMDgyMDg5LDExLjA4MjA4OSAwIDAgMSAxMS4wODIwOSwtMTEuMDgyMDkzIDExLjA4MjA4OSwxMS4wODIwODkgMCAwIDEgMTEuMDgyMDksMTEuMDgyMDkzIHogbSAzMy4xMzIzMywtMTM2LjU4ODM2NyBhIDEwLjUsMTAuNSAwIDAgMCAtMTAuNSwxMC41IHYgMjguOTk0MTQxIGEgMTAuNSwxMC41IDAgMCAwIDEwLjUsMTAuNSAxMC41LDEwLjUgMCAwIDAgMTAuNSwtMTAuNSB2IC0yOC45OTQxNDEgYSAxMC41LDEwLjUgMCAwIDAgLTEwLjUsLTEwLjUgeiBtIC04ZS00LDEwLjUwMDc1OSBWIDEyLjA1OTIyOSBNIDIzMC44NjUyMyw1LjI0MDIzNDQgYSAxMC41LDEwLjUgMCAwIDAgLTEwLjUsMTAuNDk5OTk5NiB2IDI4Ljk5NDE0MSBhIDEwLjUsMTAuNSAwIDAgMCAxMC41LDEwLjUgMTAuNSwxMC41IDAgMCAwIDEwLjUsLTEwLjUgViAxNS43NDAyMzQgYSAxMC41LDEwLjUgMCAwIDAgLTEwLjUsLTEwLjQ5OTk5OTYgeiBtIDQuMmUtNCwxMC40OTk0MzA2IHYgMjguOTk0MDE3IiBzdHlsZT0iY29sb3I6IzAwMDAwMDtvcGFjaXR5OjAuOTk7ZmlsbDojNTk4NmYyO2ZpbGwtb3BhY2l0eToxO3N0cm9rZS1saW5lY2FwOnJvdW5kO3N0cm9rZS1saW5lam9pbjpyb3VuZDstaW5rc2NhcGUtc3Ryb2tlOm5vbmUiIGlkPSJwYXRoMTg0MC04Ii8+JiN4YTsgIDwvZz4mI3hhOzwvc3ZnPg==;" vertex="1" parent="1">
          <mxGeometry x="858.85" y="640" width="37" height="42" as="geometry" />
        </mxCell>
        <mxCell id="d0G_s2lFXDd53nD6BOQX-4" value="Model&lt;div&gt;Registry&lt;/div&gt;" style="text;html=1;align=center;verticalAlign=middle;resizable=0;points=[];autosize=1;strokeColor=none;fillColor=none;" vertex="1" parent="1">
          <mxGeometry x="847.2" y="690" width="70" height="40" as="geometry" />
        </mxCell>
        <mxCell id="d0G_s2lFXDd53nD6BOQX-5" value="Feature&amp;nbsp;&lt;div&gt;registry&lt;/div&gt;" style="text;html=1;align=center;verticalAlign=middle;resizable=0;points=[];autosize=1;strokeColor=none;fillColor=none;" vertex="1" parent="1">
          <mxGeometry x="960" y="610" width="70" height="40" as="geometry" />
        </mxCell>
        <mxCell id="d0G_s2lFXDd53nD6BOQX-6" value="AutoML&lt;div&gt;Tensorflow&lt;/div&gt;&lt;div&gt;PyTorch&lt;/div&gt;" style="text;html=1;align=center;verticalAlign=middle;resizable=0;points=[];autosize=1;strokeColor=none;fillColor=none;" vertex="1" parent="1">
          <mxGeometry x="837.35" y="502" width="80" height="60" as="geometry" />
        </mxCell>
        <mxCell id="d0G_s2lFXDd53nD6BOQX-13" value="" style="endArrow=classic;html=1;rounded=0;strokeColor=#666666;strokeWidth=2;flowAnimation=1;entryX=0.436;entryY=1.043;entryDx=0;entryDy=0;entryPerimeter=0;" edge="1" parent="1" source="d0G_s2lFXDd53nD6BOQX-30" target="eAZYdMzIZOF0PukDBkYk-63">
          <mxGeometry width="50" height="50" relative="1" as="geometry">
            <mxPoint x="645" y="620" as="sourcePoint" />
            <mxPoint x="450" y="640" as="targetPoint" />
            <Array as="points">
              <mxPoint x="450" y="661" />
            </Array>
          </mxGeometry>
        </mxCell>
        <mxCell id="d0G_s2lFXDd53nD6BOQX-15" value="Vertex AI" style="sketch=0;html=1;verticalAlign=top;labelPosition=center;verticalLabelPosition=bottom;align=center;spacingTop=-6;fontSize=11;fontStyle=1;fontColor=#999999;shape=image;aspect=fixed;imageAspect=0;image=data:image/svg+xml,PHN2ZyB4bWxucz0iaHR0cDovL3d3dy53My5vcmcvMjAwMC9zdmciIGlkPSJzdmc1IiB2ZXJzaW9uPSIxLjEiIHZpZXdCb3g9IjAgMCAyMzkuNzA4MjUgMjc0Ljg2MzI4IiBoZWlnaHQ9IjI3NC44NjMyOG1tIiB3aWR0aD0iMjM5LjcwODI1bW0iPiYjeGE7ICAmI3hhOyAgPGRlZnMgaWQ9ImRlZnMyIi8+JiN4YTsgIDxnIHRyYW5zZm9ybT0idHJhbnNsYXRlKC02Ni42ODYzNjEsNjAuMjU5NzY2KSIgaWQ9ImxheWVyMSI+JiN4YTsgICAgPGcgc3R5bGU9Im9wYWNpdHk6MC45OSIgaWQ9InBhdGg4NjkiLz4mI3hhOyAgICA8ZyBzdHlsZT0ib3BhY2l0eTowLjk5IiBpZD0icGF0aDg2OS0yIi8+JiN4YTsgICAgPGcgc3R5bGU9Im9wYWNpdHk6MC45OSIgaWQ9InBhdGg4NjktMyIvPiYjeGE7ICAgIDxnIHN0eWxlPSJvcGFjaXR5OjAuOTkiIGlkPSJwYXRoODY5LTEiLz4mI3hhOyAgICA8ZyBzdHlsZT0ib3BhY2l0eTowLjk5IiBpZD0icGF0aDg2OS04Ii8+JiN4YTsgICAgPGcgc3R5bGU9Im9wYWNpdHk6MC45OSIgaWQ9InBhdGg4NzEiPiYjeGE7ICAgICAgPHBhdGggaWQ9InBhdGgzMzU3IiBkPSJtIDc3LjE4Njc3NSwxMTAuODgyNTIgOTQuMjM5Njk1LDY5Ljc0NTc1IiBzdHlsZT0iY29sb3I6IzAwMDAwMDtmaWxsOiMwMDgwMDA7c3Ryb2tlLXdpZHRoOjIxO3N0cm9rZS1saW5lY2FwOnJvdW5kOy1pbmtzY2FwZS1zdHJva2U6bm9uZSIvPiYjeGE7ICAgIDwvZz4mI3hhOyAgICA8ZyBzdHlsZT0ib3BhY2l0eTowLjk5IiBpZD0icGF0aDg3MyIvPiYjeGE7ICAgIDxwYXRoIGQ9Im0gMTUzLjA4MTIsMTA5LjAzNTY4IGMgMCw2LjEyMDQ3IC00Ljk2MTYyLDExLjA4MjA5IC0xMS4wODIwOSwxMS4wODIwOSAtNi4xMjA0NywwIC0xMS4wODIwOCwtNC45NjE2MiAtMTEuMDgyMDgsLTExLjA4MjA5IDAsLTYuMTIwNDYgNC45NjE2MiwtMTEuMDgyMDgyIDExLjA4MjA4LC0xMS4wODIwODcgNi4xMjA0NywtMTBlLTcgMTEuMDgyMDksNC45NjE2MTcgMTEuMDgyMDksMTEuMDgyMDg3IHogbSAwLC05Mi41MTMzODEgYyAwLDYuMTIwNDY5IC00Ljk2MTYyLDExLjA4MjA5IC0xMS4wODIwOSwxMS4wODIwODkgLTYuMTIwNDcsLTVlLTYgLTExLjA4MjA4LC00Ljk2MTYyNCAtMTEuMDgyMDgsLTExLjA4MjA4OSAwLC02LjEyMDQ2NSA0Ljk2MTYxLC0xMS4wODIwODQ2IDExLjA4MjA4LC0xMS4wODIwODk2IDYuMTIwNDcsLTZlLTcgMTEuMDgyMDksNC45NjE2MjA2IDExLjA4MjA5LDExLjA4MjA4OTYgeiBtIDAsLTMyLjkyMTY4MyBjIDAsNi4xMjA0NjkgLTQuOTYxNjIsMTEuMDgyMDkwNSAtMTEuMDgyMDksMTEuMDgyMDg5OSAtNi4xMjA0NywtNWUtNiAtMTEuMDgyMDgsLTQuOTYxNjIzOSAtMTEuMDgyMDgsLTExLjA4MjA4OTkgMCwtNi4xMjA0NjUgNC45NjE2MSwtMTEuMDgyMDg0IDExLjA4MjA4LC0xMS4wODIwODkgNi4xMjA0NywtMTBlLTcgMTEuMDgyMDksNC45NjE2MiAxMS4wODIwOSwxMS4wODIwODkgeiBNIDEwOC43NDE4MSw3Ni43MTgwMSBjIDAsNi4xMjA0NjkgLTQuOTYxNjIsMTEuMDgyMDg5IC0xMS4wODIwODksMTEuMDgyMDg5IC02LjEyMDQ2OSwwIC0xMS4wODIwODksLTQuOTYxNjIgLTExLjA4MjA4OSwtMTEuMDgyMDg5IDAsLTYuMTIwNDY5IDQuOTYxNjIsLTExLjA4MjA4OSAxMS4wODIwODksLTExLjA4MjA4OSA2LjEyMDQ2OSwwIDExLjA4MjA4OSw0Ljk2MTYyIDExLjA4MjA4OSwxMS4wODIwODkgeiBtIDAsLTMyLjY4MDYyNiBjIDAsNi4xMjA0NjkgLTQuOTYxNjIsMTEuMDgyMDg5IC0xMS4wODIwODksMTEuMDgyMDg5IC02LjEyMDQ2OSwwIC0xMS4wODIwODksLTQuOTYxNjIgLTExLjA4MjA4OSwtMTEuMDgyMDg5IDAsLTYuMTIwNDY5IDQuOTYxNjIsLTExLjA4MjA4OSAxMS4wODIwODksLTExLjA4MjA4OSA2LjEyMDQ2OSwwIDExLjA4MjA4OSw0Ljk2MTYyIDExLjA4MjA4OSwxMS4wODIwODkgeiBtIDAsLTMyLjY3ODI0MyBjIDAsNi4xMjA0NjkgLTQuOTYxNjIsMTEuMDgyMDkgLTExLjA4MjA4OSwxMS4wODIwOSAtNi4xMjA0NjksMCAtMTEuMDgyMDksLTQuOTYxNjIxIC0xMS4wODIwODksLTExLjA4MjA5IDAsLTYuMTIwNDY4OCA0Ljk2MTYyLC0xMS4wODIwODkwNyAxMS4wODIwODksLTExLjA4MjA4OTA3IDYuMTIwNDY5LDAgMTEuMDgyMDg5LDQuOTYxNjIwMjcgMTEuMDgyMDg5LDExLjA4MjA4OTA3IHogTSAxNDIsMzcuNzc5Mjk3IGMgLTUuNzk4OTksMCAtMTAuNSw0LjcwMTAxIC0xMC41LDEwLjUgdiAyOC45OTQxNCBjIDAsNS43OTg5OSA0LjcwMTAxLDEwLjUgMTAuNSwxMC41IDUuNzk4OTksMCAxMC41LC00LjcwMTAxIDEwLjUsLTEwLjUgdiAtMjguOTk0MTQgYyAwLC01Ljc5ODk5IC00LjcwMTAxLC0xMC41IC0xMC41LC0xMC41IHogbSAtOC45ZS00LDEwLjUwMDM3NyBWIDc3LjI3MzY5MSBNIDk3LjY2MDE1NiwtNjAuMjU5NzY2IGMgLTUuNzk4OTksMCAtMTAuNSw0LjcwMTAxIC0xMC41LDEwLjUgdiAyOC45OTQxNDEgYyAwLDUuNzk4OTkgNC43MDEwMSwxMC41IDEwLjUsMTAuNSA1Ljc5ODk5NCwyZS02IDEwLjUwMDAwNCwtNC43MDEwMDkgMTAuNTAwMDA0LC0xMC41IHYgLTI4Ljk5NDE0MSBjIDAsLTUuNzk4OTkxIC00LjcwMTAxLC0xMC41MDAwMDIgLTEwLjUwMDAwNCwtMTAuNSB6IG0gLTQuMzVlLTQsMTAuNDk5NzY1IHYgMjguOTk0MDE3IE0gNzUuNjM0NzY2LDEwMC40OTgwNSBjIC0yLjc1NDE5MSwwLjQxMTQ4IC01LjIzMjExOSwxLjkwMDIxIC02Ljg4ODY3Miw0LjEzODY3IC0zLjQ0ODg3NCw0LjY2MTU3IC0yLjQ2NjAyNCwxMS4yMzYzNSAyLjE5NTMxMiwxNC42ODU1NSBsIDk0LjIzODI4NCw2OS43NDYwOSAxMi43ODYwNCwtMTYuNjY2NTkgLTk0LjUzMjEzNiwtNjkuOTU4NDEgYyAtMi4yMzg2OTksLTEuNjU3MTYgLTUuMDQ0MTAxLC0yLjM1NjkzIC03Ljc5ODgyOCwtMS45NDUzMSB6IiBzdHlsZT0iY29sb3I6IzAwMDAwMDtvcGFjaXR5OjAuOTk7ZmlsbDojYjVjYmY5O2ZpbGwtb3BhY2l0eToxO3N0cm9rZS13aWR0aDoyMTtzdHJva2UtbGluZWNhcDpyb3VuZDtzdHJva2UtbGluZWpvaW46cm91bmQ7LWlua3NjYXBlLXN0cm9rZTpub25lIiBpZD0icGF0aDE4NDAtNSIvPiYjeGE7ICAgIDxwYXRoIGQ9Im0gMTk3LjM5Mjc2LDE0MS45NzM2NiBjIDAsNi4xMjA0NyAtNC45NjE2MiwxMS4wODIwOSAtMTEuMDgyMDksMTEuMDgyMDkgLTYuMTIwNDcsMCAtMTEuMDgyMDksLTQuOTYxNjIgLTExLjA4MjA5LC0xMS4wODIwOSAwLC02LjEyMDQ3IDQuOTYxNjIsLTExLjA4MjA5IDExLjA4MjA5LC0xMS4wODIwOSA2LjEyMDQ3LDAgMTEuMDgyMDksNC45NjE2MiAxMS4wODIwOSwxMS4wODIwOSB6IG0gMCwtOTIuNzI1NTg2IGMgMCw2LjEyMDQ2OSAtNC45NjE2MiwxMS4wODIwOSAtMTEuMDgyMDksMTEuMDgyMDg5IC02LjEyMDQ3LDFlLTYgLTExLjA4MjA5LC00Ljk2MTYyIC0xMS4wODIwOSwtMTEuMDgyMDg5IDAsLTYuMTIwNDcgNC45NjE2MiwtMTEuMDgyMDkxIDExLjA4MjA5LC0xMS4wODIwOSA2LjEyMDQ3LC0xZS02IDExLjA4MjA5LDQuOTYxNjIgMTEuMDgyMDksMTEuMDgyMDkgeiBtIDAsLTMyLjg1NDQ1OCBjIDAsNi4xMjA0NjkgLTQuOTYxNjIsMTEuMDgyMDkgLTExLjA4MjA5LDExLjA4MjA4OSAtNi4xMjA0NywxMGUtNyAtMTEuMDgyMDksLTQuOTYxNjIgLTExLjA4MjA5LC0xMS4wODIwODkgMCwtNi4xMjA0NjkgNC45NjE2MiwtMTEuMDgyMDkwMyAxMS4wODIwOSwtMTEuMDgyMDg5NyA2LjEyMDQ3LC02ZS03IDExLjA4MjA5LDQuOTYxNjIwNyAxMS4wODIwOSwxMS4wODIwODk3IHogbSAxMDAuMDI5MTEsODQuMDA2Nzc0IGMgLTIuNzU1MTcsLTAuNDA1MDA0IC01LjU1ODM4LDAuMzAxMDcgLTcuNzkyOTYsMS45NjI4OSBsIC05NC43NDYxLDcwLjQzNzUgMTIuNTI5MywxNi44NTM1MiA5NC43NDYwOSwtNzAuNDM3NSBjIDQuNjU0MTIsLTMuNDU5NzggNS42MjIxNSwtMTAuMDM3NDggMi4xNjIxMSwtMTQuNjkxNDEgLTEuNjYxMzYsLTIuMjM1NTMgLTQuMTQyODcsLTMuNzE5MzcgLTYuODk4NDQsLTQuMTI1IHogTSAxODYuMzEwNTUsNzAuODY3MTg3IGMgLTUuNzk4OTksMCAtMTAuNSw0LjcwMTAxIC0xMC41LDEwLjUgdiAyOC45OTQxNDMgYyAwLDUuNzk4OTkgNC43MDEwMSwxMC41IDEwLjUsMTAuNSA1Ljc5ODk5LDAgMTAuNSwtNC43MDEwMSAxMC41LC0xMC41IFYgODEuMzY3MTg3IGMgMCwtNS43OTg5OSAtNC43MDEwMSwtMTAuNSAtMTAuNSwtMTAuNSB6IG0gMS4yZS00LDEwLjUwMDgyNyB2IDI4Ljk5NDAxNiIgc3R5bGU9ImNvbG9yOiMwMDAwMDA7b3BhY2l0eTowLjk5O2ZpbGw6Izc2OWVmNTtmaWxsLW9wYWNpdHk6MTtzdHJva2Utd2lkdGg6MjE7c3Ryb2tlLWxpbmVjYXA6cm91bmQ7c3Ryb2tlLWxpbmVqb2luOnJvdW5kOy1pbmtzY2FwZS1zdHJva2U6bm9uZSIgaWQ9InBhdGgxODQwLTMiLz4mI3hhOyAgICA8cGF0aCBkPSJtIDE4Ni4zNDU3LDE3MC42ODE2NCBjIC0xMi4wNDU3LDAgLTIxLjk2MDkzLDkuOTE1MjQgLTIxLjk2MDkzLDIxLjk2MDk0IDAsMTIuMDQ1NyA5LjkxNTIzLDIxLjk2MDk0IDIxLjk2MDkzLDIxLjk2MDk0IDEyLjA0NTcsMCAyMS45NjA5NCwtOS45MTUyNCAyMS45NjA5NCwtMjEuOTYwOTQgMCwtMTIuMDQ1NyAtOS45MTUyNCwtMjEuOTYwOTQgLTIxLjk2MDk0LC0yMS45NjA5NCB6IG0gMCwxNCBjIDQuNDc5NTUsMCA3Ljk2MDk0LDMuNDgxMzkgNy45NjA5NCw3Ljk2MDk0IDAsNC40Nzk1NSAtMy40ODEzOSw3Ljk2MDk0IC03Ljk2MDk0LDcuOTYwOTQgLTQuNDc5NTQsMCAtNy45NjA5MywtMy40ODEzOSAtNy45NjA5MywtNy45NjA5NCAwLC00LjQ3OTU1IDMuNDgxMzksLTcuOTYwOTQgNy45NjA5MywtNy45NjA5NCB6IE0gMjg2LjE2MTM3LDc2Ljc5MTAwOCBBIDExLjA4MjA4OSwxMS4wODIwODkgMCAwIDEgMjc1LjA3OTI4LDg3Ljg3MzA5NyAxMS4wODIwODksMTEuMDgyMDg5IDAgMCAxIDI2My45OTcyLDc2Ljc5MTAwOCAxMS4wODIwODksMTEuMDgyMDg5IDAgMCAxIDI3NS4wNzkyOCw2NS43MDg5MTkgMTEuMDgyMDg5LDExLjA4MjA4OSAwIDAgMSAyODYuMTYxMzcsNzYuNzkxMDA4IFogbSAwLC0zMy4xNDU0MzUgYSAxMS4wODIwODksMTEuMDgyMDg5IDAgMCAxIC0xMS4wODIwOSwxMS4wODIwODkgMTEuMDgyMDg5LDExLjA4MjA4OSAwIDAgMSAtMTEuMDgyMDgsLTExLjA4MjA4OSAxMS4wODIwODksMTEuMDgyMDg5IDAgMCAxIDExLjA4MjA4LC0xMS4wODIwOSAxMS4wODIwODksMTEuMDgyMDg5IDAgMCAxIDExLjA4MjA5LDExLjA4MjA5IHogbSAwLC05Mi40NjgyMjQgYSAxMS4wODIwODksMTEuMDgyMDg5IDAgMCAxIC0xMS4wODIwOSwxMS4wODIwOSAxMS4wODIwODksMTEuMDgyMDg5IDAgMCAxIC0xMS4wODIwOCwtMTEuMDgyMDkgMTEuMDgyMDg5LDExLjA4MjA4OSAwIDAgMSAxMS4wODIwOCwtMTEuMDgyMDg5IDExLjA4MjA4OSwxMS4wODIwODkgMCAwIDEgMTEuMDgyMDksMTEuMDgyMDg5IHogbSAtNDQuMjEzNjIsMzIuNTU3NzE2IGEgMTEuMDgyMDg5LDExLjA4MjA4OSAwIDAgMSAtMTEuMDgyMDksMTEuMDgyMDg5OSAxMS4wODIwODksMTEuMDgyMDg5IDAgMCAxIC0xMS4wODIwOSwtMTEuMDgyMDg5OSAxMS4wODIwODksMTEuMDgyMDg5IDAgMCAxIDExLjA4MjA5LC0xMS4wODIwODkgMTEuMDgyMDg5LDExLjA4MjA4OSAwIDAgMSAxMS4wODIwOSwxMS4wODIwODkgeiBtIDAsOTIuNTM1NDQzIGEgMTEuMDgyMDg5LDExLjA4MjA4OSAwIDAgMSAtMTEuMDgyMDksMTEuMDgyMDg5IDExLjA4MjA4OSwxMS4wODIwODkgMCAwIDEgLTExLjA4MjA5LC0xMS4wODIwODkgMTEuMDgyMDg5LDExLjA4MjA4OSAwIDAgMSAxMS4wODIwOSwtMTEuMDgyMDkgMTEuMDgyMDg5LDExLjA4MjA4OSAwIDAgMSAxMS4wODIwOSwxMS4wODIwOSB6IG0gMCwzMi44ODIzMTIgYSAxMS4wODIwODksMTEuMDgyMDg5IDAgMCAxIC0xMS4wODIwOSwxMS4wODIwOSAxMS4wODIwODksMTEuMDgyMDg5IDAgMCAxIC0xMS4wODIwOSwtMTEuMDgyMDkgMTEuMDgyMDg5LDExLjA4MjA4OSAwIDAgMSAxMS4wODIwOSwtMTEuMDgyMDkzIDExLjA4MjA4OSwxMS4wODIwODkgMCAwIDEgMTEuMDgyMDksMTEuMDgyMDkzIHogbSAzMy4xMzIzMywtMTM2LjU4ODM2NyBhIDEwLjUsMTAuNSAwIDAgMCAtMTAuNSwxMC41IHYgMjguOTk0MTQxIGEgMTAuNSwxMC41IDAgMCAwIDEwLjUsMTAuNSAxMC41LDEwLjUgMCAwIDAgMTAuNSwtMTAuNSB2IC0yOC45OTQxNDEgYSAxMC41LDEwLjUgMCAwIDAgLTEwLjUsLTEwLjUgeiBtIC04ZS00LDEwLjUwMDc1OSBWIDEyLjA1OTIyOSBNIDIzMC44NjUyMyw1LjI0MDIzNDQgYSAxMC41LDEwLjUgMCAwIDAgLTEwLjUsMTAuNDk5OTk5NiB2IDI4Ljk5NDE0MSBhIDEwLjUsMTAuNSAwIDAgMCAxMC41LDEwLjUgMTAuNSwxMC41IDAgMCAwIDEwLjUsLTEwLjUgViAxNS43NDAyMzQgYSAxMC41LDEwLjUgMCAwIDAgLTEwLjUsLTEwLjQ5OTk5OTYgeiBtIDQuMmUtNCwxMC40OTk0MzA2IHYgMjguOTk0MDE3IiBzdHlsZT0iY29sb3I6IzAwMDAwMDtvcGFjaXR5OjAuOTk7ZmlsbDojNTk4NmYyO2ZpbGwtb3BhY2l0eToxO3N0cm9rZS1saW5lY2FwOnJvdW5kO3N0cm9rZS1saW5lam9pbjpyb3VuZDstaW5rc2NhcGUtc3Ryb2tlOm5vbmUiIGlkPSJwYXRoMTg0MC04Ii8+JiN4YTsgIDwvZz4mI3hhOzwvc3ZnPg==;" vertex="1" parent="1">
          <mxGeometry x="738.0600000000001" y="463.65999999999997" width="37" height="42" as="geometry" />
        </mxCell>
        <mxCell id="d0G_s2lFXDd53nD6BOQX-16" value="Model&lt;div&gt;Monitoring&lt;/div&gt;" style="text;html=1;align=center;verticalAlign=middle;resizable=0;points=[];autosize=1;strokeColor=none;fillColor=none;" vertex="1" parent="1">
          <mxGeometry x="716.56" y="515.66" width="80" height="40" as="geometry" />
        </mxCell>
        <mxCell id="d0G_s2lFXDd53nD6BOQX-17" value="Drift and&amp;nbsp;&lt;div&gt;Skew&lt;/div&gt;" style="text;html=1;align=center;verticalAlign=middle;resizable=0;points=[];autosize=1;strokeColor=none;fillColor=none;" vertex="1" parent="1">
          <mxGeometry x="676" y="474.33" width="70" height="40" as="geometry" />
        </mxCell>
        <mxCell id="d0G_s2lFXDd53nD6BOQX-18" value="Versioning" style="text;html=1;align=center;verticalAlign=middle;resizable=0;points=[];autosize=1;strokeColor=none;fillColor=none;" vertex="1" parent="1">
          <mxGeometry x="901" y="648" width="80" height="30" as="geometry" />
        </mxCell>
        <mxCell id="d0G_s2lFXDd53nD6BOQX-20" value="Versioning" style="text;html=1;align=center;verticalAlign=middle;resizable=0;points=[];autosize=1;strokeColor=none;fillColor=none;" vertex="1" parent="1">
          <mxGeometry x="1000" y="560" width="80" height="30" as="geometry" />
        </mxCell>
        <mxCell id="d0G_s2lFXDd53nD6BOQX-21" value="" style="edgeStyle=none;orthogonalLoop=1;jettySize=auto;html=1;rounded=0;entryX=0.5;entryY=1;entryDx=0;entryDy=0;strokeColor=#666666;strokeWidth=2;flowAnimation=1;" edge="1" parent="1" source="d0G_s2lFXDd53nD6BOQX-15" target="d0G_s2lFXDd53nD6BOQX-22">
          <mxGeometry width="100" relative="1" as="geometry">
            <mxPoint x="330" y="20" as="sourcePoint" />
            <mxPoint x="750" y="350" as="targetPoint" />
            <Array as="points" />
          </mxGeometry>
        </mxCell>
        <mxCell id="d0G_s2lFXDd53nD6BOQX-23" value="" style="edgeStyle=orthogonalEdgeStyle;rounded=0;orthogonalLoop=1;jettySize=auto;html=1;strokeColor=#666666;strokeWidth=2;flowAnimation=1;" edge="1" parent="1" source="d0G_s2lFXDd53nD6BOQX-22">
          <mxGeometry relative="1" as="geometry">
            <mxPoint x="850" y="273" as="targetPoint" />
            <Array as="points">
              <mxPoint x="800" y="273" />
              <mxPoint x="800" y="273" />
            </Array>
          </mxGeometry>
        </mxCell>
        <mxCell id="d0G_s2lFXDd53nD6BOQX-22" value="" style="shape=image;verticalLabelPosition=bottom;labelBackgroundColor=default;verticalAlign=top;aspect=fixed;imageAspect=0;image=data:image/png,iVBORw0KGgoAAAANSUhEUgAAAPkAAADLCAMAAACbI8UEAAAArlBMVEX///8ArdQ2NjYAq9MArdMyMjLc3Nz//v/V1dU0MjNEQ0M3NTb4+PgwMDApKSk1NTWWlpa/v7+rq6uoqKiNjY16enplZWXk5OQ+PD1RUVEAqdPGxsa1tbX5/v5LS0uioqPx+/3v7++BgYElJSXo+Ptubm7d9PnOzs7q6upiyeM1u9uX2+yv5PDD7fV91Olbx+Gf4O696fMsuNqH1+pdXV3S8vdGwt5nx+McHBxoaGj8lbkSAAAQkklEQVR4nO1di2KquhIVA7WKQG1rVVot1kcVEREf5+7//7GbFxggQehD0LL22ftYgTArM5nMTAKt1SpUqFChQoUKFSpUqFChQoU/jQb8U7OcnetZ9Oe/BGspmUDeTIuW48KASt4BIEkScP+Ywmu1gy9h6vKhaEkuCqjmpSlhgOWwaGkuCEh8KwPKXHaKFueimB4pcUjdtv7SUF+FxCH13R+y97nPMvf/hpNDhj10AQipy3/Jya1lRuUI29pfiOMatSF0bzJj7RI4/pFIzjMlWWZVDsCqaJkugrktRXnDn/x50VJdAm5skCOY7h9wcgc5SRzqfVu0XL+OYRCwx5R+vHmlO/EZLdD6rYfvlg8knrnL4Nad3IqvcTSzuUXL9qs4+BJX5dDFAemmw/elUOU3XqPYAhFzFM8Ar2j5fgM4H7E2QuKYvG0VLOXvoNGo7VKJw0l9V7SQvwGo9KkvmMsJoLnf6Mw2dLnRW8TeN0UL+fOAKl/7Z4wdUV8XLegvYJiB+G3WKByTG8LEB/vt1SjmfgbeiPrNOTlePYJH3Lyt8L1RO0jZmN9cjUJQj+BSv60ahZOZtyyZ3g3V3i07K3NUfbdvyMntMts6Jn87Tm6eJYhhLf5mahTCeoQA5tIqWuSfwVpQjwCC72XpJvZRNGrTI3+UA3m34g4DmK7aVx++oy1/gnIrQMUnh3cMABncQo0CuTcuv42FIhyu0sEN7KNo1FA9gru2gFPxAy+RwYXYoiX/NtbcRRU4lOnqKSeTQYvr1x++D4/cUQ7CktvUFriBa69RcF2YhINzCo9L/OprFHO+RgE4WsEpoiL8lRdid9BP80a5xIQqa4lzCjKL6w3fG7WDaLE8soQmKNdcs5Pjz9YkJWFScH6JDoYzm6vdEesIqq1gFWXk8cJbGL1f7RLjlD+jJaNyS3Ciea3hu2ABEYDoZk92t3tM61dao+AGpnivZ6zE2EAOgT/7kfD9yga70L3Fk5EGJDbnTX6o+r5BvXRlzLf8CjvgTNPoSSZuL8Emrq9GAeNx/lYg34qdiTWa2RuWHx43J4d/BTOVYwqor67M2nnRiQzdmInqEVxs+Hn81dUouPsjYKZurkUqXAu2yoHr2gYtcG+pE/SOq/RodlNq4Ed0NoA/S6VlnpYvmNRPGW35wXVvaEZLDcQdrqHAHkQ1iuvwcsIZzU4dstZR4N+vZolx+NWEm/u4g4RWmy4j+Ldx4KycIE7nt/TyAl5UiZXX12DtjaFwNSk9HGvQRVcOeyCMAkoFhz8tn085IfWVaKH9GmoUAvcmZyqgDwXVd9O/gvB9xy2l4kd0zoxVdNiReZM6/LL8S4xzYTyS6XK0LTjZcSBYhisx4Iwmc31UVsnngkK1uSm5exc9jmbusgrOrd6hVclyh++iKirI7qH4S4ylf1QbB+y8taIcs9KW0wQOhDKbzWWBhRJt/xLXI3iAdsPzkuVdYmykbP/K5Zj55Wo4tZX0gTb0vAbf1PMuGKCMh/+o9tmQoCAIVsKh7S6nVh6Rpz63OCOfyXKLg2j3A+TuH3dODte8EjVUzvB9mra7FQDgH71DxhUTZD3cgAg5ufIZfPqGZkjEBP7Sy6b5tWj9uYw1inOPo6H9gEjz7jzLYBUtMZYxfBdEbyedU9lNf5lBetGjTvkig4tgm3knNxzCGbh7/Fy3bDUKtKFZJClXc7J7zlVZoh2CiRXJgrHjF9C4GpfwHsiVld6icJMNep1cefz7PIU2tzYlA7BJN3nxzoMyObm0B6xBwD1GRAbyKtXL4/SH021mturOZbCVzwxyQN4eEmMPNqnZl+gVBWZ5dggKNjRjzeKEk7zUFkhMcRL3FbDFlou9JndhskQ1Co9fNQQIsuz7NvyDIKMvAr3jGgaQvRSLdwSpX2kKsWw9gg5pSBBSProrZ7s+zKcYh8PW2S1tn9SVAd5CgR7jEVMfCpK/0tQo3EikiVj7m523nlu8k4fTtefaKIhHeSc6PeXhtIMvWLVwh2WY1w5IfXgIyzgwX67WUwsfacTEC34eWgdv6ZNBDP8uxcNW5ORKsQ0a1yOIBwP2f5D16VAjGnI0Ih/mjutTzyeOxfmFWBmvxBeudRxryZIp+UsnkoaJJQtUP1/ZyOPLKe/KEuy+KEWNAi1/Atl211biUJR73PYRhtuNDLM3scMabvg1OakEm8XQPoGlM03s4sUPKEZ2NHONwNouj6JBiy7YcmszyMn9jPjfwXRLu5+n06GFMQw6Jn7O+cHqct/GAn1qScL3pEqtg+Pt3OUGw4Uz+1pon6n0RasXpdxHYUG/ffRlEwIQ4I+yvVmtWSfIG/lJePzleFSjKNy9E5w8Np6rE7kZidxtOAPka1e0DVpC26DLw33u2VDBAn9MQlYTHFeZqpABRFtJy/JAG+r9g+vL0ZQsARl7J9/NMSmlPR1RAp030NxM358g04GYQt+Uj46VtW3eBjt8i3K8dGftpr7xLyE1kDfbrBW1nSl4NARHAsXqfe5KZq6Xxkgy9PvHbbblJuso6D3o5Aq29zV6SVCOsjMRHPqDs9VnAu5iJUg+7XhpWC5J1nLyRiCV97MQOTlJLtTJzfO+KSfaA7aXweRFb1krcImxUdv6IJdvSwgPuZ8vKYoe9Sxws5iDXqGRd4jHqEPu52xeuK5c1Mw2XIGgtPxloLgWjndOgh+iIWQuFfV7PXj7OuKxKwj/ETJHJ8gbQVBLf22PiPnlH/CBAg3PLSTKhHO20QAVf1xtp1b0HjWU+3kp78Iu5J1qO+6rMQhbWpREL4HK+NpPlM7AVHa5cg6hxxtO185u46d0byE+bsd7IxQghNHaim/bdrC0ktUH4s7y/eNxiXA8kqvFl8tSASsuXnDviNymLNsb1wsWVw6HNVlakQSPZLEXk7ZkGQQFjeAVcmnT5uWZRx+sw4UHtKDkrafDpKMaTrfuUWbX1H4I4PIF6GjqiAsOLjNAObDWK/u85nNCvvDTDg38XqSABCqZb7yDdf466+DanErVd3DpZ/Mt8tJebOOmvCS7GxFS4290cOodf5L4xWtSO4CfHURj+7jKOaEOt8vk/okvgMyfF1Y5LQqiLY0o6MydKK5dwSNOeclf+tet4pefQdHt1Zc7fP4j3C/+e2Zd/LzFJs/G7STmO9uEY+YbaR4w7Qv/7kkHDe/l1vrOTbGzW9lf03uY41x618gRevOf2bQAHT3g73pL1TX510/fT/cb8JbbH7un5R1lAPLZPMkAN4eiC87fAF5StJxN3moWtJMf7Px84v5ca3h1ZpmHe7BIcb0aZ3HY4aiW//RKSBnZuQn8HYrURZswrg9T5yjTdEawSYKGjF6uhdjrAFQ89XZyXNnkrVP+Mm+kfA0gv3tu6yLy0WQOQAuHhm4vPbSt8kZMnANr7uz+Q0UoiRZmJN8/urstfzPprWE4nR+2jrPa7TzHORzm1u2N7Oy4XSPnoxH7/82D7qCMfVOhQoUKFSpUOI/23f0Jd4vIofskxujAgpzc5rYRIDja7t1B9No1EcjFPdHhxV2v14sKVhtHbwHv0EMnpcmcxGddCVEfvTx3TiJ2+koc+jtqvauhz637sI3kiYrySg8+jxAGbyJm4wFqTdsv+Id7e3R5axbpmWddUQyl3iE/vQ3wLUZ92ERHS8r8yG+5o6n1EIqmTwaPAfcnrR6H/oyYvyjos/EatqEkTqxrlOr9RDEgtJGg52u9voHuPBAo/WGiYvGf2S+7uqrWVY1Q6tQ1eIOm0kSnPOpJmR9EzGMnNrVnKuRTU8ScXHNiboiZP1BR9I6QuZrCfLEnQigtdrhA5vW62sTMFyPU72pd7465zFUxczV6IhTyZfxt5ipl3htQe9D+CZSezvwpEG/CDheG+XiGuKqqNsDtf4M5akX/aOdjLrb2p+CQ0f/8AvP2vknF02ZMzzHMH4iQzRZpnsNcS2du6AiagZVe154Y5k39hP898Ji/avigouKmFPzDBFt3exR2itb9AvOOXg8VwwyXE/NAfI0excxVKgOV+T2NudF6f3x8fJj1SZcZrXHInByieLrjMR+/4WNEP8qAnI9V9DoJ+96o8+05jXn7I1AhNGem50LmdwMNd7cWOEDCPJCBQOA7CXOtSxxIb0Z0NHkMmesfCXnizCnetXBABF3SZfynYLylMb9vhR4E6jGcRQPmb+1/GrHRj8D/EeZJmc8yry0IKw05yvzM1Rjz+xYz4BT+lJ3G/IGdeCanngt0/k5MQhuELZNx/hXmcMxi6x/1AubK6PEtwGs7nXlc5x90FBLNKdyQIoX5oqXQgUJ6LjwFM6+rAxwKQAlPzjOw9rjMGZi3R2i0qupn6OEU4r90TdP792eZqwzzRd9Ao9DoEwm1fzwhUpi/TajXwQ7EIH73xLyu4GZD7xYyP8msQ5nvMjKvzTQyhjizGp2Z0pirLPOnCfqirrx94OFoaPEr0pmPyX2U/WeLWN8gKMxR5kQohfUfiVnNqN8nGhYw/8CaU56+zxxJjogPFq91QxUNPzFzGiBBz0gcpaEHd2SZK102RPouc/VHmL+hk1Qk+RgbUp1JcjIwb1O+xl3ttU/6IJCSZX4aA99lPiMmxlq7QVwU1Fsu5qQlQ4MD7Y24Ol44JWR+T73D7NQJQc9FrH3EykGYq6oaTIfZmQdRF+PhaFswOxrd5WB+rxHJX9rtNqEHvXByYhMyf9YDnbZrj8TXBQELyxw2yvgwqnPoElWKUVYP19FJR55mtUHnNQDpvmzMG1RytfXR7XbpzMTJlUXMg1zH2H90P17o59aCZa6Rb7X9Sa2EubaPy3yeeW9PI5n212K4E/MwSzM0CBLSQwNIZGwi5mGuo8DLg8+TR5b5jCSoME8LL84fw81IjPJJiJOckDBPZhoB83jGHWV+qmugcRLaZmJiEzBv7zkJYNBzhLny9omGImxe/xdcnZu50Xp+eHj42PeJuEokY0GHAtyfmBsvzPevcebj0WlmUEPiKuNKI8yNepdp7Q7JxSl3wPM6IXOUsbz1m9TgxwxzOPSfo62JmUORcJRG70aSa+rhDI3J+Nj8nEkFJ/8aMeadiUpZU2C9w//Hxx11fuxdJu/Qm5+mJ3x1oPRZhDm0LOpAuguGeVTm9PxcZRRTT1QmVOrb1UhlgqGlzGI6h1kaJdRUFPif0iTXJCsklDnbnvZe++zTYD2AFoTw9xHm7WeFGhMZr6f5POzxzHU4KOwsWo1iupytQLLQAuZB3P7ZJxf1Hzokceh0yezYjA9olnnQ2nvtmZrVPkw96GyLm2dqMu3nCdHN5Lld+1YF0tCMUwUyIZOIeajzIFfDkkPthYlzbbEnNZt4xtbrJwa09tRrGSQAODnENyKNgXoODQWVtjSeUQbKR07mejMEtCldmYU3e9KaESiGMaHWbkDzZaHN0DjXYQvklDtUBYY/TZhR/aQb6LvQGQXM69GmYBP60/sEfVD0/ckfjv/p6EQFEelODKNp0KrzYqY3cRP/e4chjx4XzRAx/2wxGLw8fDIrDaNWHH280vDRT3yP+vvtdMorPYOdERcv5LtR1NzH++Rd3p7p9WzBtXO61QM5TKfVHm24BfP0TkI02BqfeQ0v/hD0xsJDAXC/jJPfoyvbzCk95nPIkd4lJsCCc5c279ReeKt29GibkS7Z2J2oNFGhQoUKFSpUqFChQrnxfyA/ggZHox1AAAAAAElFTkSuQmCC;" vertex="1" parent="1">
          <mxGeometry x="727.06" y="249.11999999999998" width="59" height="48.1" as="geometry" />
        </mxCell>
        <mxCell id="d0G_s2lFXDd53nD6BOQX-24" value="" style="edgeStyle=orthogonalEdgeStyle;rounded=0;orthogonalLoop=1;jettySize=auto;html=1;strokeColor=#666666;strokeWidth=2;flowAnimation=1;" edge="1" parent="1">
          <mxGeometry relative="1" as="geometry">
            <mxPoint x="907" y="274.96" as="sourcePoint" />
            <mxPoint x="981" y="274.96" as="targetPoint" />
            <Array as="points">
              <mxPoint x="921" y="274.96" />
              <mxPoint x="921" y="274.96" />
            </Array>
          </mxGeometry>
        </mxCell>
        <mxCell id="d0G_s2lFXDd53nD6BOQX-30" value="Vertex AI" style="sketch=0;html=1;verticalAlign=top;labelPosition=center;verticalLabelPosition=bottom;align=center;spacingTop=-6;fontSize=11;fontStyle=1;fontColor=#999999;shape=image;aspect=fixed;imageAspect=0;image=data:image/svg+xml,PHN2ZyB4bWxucz0iaHR0cDovL3d3dy53My5vcmcvMjAwMC9zdmciIGlkPSJzdmc1IiB2ZXJzaW9uPSIxLjEiIHZpZXdCb3g9IjAgMCAyMzkuNzA4MjUgMjc0Ljg2MzI4IiBoZWlnaHQ9IjI3NC44NjMyOG1tIiB3aWR0aD0iMjM5LjcwODI1bW0iPiYjeGE7ICAmI3hhOyAgPGRlZnMgaWQ9ImRlZnMyIi8+JiN4YTsgIDxnIHRyYW5zZm9ybT0idHJhbnNsYXRlKC02Ni42ODYzNjEsNjAuMjU5NzY2KSIgaWQ9ImxheWVyMSI+JiN4YTsgICAgPGcgc3R5bGU9Im9wYWNpdHk6MC45OSIgaWQ9InBhdGg4NjkiLz4mI3hhOyAgICA8ZyBzdHlsZT0ib3BhY2l0eTowLjk5IiBpZD0icGF0aDg2OS0yIi8+JiN4YTsgICAgPGcgc3R5bGU9Im9wYWNpdHk6MC45OSIgaWQ9InBhdGg4NjktMyIvPiYjeGE7ICAgIDxnIHN0eWxlPSJvcGFjaXR5OjAuOTkiIGlkPSJwYXRoODY5LTEiLz4mI3hhOyAgICA8ZyBzdHlsZT0ib3BhY2l0eTowLjk5IiBpZD0icGF0aDg2OS04Ii8+JiN4YTsgICAgPGcgc3R5bGU9Im9wYWNpdHk6MC45OSIgaWQ9InBhdGg4NzEiPiYjeGE7ICAgICAgPHBhdGggaWQ9InBhdGgzMzU3IiBkPSJtIDc3LjE4Njc3NSwxMTAuODgyNTIgOTQuMjM5Njk1LDY5Ljc0NTc1IiBzdHlsZT0iY29sb3I6IzAwMDAwMDtmaWxsOiMwMDgwMDA7c3Ryb2tlLXdpZHRoOjIxO3N0cm9rZS1saW5lY2FwOnJvdW5kOy1pbmtzY2FwZS1zdHJva2U6bm9uZSIvPiYjeGE7ICAgIDwvZz4mI3hhOyAgICA8ZyBzdHlsZT0ib3BhY2l0eTowLjk5IiBpZD0icGF0aDg3MyIvPiYjeGE7ICAgIDxwYXRoIGQ9Im0gMTUzLjA4MTIsMTA5LjAzNTY4IGMgMCw2LjEyMDQ3IC00Ljk2MTYyLDExLjA4MjA5IC0xMS4wODIwOSwxMS4wODIwOSAtNi4xMjA0NywwIC0xMS4wODIwOCwtNC45NjE2MiAtMTEuMDgyMDgsLTExLjA4MjA5IDAsLTYuMTIwNDYgNC45NjE2MiwtMTEuMDgyMDgyIDExLjA4MjA4LC0xMS4wODIwODcgNi4xMjA0NywtMTBlLTcgMTEuMDgyMDksNC45NjE2MTcgMTEuMDgyMDksMTEuMDgyMDg3IHogbSAwLC05Mi41MTMzODEgYyAwLDYuMTIwNDY5IC00Ljk2MTYyLDExLjA4MjA5IC0xMS4wODIwOSwxMS4wODIwODkgLTYuMTIwNDcsLTVlLTYgLTExLjA4MjA4LC00Ljk2MTYyNCAtMTEuMDgyMDgsLTExLjA4MjA4OSAwLC02LjEyMDQ2NSA0Ljk2MTYxLC0xMS4wODIwODQ2IDExLjA4MjA4LC0xMS4wODIwODk2IDYuMTIwNDcsLTZlLTcgMTEuMDgyMDksNC45NjE2MjA2IDExLjA4MjA5LDExLjA4MjA4OTYgeiBtIDAsLTMyLjkyMTY4MyBjIDAsNi4xMjA0NjkgLTQuOTYxNjIsMTEuMDgyMDkwNSAtMTEuMDgyMDksMTEuMDgyMDg5OSAtNi4xMjA0NywtNWUtNiAtMTEuMDgyMDgsLTQuOTYxNjIzOSAtMTEuMDgyMDgsLTExLjA4MjA4OTkgMCwtNi4xMjA0NjUgNC45NjE2MSwtMTEuMDgyMDg0IDExLjA4MjA4LC0xMS4wODIwODkgNi4xMjA0NywtMTBlLTcgMTEuMDgyMDksNC45NjE2MiAxMS4wODIwOSwxMS4wODIwODkgeiBNIDEwOC43NDE4MSw3Ni43MTgwMSBjIDAsNi4xMjA0NjkgLTQuOTYxNjIsMTEuMDgyMDg5IC0xMS4wODIwODksMTEuMDgyMDg5IC02LjEyMDQ2OSwwIC0xMS4wODIwODksLTQuOTYxNjIgLTExLjA4MjA4OSwtMTEuMDgyMDg5IDAsLTYuMTIwNDY5IDQuOTYxNjIsLTExLjA4MjA4OSAxMS4wODIwODksLTExLjA4MjA4OSA2LjEyMDQ2OSwwIDExLjA4MjA4OSw0Ljk2MTYyIDExLjA4MjA4OSwxMS4wODIwODkgeiBtIDAsLTMyLjY4MDYyNiBjIDAsNi4xMjA0NjkgLTQuOTYxNjIsMTEuMDgyMDg5IC0xMS4wODIwODksMTEuMDgyMDg5IC02LjEyMDQ2OSwwIC0xMS4wODIwODksLTQuOTYxNjIgLTExLjA4MjA4OSwtMTEuMDgyMDg5IDAsLTYuMTIwNDY5IDQuOTYxNjIsLTExLjA4MjA4OSAxMS4wODIwODksLTExLjA4MjA4OSA2LjEyMDQ2OSwwIDExLjA4MjA4OSw0Ljk2MTYyIDExLjA4MjA4OSwxMS4wODIwODkgeiBtIDAsLTMyLjY3ODI0MyBjIDAsNi4xMjA0NjkgLTQuOTYxNjIsMTEuMDgyMDkgLTExLjA4MjA4OSwxMS4wODIwOSAtNi4xMjA0NjksMCAtMTEuMDgyMDksLTQuOTYxNjIxIC0xMS4wODIwODksLTExLjA4MjA5IDAsLTYuMTIwNDY4OCA0Ljk2MTYyLC0xMS4wODIwODkwNyAxMS4wODIwODksLTExLjA4MjA4OTA3IDYuMTIwNDY5LDAgMTEuMDgyMDg5LDQuOTYxNjIwMjcgMTEuMDgyMDg5LDExLjA4MjA4OTA3IHogTSAxNDIsMzcuNzc5Mjk3IGMgLTUuNzk4OTksMCAtMTAuNSw0LjcwMTAxIC0xMC41LDEwLjUgdiAyOC45OTQxNCBjIDAsNS43OTg5OSA0LjcwMTAxLDEwLjUgMTAuNSwxMC41IDUuNzk4OTksMCAxMC41LC00LjcwMTAxIDEwLjUsLTEwLjUgdiAtMjguOTk0MTQgYyAwLC01Ljc5ODk5IC00LjcwMTAxLC0xMC41IC0xMC41LC0xMC41IHogbSAtOC45ZS00LDEwLjUwMDM3NyBWIDc3LjI3MzY5MSBNIDk3LjY2MDE1NiwtNjAuMjU5NzY2IGMgLTUuNzk4OTksMCAtMTAuNSw0LjcwMTAxIC0xMC41LDEwLjUgdiAyOC45OTQxNDEgYyAwLDUuNzk4OTkgNC43MDEwMSwxMC41IDEwLjUsMTAuNSA1Ljc5ODk5NCwyZS02IDEwLjUwMDAwNCwtNC43MDEwMDkgMTAuNTAwMDA0LC0xMC41IHYgLTI4Ljk5NDE0MSBjIDAsLTUuNzk4OTkxIC00LjcwMTAxLC0xMC41MDAwMDIgLTEwLjUwMDAwNCwtMTAuNSB6IG0gLTQuMzVlLTQsMTAuNDk5NzY1IHYgMjguOTk0MDE3IE0gNzUuNjM0NzY2LDEwMC40OTgwNSBjIC0yLjc1NDE5MSwwLjQxMTQ4IC01LjIzMjExOSwxLjkwMDIxIC02Ljg4ODY3Miw0LjEzODY3IC0zLjQ0ODg3NCw0LjY2MTU3IC0yLjQ2NjAyNCwxMS4yMzYzNSAyLjE5NTMxMiwxNC42ODU1NSBsIDk0LjIzODI4NCw2OS43NDYwOSAxMi43ODYwNCwtMTYuNjY2NTkgLTk0LjUzMjEzNiwtNjkuOTU4NDEgYyAtMi4yMzg2OTksLTEuNjU3MTYgLTUuMDQ0MTAxLC0yLjM1NjkzIC03Ljc5ODgyOCwtMS45NDUzMSB6IiBzdHlsZT0iY29sb3I6IzAwMDAwMDtvcGFjaXR5OjAuOTk7ZmlsbDojYjVjYmY5O2ZpbGwtb3BhY2l0eToxO3N0cm9rZS13aWR0aDoyMTtzdHJva2UtbGluZWNhcDpyb3VuZDtzdHJva2UtbGluZWpvaW46cm91bmQ7LWlua3NjYXBlLXN0cm9rZTpub25lIiBpZD0icGF0aDE4NDAtNSIvPiYjeGE7ICAgIDxwYXRoIGQ9Im0gMTk3LjM5Mjc2LDE0MS45NzM2NiBjIDAsNi4xMjA0NyAtNC45NjE2MiwxMS4wODIwOSAtMTEuMDgyMDksMTEuMDgyMDkgLTYuMTIwNDcsMCAtMTEuMDgyMDksLTQuOTYxNjIgLTExLjA4MjA5LC0xMS4wODIwOSAwLC02LjEyMDQ3IDQuOTYxNjIsLTExLjA4MjA5IDExLjA4MjA5LC0xMS4wODIwOSA2LjEyMDQ3LDAgMTEuMDgyMDksNC45NjE2MiAxMS4wODIwOSwxMS4wODIwOSB6IG0gMCwtOTIuNzI1NTg2IGMgMCw2LjEyMDQ2OSAtNC45NjE2MiwxMS4wODIwOSAtMTEuMDgyMDksMTEuMDgyMDg5IC02LjEyMDQ3LDFlLTYgLTExLjA4MjA5LC00Ljk2MTYyIC0xMS4wODIwOSwtMTEuMDgyMDg5IDAsLTYuMTIwNDcgNC45NjE2MiwtMTEuMDgyMDkxIDExLjA4MjA5LC0xMS4wODIwOSA2LjEyMDQ3LC0xZS02IDExLjA4MjA5LDQuOTYxNjIgMTEuMDgyMDksMTEuMDgyMDkgeiBtIDAsLTMyLjg1NDQ1OCBjIDAsNi4xMjA0NjkgLTQuOTYxNjIsMTEuMDgyMDkgLTExLjA4MjA5LDExLjA4MjA4OSAtNi4xMjA0NywxMGUtNyAtMTEuMDgyMDksLTQuOTYxNjIgLTExLjA4MjA5LC0xMS4wODIwODkgMCwtNi4xMjA0NjkgNC45NjE2MiwtMTEuMDgyMDkwMyAxMS4wODIwOSwtMTEuMDgyMDg5NyA2LjEyMDQ3LC02ZS03IDExLjA4MjA5LDQuOTYxNjIwNyAxMS4wODIwOSwxMS4wODIwODk3IHogbSAxMDAuMDI5MTEsODQuMDA2Nzc0IGMgLTIuNzU1MTcsLTAuNDA1MDA0IC01LjU1ODM4LDAuMzAxMDcgLTcuNzkyOTYsMS45NjI4OSBsIC05NC43NDYxLDcwLjQzNzUgMTIuNTI5MywxNi44NTM1MiA5NC43NDYwOSwtNzAuNDM3NSBjIDQuNjU0MTIsLTMuNDU5NzggNS42MjIxNSwtMTAuMDM3NDggMi4xNjIxMSwtMTQuNjkxNDEgLTEuNjYxMzYsLTIuMjM1NTMgLTQuMTQyODcsLTMuNzE5MzcgLTYuODk4NDQsLTQuMTI1IHogTSAxODYuMzEwNTUsNzAuODY3MTg3IGMgLTUuNzk4OTksMCAtMTAuNSw0LjcwMTAxIC0xMC41LDEwLjUgdiAyOC45OTQxNDMgYyAwLDUuNzk4OTkgNC43MDEwMSwxMC41IDEwLjUsMTAuNSA1Ljc5ODk5LDAgMTAuNSwtNC43MDEwMSAxMC41LC0xMC41IFYgODEuMzY3MTg3IGMgMCwtNS43OTg5OSAtNC43MDEwMSwtMTAuNSAtMTAuNSwtMTAuNSB6IG0gMS4yZS00LDEwLjUwMDgyNyB2IDI4Ljk5NDAxNiIgc3R5bGU9ImNvbG9yOiMwMDAwMDA7b3BhY2l0eTowLjk5O2ZpbGw6Izc2OWVmNTtmaWxsLW9wYWNpdHk6MTtzdHJva2Utd2lkdGg6MjE7c3Ryb2tlLWxpbmVjYXA6cm91bmQ7c3Ryb2tlLWxpbmVqb2luOnJvdW5kOy1pbmtzY2FwZS1zdHJva2U6bm9uZSIgaWQ9InBhdGgxODQwLTMiLz4mI3hhOyAgICA8cGF0aCBkPSJtIDE4Ni4zNDU3LDE3MC42ODE2NCBjIC0xMi4wNDU3LDAgLTIxLjk2MDkzLDkuOTE1MjQgLTIxLjk2MDkzLDIxLjk2MDk0IDAsMTIuMDQ1NyA5LjkxNTIzLDIxLjk2MDk0IDIxLjk2MDkzLDIxLjk2MDk0IDEyLjA0NTcsMCAyMS45NjA5NCwtOS45MTUyNCAyMS45NjA5NCwtMjEuOTYwOTQgMCwtMTIuMDQ1NyAtOS45MTUyNCwtMjEuOTYwOTQgLTIxLjk2MDk0LC0yMS45NjA5NCB6IG0gMCwxNCBjIDQuNDc5NTUsMCA3Ljk2MDk0LDMuNDgxMzkgNy45NjA5NCw3Ljk2MDk0IDAsNC40Nzk1NSAtMy40ODEzOSw3Ljk2MDk0IC03Ljk2MDk0LDcuOTYwOTQgLTQuNDc5NTQsMCAtNy45NjA5MywtMy40ODEzOSAtNy45NjA5MywtNy45NjA5NCAwLC00LjQ3OTU1IDMuNDgxMzksLTcuOTYwOTQgNy45NjA5MywtNy45NjA5NCB6IE0gMjg2LjE2MTM3LDc2Ljc5MTAwOCBBIDExLjA4MjA4OSwxMS4wODIwODkgMCAwIDEgMjc1LjA3OTI4LDg3Ljg3MzA5NyAxMS4wODIwODksMTEuMDgyMDg5IDAgMCAxIDI2My45OTcyLDc2Ljc5MTAwOCAxMS4wODIwODksMTEuMDgyMDg5IDAgMCAxIDI3NS4wNzkyOCw2NS43MDg5MTkgMTEuMDgyMDg5LDExLjA4MjA4OSAwIDAgMSAyODYuMTYxMzcsNzYuNzkxMDA4IFogbSAwLC0zMy4xNDU0MzUgYSAxMS4wODIwODksMTEuMDgyMDg5IDAgMCAxIC0xMS4wODIwOSwxMS4wODIwODkgMTEuMDgyMDg5LDExLjA4MjA4OSAwIDAgMSAtMTEuMDgyMDgsLTExLjA4MjA4OSAxMS4wODIwODksMTEuMDgyMDg5IDAgMCAxIDExLjA4MjA4LC0xMS4wODIwOSAxMS4wODIwODksMTEuMDgyMDg5IDAgMCAxIDExLjA4MjA5LDExLjA4MjA5IHogbSAwLC05Mi40NjgyMjQgYSAxMS4wODIwODksMTEuMDgyMDg5IDAgMCAxIC0xMS4wODIwOSwxMS4wODIwOSAxMS4wODIwODksMTEuMDgyMDg5IDAgMCAxIC0xMS4wODIwOCwtMTEuMDgyMDkgMTEuMDgyMDg5LDExLjA4MjA4OSAwIDAgMSAxMS4wODIwOCwtMTEuMDgyMDg5IDExLjA4MjA4OSwxMS4wODIwODkgMCAwIDEgMTEuMDgyMDksMTEuMDgyMDg5IHogbSAtNDQuMjEzNjIsMzIuNTU3NzE2IGEgMTEuMDgyMDg5LDExLjA4MjA4OSAwIDAgMSAtMTEuMDgyMDksMTEuMDgyMDg5OSAxMS4wODIwODksMTEuMDgyMDg5IDAgMCAxIC0xMS4wODIwOSwtMTEuMDgyMDg5OSAxMS4wODIwODksMTEuMDgyMDg5IDAgMCAxIDExLjA4MjA5LC0xMS4wODIwODkgMTEuMDgyMDg5LDExLjA4MjA4OSAwIDAgMSAxMS4wODIwOSwxMS4wODIwODkgeiBtIDAsOTIuNTM1NDQzIGEgMTEuMDgyMDg5LDExLjA4MjA4OSAwIDAgMSAtMTEuMDgyMDksMTEuMDgyMDg5IDExLjA4MjA4OSwxMS4wODIwODkgMCAwIDEgLTExLjA4MjA5LC0xMS4wODIwODkgMTEuMDgyMDg5LDExLjA4MjA4OSAwIDAgMSAxMS4wODIwOSwtMTEuMDgyMDkgMTEuMDgyMDg5LDExLjA4MjA4OSAwIDAgMSAxMS4wODIwOSwxMS4wODIwOSB6IG0gMCwzMi44ODIzMTIgYSAxMS4wODIwODksMTEuMDgyMDg5IDAgMCAxIC0xMS4wODIwOSwxMS4wODIwOSAxMS4wODIwODksMTEuMDgyMDg5IDAgMCAxIC0xMS4wODIwOSwtMTEuMDgyMDkgMTEuMDgyMDg5LDExLjA4MjA4OSAwIDAgMSAxMS4wODIwOSwtMTEuMDgyMDkzIDExLjA4MjA4OSwxMS4wODIwODkgMCAwIDEgMTEuMDgyMDksMTEuMDgyMDkzIHogbSAzMy4xMzIzMywtMTM2LjU4ODM2NyBhIDEwLjUsMTAuNSAwIDAgMCAtMTAuNSwxMC41IHYgMjguOTk0MTQxIGEgMTAuNSwxMC41IDAgMCAwIDEwLjUsMTAuNSAxMC41LDEwLjUgMCAwIDAgMTAuNSwtMTAuNSB2IC0yOC45OTQxNDEgYSAxMC41LDEwLjUgMCAwIDAgLTEwLjUsLTEwLjUgeiBtIC04ZS00LDEwLjUwMDc1OSBWIDEyLjA1OTIyOSBNIDIzMC44NjUyMyw1LjI0MDIzNDQgYSAxMC41LDEwLjUgMCAwIDAgLTEwLjUsMTAuNDk5OTk5NiB2IDI4Ljk5NDE0MSBhIDEwLjUsMTAuNSAwIDAgMCAxMC41LDEwLjUgMTAuNSwxMC41IDAgMCAwIDEwLjUsLTEwLjUgViAxNS43NDAyMzQgYSAxMC41LDEwLjUgMCAwIDAgLTEwLjUsLTEwLjQ5OTk5OTYgeiBtIDQuMmUtNCwxMC40OTk0MzA2IHYgMjguOTk0MDE3IiBzdHlsZT0iY29sb3I6IzAwMDAwMDtvcGFjaXR5OjAuOTk7ZmlsbDojNTk4NmYyO2ZpbGwtb3BhY2l0eToxO3N0cm9rZS1saW5lY2FwOnJvdW5kO3N0cm9rZS1saW5lam9pbjpyb3VuZDstaW5rc2NhcGUtc3Ryb2tlOm5vbmUiIGlkPSJwYXRoMTg0MC04Ii8+JiN4YTsgIDwvZz4mI3hhOzwvc3ZnPg==;" vertex="1" parent="1">
          <mxGeometry x="754" y="640" width="37" height="42" as="geometry" />
        </mxCell>
        <mxCell id="d0G_s2lFXDd53nD6BOQX-31" value="Model&lt;div&gt;Store&lt;/div&gt;" style="text;html=1;align=center;verticalAlign=middle;resizable=0;points=[];autosize=1;strokeColor=none;fillColor=none;" vertex="1" parent="1">
          <mxGeometry x="746" y="690" width="60" height="40" as="geometry" />
        </mxCell>
        <mxCell id="d0G_s2lFXDd53nD6BOQX-32" value="" style="edgeStyle=orthogonalEdgeStyle;rounded=0;orthogonalLoop=1;jettySize=auto;html=1;strokeWidth=2;strokeColor=#666666;flowAnimation=1;" edge="1" parent="1">
          <mxGeometry relative="1" as="geometry">
            <mxPoint x="850" y="662" as="sourcePoint" />
            <mxPoint x="796.56" y="662.29" as="targetPoint" />
          </mxGeometry>
        </mxCell>
        <mxCell id="d0G_s2lFXDd53nD6BOQX-33" value="Forge Products" style="text;html=1;align=center;verticalAlign=middle;resizable=0;points=[];autosize=1;strokeColor=none;fillColor=none;fontSize=15;fontStyle=1" vertex="1" parent="1">
          <mxGeometry x="125" y="40" width="130" height="30" as="geometry" />
        </mxCell>
        <mxCell id="d0G_s2lFXDd53nD6BOQX-34" value="" style="edgeStyle=none;orthogonalLoop=1;jettySize=auto;html=1;rounded=0;strokeColor=#666666;flowAnimation=1;strokeWidth=2;" edge="1" parent="1">
          <mxGeometry width="100" relative="1" as="geometry">
            <mxPoint x="555" y="660" as="sourcePoint" />
            <mxPoint x="555" y="540" as="targetPoint" />
            <Array as="points" />
          </mxGeometry>
        </mxCell>
        <mxCell id="d0G_s2lFXDd53nD6BOQX-35" value="&lt;h1 style=&quot;text-align: center; margin-top: 0px;&quot;&gt;Data Sources&lt;/h1&gt;&lt;p&gt;&lt;font style=&quot;font-size: 20px;&quot;&gt;1. Service Tickets historical and real-time&lt;/font&gt;&lt;/p&gt;&lt;p&gt;&lt;font style=&quot;font-size: 20px;&quot;&gt;2. Asset model from EOM&lt;/font&gt;&lt;/p&gt;&lt;p&gt;&lt;font style=&quot;font-size: 20px;&quot;&gt;3. Case Activity and Notes&lt;/font&gt;&lt;/p&gt;&lt;p&gt;&lt;font style=&quot;font-size: 20px;&quot;&gt;4. Rules&lt;/font&gt;&lt;/p&gt;&lt;p&gt;&lt;font style=&quot;font-size: 20px;&quot;&gt;5. Telemetry Data&lt;/font&gt;&lt;/p&gt;&lt;p&gt;&lt;br&gt;&lt;/p&gt;&lt;p&gt;&lt;br&gt;&lt;/p&gt;&lt;p&gt;&lt;br&gt;&lt;/p&gt;&lt;p&gt;&lt;br&gt;&lt;/p&gt;&lt;p&gt;&lt;br&gt;&lt;/p&gt;" style="text;html=1;whiteSpace=wrap;overflow=hidden;rounded=0;fillColor=#f5f5f5;fontColor=#333333;strokeColor=#FFFFFF;" vertex="1" parent="1">
          <mxGeometry x="65" y="90.11" width="250" height="319.89" as="geometry" />
        </mxCell>
        <mxCell id="d0G_s2lFXDd53nD6BOQX-36" value="" style="edgeStyle=none;orthogonalLoop=1;jettySize=auto;html=1;rounded=0;exitX=1;exitY=0.5;exitDx=0;exitDy=0;strokeColor=#666666;strokeWidth=2;flowAnimation=1;" edge="1" parent="1" source="d0G_s2lFXDd53nD6BOQX-37">
          <mxGeometry width="100" relative="1" as="geometry">
            <mxPoint x="320" y="20" as="sourcePoint" />
            <mxPoint x="544" y="151" as="targetPoint" />
            <Array as="points" />
          </mxGeometry>
        </mxCell>
        <mxCell id="d0G_s2lFXDd53nD6BOQX-38" value="" style="edgeStyle=none;orthogonalLoop=1;jettySize=auto;html=1;rounded=0;entryX=0;entryY=0.5;entryDx=0;entryDy=0;strokeColor=#666666;strokeWidth=2;flowAnimation=1;" edge="1" parent="1" target="d0G_s2lFXDd53nD6BOQX-37">
          <mxGeometry width="100" relative="1" as="geometry">
            <mxPoint x="313" y="151" as="sourcePoint" />
            <mxPoint x="544" y="146" as="targetPoint" />
            <Array as="points" />
          </mxGeometry>
        </mxCell>
        <mxCell id="d0G_s2lFXDd53nD6BOQX-37" value="" style="shape=image;verticalLabelPosition=bottom;labelBackgroundColor=default;verticalAlign=top;aspect=fixed;imageAspect=0;image=data:image/png,iVBORw0KGgoAAAANSUhEUgAAAOEAAADhCAMAAAAJbSJIAAAA3lBMVEX////HKxv/NiHCAAD/NB7FIAnHKRjEFgD/MRn+GgD88vHGJBH+IgDGJxX/Mhv+JQD+LBHEHAD9ZlrSXFT/+Pf77u3+LRPFKhvafXfmqKT01tT+s67+4N7+vrr+ubT+KAn+1tPVa2T8zcr+6un8W0712tjpsq7QVUz+hHv+rKf+RDL+npj9Tj7+eXDsMh79Oib9b2XimJP+lI3xzMnsvLngLx3NRzz+3NnejIb90M3nq6f9iID+TT7NSD3LPTD+hn3YdW7fiYPKNyr7mpPXb2j6XU/2Y1jdYVfiHQDTGQAQOj3oAAAOMklEQVR4nO1da0PaShM2JCQEQhIwYFUwVBTvd6y1am1rPe/b//+HTq6wM0kmQbMBe/b5djTl7LD7zOWZ2bi2JiAgICAgICAgICAgICAgICAgICAgICAg8N+EM1z2Cjhj29b3RsteBEfsPhpKraGf9Za9EE4Yd3Wz5qOvXy97LTzgPOiNWgy3sbPs9ZSOI9euMVCMx/tlL6lU7B57BIQw9cvxspdVGgavOrbPR0N/WPbKyoFzyBCw1nAZY239aNmrKwFHBkNAU+/u1FxmH62L3WUv8J0YXlisezn27TlhbVb0vbtlL/IduNtjCei60ZnswXOrH37UDKB3Bg15cGa/gr7Htk6WuMy348ToE7EBxA/FVT5eQo4IeJqM70cu43IU/XRU/SLfAUTA9BzNudaZXW58pAwAErCvv2Q9OL6McvHowY+SkL/ArTlrEs+OTtl0zjW2K1vl27FjA3rlRjuQAUQRc5UxemRdpHVRxEWiDKA74L7KtwPyyjYKhjnM2x+rmgFg33hIERBiwPre27p2xXGZb8d2nyGUqb8udtjmGcC5uiFp7QmnVb4dMEfJcxh3KT7zyAroeNHakCRJ1b5scVrp2zATmUKn79JOv/dsGCk+KFRybn0DPbTlz6uTAQCRyQ/cDvn4Ud/O2GbvizqXZmjJX3mteEGgGjcn+RoeW0r05F7yt/e/NHVuY0f7xmnNi2D3GKbYI/Lpu25MV9tNVzC+aZ25iar264bDmhfBABJQoWXQ3qHRiAP7Q9ZRdr7K9bmNbXl9v/xlF0bzGRDQyEyxAzgnjfg4K3vUUR5/ltssHT8VD6wlAxAwtx0xI2CAB3LVW08yoONmqesuCljj5qXY910jOs624WcGtkV73GlLm5soaRvTUtdeBCDPKpBiH7lWtNUPvZdg790MVxPjiqWjKj+Vt/YiaIJc2baKCLt+CWHqXZ+AzQc/g1Usk3RMzR9yi9lGOsiWjBOYYme6RQgvMZhF+XHwFXlhn9z7/YO5y+lUaOGwAVLsBeo51hUNXv04o+gpGhWDmzgDaMuVWQh0h9wUe0zs0e6pT+W8KmTTzwBUTa2q2IDFqtunU2znxNapr2AYFCRenKGio/NT1jqVhYtrVuXNTbFHtmeAQo4mbCt+kOzrz1QsHV9VdUJ3FEDAfH1ztOdzjVZCQ2HYNl4q9ZWpuIcELKZRB9MXdPPFuQ7DY3+RXmKv/PoYikyuWbjPsGNawR4RJzrsRXlpQ2G19EouvT4GIpOtL9QrOrFyU5jw+8sLjzGCjM5LyBdZRB4cJkUz80W05mAwYI6lE6UwNWL9d3uRjbkjGvtRVq5qBRdfCM7cxZg5Ed45unT1ABdnR6Poh704hSFCx27Ac6/yJ23s/Y7THLW+oBEkHLb3TnkE58Wy4oCp9F3DuByG/ItTmFeiBPHDY85JZdLxki1km2VEIbFzEX8Vitkw/X/TsIyzUfC7cI/o0LHdd6lkfFJnFY5SLYSexgviqSf1fi+OJw2jcdrdO9aNfhDPT8NlD2tBeDdQ9bu7N7fKIaLizRdWpSrbQhQt0iT7wVkswpjGZcil3vC54f/QNKJAEIV3tm9/1zUaxmN+xwlKGxwsRG2llLbLth3V/Mor6yuGr2yd5IR5n2tGoS/SpkySn2uBPNWSJM4WotZgCh2jNpmCNuTuMrAx0jmAWw1DpQ/dplw0kBg5WujTkaksknRshoMyCc0mbOub0RzbXexWt2d+iW7+3gCZuKVtcLRwrYfoiFvYg25oC9bddoNOr1sLTb8PqiYzHnGjG/jjA5aAbXm990vlaCHuvPcTCVy4+uSir33TlXhUb3gxkxZpGdL5xBJQ1b7frK1JfC306MiqGN6+YDruKFZw8FBmMOr7uz+buIzGaXJkyE1WcJM6naCPwd1CNG2hGIk1hg4Eu6Lesb9txmH0n37LWLHIDGa6wYqmLflrGC0rsDAxsobPWfMhcp8j9qfjIJzMz7UXKqgMcP+AFb7b8uf4f1KFhX75DuiYaFmEGQLK0U6Cg6kXEud6PyABn+Y1bzUWBjkYS8eEuhu6pL7O5GjD4F/0zwp8+pXGElBrsVJbVRai6cMUXSPsbDDZz2VwtJV+7idP2ywB6zKczajOQp+OMDpitx9mOdH+jruhD1bsnI+Fnae2jOdrKrTQy09QdMR0DFv8we2K6zgxt+lT2gMptio/JTqklVqYoGOivhsHWalpzDJQ+4LsM8IUW5NS2moVW4jn0ozHEfr9iG3Eed6VUnkmIMXOGI7iZWH2N98Ek+kpUvGs/Zs6LDzHzXeQYme1t/lYeNelNHw4E5wi94c5mnVBaRTjdUjAg6wRBS4W+jkM2YdhUulaWsvGy9FcclbR+Qkj/Eb2mAkXC4NCh75whumIHx1fUwTc7LAEJGcTJmEuULKFjXiOqZutlOXSMRtTWOPKP7MJ4XFV4mhhTk8bjC8Ub3/vr6MaN/urYbjKy0I/CyMKgqHJRkfbKtBraaIal5jzAuWw2nmDHdlgLMy5cHaiAzrmTqZfwRpXI7rZmzznT4CF9Li5g+hI9jlgij2rcdNwA8rh1GTnPYAW+hx7Juj4WpCOOMUmeoKwHOYwCY4tzBkT2gUzbBmDlvM2UkjAp+y+LuSql+yUP80fRwu2ICQ1liPLBo8m6Qhr3E6LICB4lEh23oPQQvP1GXKMGIXB0fEfuKwJWeMCTCU2WPIa4gstbHSRPkNeqoB0vJV/zx+FbaS2/Dv71HEnYISZhbggJO9/MhPSt8xGjXGNm01AqEfxHKZlLMQhj5y8jIdsb8MTVp8m2kjBz7KAJjAPON5PABaikEfK1qGM4d+DifZrE9a4FAEnHThFy3WoHVqYDHnEJcNBVz9vb8w41ylS4/rY+q5VOQmNLcSvuiBHbHbBRDPjYAi330PT7ES1UQ6SFnocgw1TaloGxr7wwGq/sgkIuUpWG2UhzcK4ZV2EjjApyTt138DMRdBR445UC/H8QrIxygDENe/UZRMQ6lFRR407MixcW7t/pCVhBrNeGXkPBl8nIaqNUpFpIZ5fIN+PFBR4dI37ExKwuht6hIV4nCgpCc/h0ZG8j7apVU/ACKSF/vULQEdCg9on7hR6NS5LwDpRbew/lZ2f0hb6HRqYAbzh7Qj7YOaCTHa8yrKl1cv1QFH1dJr9BLgGVXPtBd+OAMMJWW1E2aoql5qFxxUwtfATi5aEKeBLTsQY96QVcVXjYSG9cHgdseH+r2gtDmcuNJWoNpjKko+FOX4EXCm9LVjOoRqXIiAIluVaCO9SElr2PCH3S8J6fkXQRDUu8coIGCxLthB27F2b0NkiDeo83Jc8WQUTkDjYeECxXAtRx57Wsv0MIHw1gpQjjaGbom2KgKB5w8PCRW7leQn57azm9Ycp0teyBfQoUmSCwZKXhYvcrIRvDkj1Hgvc2EaCsMrPQkRHUvaGekwiAsBb9yp56x4JwusHbX4Woo59qpYdA7Wt5QM2isN7BVS57wvC7FclTdfWWzwtRHqpQsne+BzOAgGucYmQkiYI87YQ6aUN/blouR75EjhzQZb76YIwfwvReClJR3AcJa01xTXuOtFexIJwxNUKLETVkkI2heEyNdDyJV9dMsl6rUIlFnp0VOBLI7K3wq/mpDR0ZIKAiKvsoxVZiAZoTP0wOzrug17vnIDZn53gKvvhlVmIWoTJiwkMYA9QylF5E1yFj1ZnIWpfXPy/eB+XFJny9KgqLWTn2c5vVfIdZEzq1ekQXwVMsdME4Wot9AfwoxZhWwJ3BpIYhOlznVJ5YYqd3pGp2sKIjufRBpHr9/anRam8WI9Kf5SThT1Cg/LpeMscLGquiXqXHuZqxqN8LHzRDSqsD8//FPUjmYD+lvieuFjoj/h6WTbRRbiC7yBbuOEA56NIPYqLhZHmTYV1LCkR8TwJOB9FCsLjz1z1UnL0ElY6i7wSsLggzHSHeeml5HAJqFYL03ECJqDJqcNvzKMl66VMJUFl2dAdFmrAp9aQBR4tuW+xzbZByVmvBB3pHm5CB8j+ZJiNk77oLYDvKCVnvRAdKY0ioeVk61Hw0RbZnHojwFQCPeuF6JhZ5iI9jpLHYTZONqfeAfiuYPKKMoqOqXS8QZoqsdfwtgKpjb8T2wagIzFc4tGRzqBxiv2paDZeOgERwFQCOVyC6Ai3CKfYhM9NNKd4lxTolVjUcAlqfDKyL1KnKD0qQ2/jCjAkpBin1PJSB7ThFQQy90E+q7LXmO6wr18//0NInokh+yZKscmAuVXRBHQa5nQ8v811E+wqO59hik3UINVNQKcipuN5UPmSYR1cdlHBHacvRQm4lFdC358avvpUxFtsJsdLpZyhp0kdeqnlvNZ7+09Hmo83U9+yg8dLAz0n+5Nhd3hZ74JeS+aKBFMGgI50jVv5BDQFnO/TdIxtVGVKj6p+ApoGLO/IlDHOnrUWVeMubwAzE2zdTY/EBKeazCtxd3hF/lQJnKwnx5q8U124xq1uAroAYKVOj6Zl/mZ5E9CFgOhIjRdmANzIp5OBJQHSkboRmgbUcaKSgeUBX3RZQEmptsZ9BxJ3JYr9Mwd3nFb1b3b5QN6eul0/AyqHV+wPPSUxWfDO0lQFKTaVDKwMvi7g9PeLd5xWCYWvLvV+FBa8Vw2o+sm4flbFNXt+yKfjROX6nosKQBdBW0+FBe/VBVHIrs7frHontjKm79D2fjACQkyhoCT5dJys2N+Oey+wKj+t9pp9FYBjFi1tdUSm8pA6XroSIlN5gL2YiIArITKVB/xWhaqu2VcI0Gf5awgIMaPjX0VAiOAy3l8QASlcyVqhuv8Do7f5NxJQQEBAQEBAQEBAQEBAQEBAQEBAQEBAQEBAQEBAQKAa/At7OGlZzMZSXwAAAABJRU5ErkJggg==;" vertex="1" parent="1">
          <mxGeometry x="350" y="108.23" width="85" height="85" as="geometry" />
        </mxCell>
        <mxCell id="d0G_s2lFXDd53nD6BOQX-40" value="" style="edgeStyle=none;orthogonalLoop=1;jettySize=auto;html=1;rounded=0;entryX=0.534;entryY=0.176;entryDx=0;entryDy=0;entryPerimeter=0;" edge="1" parent="1" target="eAZYdMzIZOF0PukDBkYk-61">
          <mxGeometry width="100" relative="1" as="geometry">
            <mxPoint x="910" y="140" as="sourcePoint" />
            <mxPoint x="1010" y="140" as="targetPoint" />
            <Array as="points">
              <mxPoint x="1003" y="140" />
            </Array>
          </mxGeometry>
        </mxCell>
      </root>
    </mxGraphModel>
  </diagram>
</mxfile>
